M48
; DRILL file {KiCad (5.1.2)-2} date 28.08.2019 15:06:35
; FORMAT={-:-/ absolute / metric / decimal}
; #@! TF.CreationDate,2019-08-28T15:06:35+03:00
; #@! TF.GenerationSoftware,Kicad,Pcbnew,(5.1.2)-2
; #@! TF.FileFunction,Plated,1,2,PTH
FMAT,2
METRIC
T1C0.400
T2C0.800
T3C1.000
T4C1.016
%
G90
G05
T1
X94.7Y-118.8
X95.2Y-98.2
X95.4Y-82.4
X95.9Y-100.2
X98.0Y-127.5
X98.4Y-87.2
X99.0Y-74.0
X99.55Y-122.33
X99.97Y-83.3
X99.97Y-91.84
X99.97Y-103.27
X99.97Y-118.51
X101.1Y-114.7
X101.151Y-96.649
X101.3Y-87.8
X102.0Y-127.5
X103.0Y-74.0
X103.9Y-90.8
X103.9Y-104.2
X103.9Y-106.1
X103.9Y-110.1
X103.9Y-114.7
X104.0Y-89.0
X104.0Y-93.8
X104.1Y-95.7
X104.1Y-98.2
X104.4Y-80.3
X104.46Y-119.8
X104.46Y-122.165
X104.46Y-124.53
X104.5Y-82.2
X104.5Y-84.2
X105.05Y-88.03
X105.05Y-102.3
X105.177Y-114.7
X106.0Y-127.5
X106.8Y-106.5
X106.9Y-79.5
X108.5Y-79.9
X108.8Y-98.4
X108.9Y-109.0
X109.0Y-95.6
X109.08Y-73.68
X109.14Y-105.47
X109.47Y-89.21
X109.5Y-85.1
X109.5Y-90.7
X109.5Y-110.88
X109.5Y-113.5
X109.5Y-115.85
X109.5Y-118.58
X109.57Y-75.74
X109.749Y-102.127
X110.0Y-127.5
X110.003Y-82.061
X110.003Y-108.477
X110.13Y-80.41
X110.13Y-93.745
X110.13Y-95.269
X110.13Y-107.08
X110.13Y-120.415
X110.13Y-122.3
X110.2Y-87.1
X112.1Y-87.1
X112.1Y-100.4
X113.7Y-109.9
X113.9Y-79.4
X113.9Y-85.1
X113.9Y-92.8
X113.9Y-94.8
X114.0Y-127.5
X114.1Y-76.8
X114.4Y-90.9
X114.5Y-88.3
X114.59Y-114.08
X114.75Y-104.25
X114.8Y-117.7
X114.829Y-103.143
X114.9Y-100.8
X115.0Y-74.0
X115.273Y-97.364
X115.3Y-98.5
X115.4Y-121.3
X115.41Y-108.94
X116.3Y-78.9
X116.79Y-118.24
X116.9Y-114.1
X117.9Y-78.9
X117.902Y-98.469
X118.0Y-127.5
X118.6Y-92.8
X118.7Y-111.7
X119.0Y-105.1
X119.1Y-88.2
X119.4Y-85.3
X119.401Y-107.08
X119.5Y-82.8
X119.6Y-78.9
X121.42Y-112.39
X121.5Y-100.6
X121.56Y-98.571
X121.7Y-91.0
X121.8Y-85.1
X121.8Y-89.4
X122.0Y-127.5
X122.8Y-98.6
X123.0Y-74.0
X123.6Y-94.3
X123.719Y-96.285
X124.263Y-89.237
X124.3Y-91.9
X124.72Y-110.94
X124.78Y-114.11
X124.9Y-97.5
X125.5Y-100.6
X125.6Y-104.8
X126.0Y-95.1
X126.0Y-127.5
X126.005Y-91.967
X126.03Y-94.0
X126.64Y-92.856
X127.0Y-74.0
X127.275Y-97.174
X127.783Y-100.476
X128.08Y-112.51
X128.545Y-97.174
X128.86Y-104.42
X128.999Y-106.901
X129.18Y-105.683
X130.0Y-127.5
X130.3Y-106.5
X130.45Y-87.649
X130.5Y-84.0
X130.5Y-101.0
X130.75Y-78.75
X130.75Y-81.5
X131.0Y-74.0
X131.593Y-87.649
X131.72Y-88.93
X132.228Y-116.272
X132.228Y-122.32
X132.736Y-87.649
X132.736Y-107.969
X132.8Y-98.6
X132.99Y-100.857
X133.2Y-106.3
X133.879Y-87.649
X134.0Y-127.5
X134.3Y-94.4
X135.0Y-74.0
X135.657Y-106.064
X136.04Y-87.11
X136.05Y-88.51
X136.9Y-110.9
X137.73Y-82.27
X137.73Y-84.17
X137.9Y-94.4
X138.0Y-127.5
X138.276Y-91.924
X138.6Y-88.4
X138.6Y-90.9
X138.6Y-102.0
X138.705Y-95.269
X138.705Y-96.539
X139.0Y-104.3
X139.1Y-89.3
X139.4Y-100.7
X139.6Y-90.4
X141.4Y-110.5
X141.87Y-89.9
X142.0Y-127.5
X142.01Y-87.53
X143.0Y-111.1
X143.0Y-113.9
X143.3Y-98.5
X145.52Y-78.9
X145.52Y-90.01
X145.52Y-101.93
X145.52Y-113.33
X146.0Y-127.5
X149.0Y-74.0
X149.0Y-127.5
X149.4Y-105.1
X150.9Y-98.9
X150.9Y-101.0
X151.25Y-87.0
X151.8Y-84.2
X151.8Y-111.4
X152.0Y-76.5
X152.0Y-124.5
T2
X122.395Y-114.795
X127.275Y-114.795
T3
X145.513Y-115.081
X145.513Y-117.621
X145.513Y-120.161
X97.049Y-92.2
X97.049Y-94.74
X97.049Y-97.28
X145.499Y-80.727
X145.499Y-83.267
X145.499Y-85.807
X145.513Y-103.651
X145.513Y-106.191
X145.513Y-108.731
X134.006Y-114.7
X134.006Y-117.24
X145.513Y-92.03
X145.513Y-94.57
X145.513Y-97.111
X136.546Y-114.7
X97.049Y-103.545
X97.049Y-106.085
X97.049Y-108.625
T4
X156.718Y-73.152
X156.718Y-75.692
X156.718Y-78.232
X156.718Y-80.772
X156.718Y-83.312
X156.718Y-85.852
X94.361Y-134.747
X96.901Y-134.747
X99.441Y-134.747
X101.981Y-134.747
X104.521Y-134.747
X107.061Y-134.747
X109.601Y-134.747
X112.141Y-134.747
X114.681Y-66.548
X117.221Y-66.548
X129.921Y-66.548
X132.461Y-66.548
X90.424Y-73.152
X90.424Y-75.692
X90.424Y-78.232
X90.424Y-80.772
X90.424Y-83.312
X90.424Y-85.852
X97.049Y-78.378
X97.049Y-80.918
X97.049Y-83.458
X97.049Y-85.998
X97.049Y-88.538
X87.884Y-110.49
X87.884Y-113.03
X87.884Y-115.57
X87.884Y-118.11
X87.884Y-120.65
X87.884Y-123.19
X87.884Y-125.73
X87.884Y-128.27
X125.497Y-75.581
X125.497Y-78.121
X125.497Y-80.661
X125.497Y-83.201
X135.363Y-75.711
X137.903Y-75.711
X140.443Y-75.711
X142.983Y-75.711
X145.523Y-75.711
X135.001Y-132.207
X137.541Y-132.207
X140.081Y-132.207
X142.621Y-132.207
X145.161Y-132.207
X147.701Y-132.207
X150.241Y-132.207
X152.781Y-132.207
X94.361Y-69.088
X96.901Y-69.088
X99.441Y-69.088
X101.981Y-69.088
X104.521Y-69.088
X107.061Y-69.088
X109.601Y-69.088
X112.141Y-69.088
X94.361Y-132.207
X96.901Y-132.207
X99.441Y-132.207
X101.981Y-132.207
X104.521Y-132.207
X107.061Y-132.207
X109.601Y-132.207
X112.141Y-132.207
X149.754Y-80.664
X149.754Y-83.204
X149.754Y-85.744
X149.754Y-88.284
X149.754Y-90.824
X135.001Y-66.548
X137.541Y-66.548
X140.081Y-66.548
X142.621Y-66.548
X145.161Y-66.548
X147.701Y-66.548
X150.241Y-66.548
X152.781Y-66.548
X87.884Y-73.152
X87.884Y-75.692
X87.884Y-78.232
X87.884Y-80.772
X87.884Y-83.312
X87.884Y-85.852
X114.681Y-69.088
X117.221Y-69.088
X129.921Y-69.088
X132.461Y-69.088
X94.361Y-66.548
X96.901Y-66.548
X99.441Y-66.548
X101.981Y-66.548
X104.521Y-66.548
X107.061Y-66.548
X109.601Y-66.548
X112.141Y-66.548
X159.131Y-110.49
X159.131Y-113.03
X159.131Y-115.57
X159.131Y-118.11
X159.131Y-120.65
X159.131Y-123.19
X159.131Y-125.73
X159.131Y-128.27
X122.195Y-122.32
X122.195Y-124.86
X124.735Y-122.32
X124.735Y-124.86
X135.403Y-125.431
X137.943Y-125.431
X140.483Y-125.431
X143.023Y-125.431
X145.563Y-125.431
X135.001Y-134.747
X137.541Y-134.747
X140.081Y-134.747
X142.621Y-134.747
X145.161Y-134.747
X147.701Y-134.747
X150.241Y-134.747
X152.781Y-134.747
X159.258Y-73.152
X159.258Y-75.692
X159.258Y-78.232
X159.258Y-80.772
X159.258Y-83.312
X159.258Y-85.852
X122.195Y-119.78
X124.735Y-119.78
X114.681Y-132.207
X117.221Y-132.207
X129.921Y-132.207
X132.461Y-132.207
X135.001Y-69.088
X137.541Y-69.088
X140.081Y-69.088
X142.621Y-69.088
X145.161Y-69.088
X147.701Y-69.088
X150.241Y-69.088
X152.781Y-69.088
X149.69Y-109.981
X149.69Y-112.521
X149.69Y-115.061
X149.69Y-117.601
X149.69Y-120.141
X122.9Y-103.3
X122.9Y-105.84
X122.9Y-108.38
X156.591Y-110.49
X156.591Y-113.03
X156.591Y-115.57
X156.591Y-118.11
X156.591Y-120.65
X156.591Y-123.19
X156.591Y-125.73
X156.591Y-128.27
X97.049Y-112.287
X97.049Y-114.827
X97.049Y-117.367
X97.049Y-119.907
X97.049Y-122.447
X114.681Y-134.747
X117.221Y-134.747
X129.921Y-134.747
X132.461Y-134.747
X90.424Y-110.49
X90.424Y-113.03
X90.424Y-115.57
X90.424Y-118.11
X90.424Y-120.65
X90.424Y-123.19
X90.424Y-125.73
X90.424Y-128.27
X128.007Y-75.581
X128.007Y-78.121
X128.007Y-80.661
X128.007Y-83.201
T0
M30
