G04 #@! TF.FileFunction,Soldermask,Top*
%FSLAX46Y46*%
G04 Gerber Fmt 4.6, Leading zero omitted, Abs format (unit mm)*
G04 Created by KiCad (PCBNEW 4.0.5) date 07/06/18 10:07:35*
%MOMM*%
%LPD*%
G01*
G04 APERTURE LIST*
%ADD10C,0.100000*%
%ADD11C,5.600000*%
%ADD12R,2.200000X1.630000*%
%ADD13R,1.150000X1.200000*%
%ADD14R,1.200000X1.150000*%
%ADD15R,1.700000X1.700000*%
%ADD16C,1.700000*%
%ADD17R,1.900000X1.900000*%
%ADD18C,1.900000*%
%ADD19R,2.900000X1.400000*%
%ADD20R,1.400000X2.900000*%
%ADD21R,1.197560X1.197560*%
%ADD22C,2.400000*%
%ADD23R,1.598880X0.999440*%
%ADD24C,3.400000*%
%ADD25R,1.300000X1.200000*%
%ADD26R,1.300000X0.900000*%
%ADD27R,0.900000X1.300000*%
%ADD28R,4.200000X2.400000*%
%ADD29R,1.900000X2.400000*%
%ADD30R,1.850000X0.800000*%
%ADD31R,1.460000X1.050000*%
%ADD32C,6.800000*%
%ADD33R,2.432000X2.432000*%
%ADD34O,2.432000X2.432000*%
%ADD35C,0.254000*%
G04 APERTURE END LIST*
D10*
D11*
X120015000Y-104775000D03*
X78105000Y-62865000D03*
D12*
X80605000Y-51435000D03*
X83225000Y-51435000D03*
X80605000Y-56515000D03*
X83225000Y-56515000D03*
X80605000Y-111125000D03*
X83225000Y-111125000D03*
X80605000Y-116205000D03*
X83225000Y-116205000D03*
D13*
X91440000Y-71870000D03*
X91440000Y-70370000D03*
X99568000Y-96405000D03*
X99568000Y-97905000D03*
D14*
X87110000Y-86360000D03*
X85610000Y-86360000D03*
D13*
X95250000Y-71870000D03*
X95250000Y-70370000D03*
D14*
X87110000Y-84455000D03*
X85610000Y-84455000D03*
D13*
X93599000Y-96405000D03*
X93599000Y-97905000D03*
D14*
X87110000Y-88265000D03*
X85610000Y-88265000D03*
X99175000Y-46736000D03*
X97675000Y-46736000D03*
D15*
X90678000Y-58801000D03*
D16*
X90678000Y-53801000D03*
D15*
X107442000Y-60706000D03*
D16*
X107442000Y-62706000D03*
X108204000Y-52888000D03*
D15*
X108204000Y-56388000D03*
D14*
X102120000Y-73660000D03*
X103620000Y-73660000D03*
X103620000Y-94615000D03*
X102120000Y-94615000D03*
X102120000Y-75565000D03*
X103620000Y-75565000D03*
X103620000Y-92710000D03*
X102120000Y-92710000D03*
D17*
X109220000Y-45085000D03*
D18*
X109220000Y-37585000D03*
D17*
X109220000Y-121920000D03*
D18*
X109220000Y-129420000D03*
D19*
X113411000Y-60095000D03*
X113411000Y-63095000D03*
D20*
X122785000Y-79375000D03*
X119785000Y-79375000D03*
X122785000Y-87630000D03*
X119785000Y-87630000D03*
X107237400Y-108077000D03*
X110237400Y-108077000D03*
X123039000Y-121920000D03*
X120039000Y-121920000D03*
D21*
X75450700Y-82550000D03*
X76949300Y-82550000D03*
X75450700Y-85090000D03*
X76949300Y-85090000D03*
D22*
X120015000Y-55840000D03*
X120015000Y-50840000D03*
X120015000Y-116800000D03*
X120015000Y-111800000D03*
D23*
X93345000Y-70418960D03*
X93345000Y-71821040D03*
D24*
X120015000Y-41910000D03*
X120650000Y-125730000D03*
D25*
X77835000Y-73975000D03*
X77835000Y-72075000D03*
X75835000Y-73025000D03*
X77835000Y-95565000D03*
X77835000Y-93665000D03*
X75835000Y-94615000D03*
D26*
X84455000Y-105588500D03*
X84455000Y-104088500D03*
X86614000Y-105588500D03*
X86614000Y-104088500D03*
X86360000Y-121170000D03*
X86360000Y-122670000D03*
X99695000Y-68695000D03*
X99695000Y-67195000D03*
X99695000Y-71870000D03*
X99695000Y-70370000D03*
X97790000Y-68695000D03*
X97790000Y-67195000D03*
X97790000Y-71870000D03*
X97790000Y-70370000D03*
X97536000Y-97905000D03*
X97536000Y-96405000D03*
X95504000Y-97905000D03*
X95504000Y-96405000D03*
D27*
X85610000Y-80645000D03*
X87110000Y-80645000D03*
X85610000Y-82550000D03*
X87110000Y-82550000D03*
X97675000Y-44577000D03*
X99175000Y-44577000D03*
X99175000Y-48895000D03*
X97675000Y-48895000D03*
X79490000Y-80010000D03*
X77990000Y-80010000D03*
X79490000Y-77470000D03*
X77990000Y-77470000D03*
X79490000Y-69215000D03*
X77990000Y-69215000D03*
X79490000Y-87630000D03*
X77990000Y-87630000D03*
X79490000Y-90170000D03*
X77990000Y-90170000D03*
X79490000Y-98425000D03*
X77990000Y-98425000D03*
D28*
X99822000Y-57760000D03*
D29*
X99822000Y-51460000D03*
X97522000Y-51460000D03*
X102122000Y-51460000D03*
D30*
X102793800Y-90741500D03*
X102793800Y-90106500D03*
X102793800Y-89471500D03*
X102793800Y-88836500D03*
X102793800Y-88201500D03*
X102793800Y-87566500D03*
X102793800Y-86931500D03*
X102793800Y-86296500D03*
X102793800Y-85661500D03*
X102793800Y-85026500D03*
X102793800Y-84391500D03*
X102793800Y-83756500D03*
X102793800Y-82486500D03*
X102793800Y-83121500D03*
X102793800Y-81851500D03*
X102793800Y-81216500D03*
X102793800Y-80581500D03*
X102793800Y-79946500D03*
X102793800Y-79311500D03*
X102793800Y-78676500D03*
X102793800Y-78041500D03*
X102793800Y-77406500D03*
X94805500Y-77406500D03*
X94805500Y-78041500D03*
X94805500Y-78676500D03*
X94805500Y-79311500D03*
X94805500Y-79946500D03*
X94805500Y-80581500D03*
X94805500Y-81216500D03*
X94805500Y-81851500D03*
X94805500Y-83121500D03*
X94805500Y-82486500D03*
X94805500Y-83756500D03*
X94805500Y-84391500D03*
X94805500Y-85026500D03*
X94805500Y-85661500D03*
X94805500Y-86296500D03*
X94805500Y-86931500D03*
X94805500Y-87566500D03*
X94805500Y-88201500D03*
X94805500Y-88836500D03*
X94805500Y-89471500D03*
X94805500Y-90106500D03*
X94805500Y-90741500D03*
D17*
X77470000Y-51435000D03*
D18*
X77470000Y-53975000D03*
X77470000Y-56515000D03*
D17*
X77470000Y-111125000D03*
D18*
X77470000Y-113665000D03*
X77470000Y-116205000D03*
D17*
X83820000Y-39370000D03*
D18*
X86360000Y-39370000D03*
X88900000Y-39370000D03*
X117348000Y-62611000D03*
X119380000Y-82550000D03*
X119380000Y-91440000D03*
X108775500Y-104584500D03*
X95504000Y-104648000D03*
D14*
X75704000Y-104140000D03*
X77204000Y-104140000D03*
X79768000Y-108712000D03*
X81268000Y-108712000D03*
X75704000Y-101219000D03*
X77204000Y-101219000D03*
D31*
X79545000Y-103888500D03*
X79545000Y-104838500D03*
X79545000Y-105788500D03*
X81745000Y-105788500D03*
X81745000Y-103888500D03*
D14*
X87745000Y-108585000D03*
X86245000Y-108585000D03*
X82435000Y-46355000D03*
X83935000Y-46355000D03*
X82435000Y-59055000D03*
X83935000Y-59055000D03*
X87745000Y-118745000D03*
X86245000Y-118745000D03*
D27*
X82435000Y-48895000D03*
X83935000Y-48895000D03*
X82435000Y-53975000D03*
X83935000Y-53975000D03*
X86245000Y-111125000D03*
X87745000Y-111125000D03*
X86245000Y-116205000D03*
X87745000Y-116205000D03*
D32*
X73660000Y-33020000D03*
X124460000Y-33020000D03*
X73660000Y-134620000D03*
X124460000Y-134620000D03*
D33*
X93218000Y-48641000D03*
D34*
X90678000Y-48641000D03*
D33*
X77470000Y-46355000D03*
D34*
X77470000Y-48895000D03*
D35*
G36*
X123287892Y-43876706D02*
X123426302Y-44038183D01*
X123490806Y-44167193D01*
X123536022Y-44314144D01*
X123558310Y-44447872D01*
X123570983Y-57373918D01*
X123492039Y-57655862D01*
X123344916Y-57882205D01*
X121728950Y-59485546D01*
X121728597Y-59485897D01*
X119151398Y-62063096D01*
X118200552Y-62975909D01*
X117832960Y-63318149D01*
X117803615Y-63359142D01*
X117792500Y-63411100D01*
X117792500Y-63449200D01*
X117802506Y-63498610D01*
X117831860Y-63541115D01*
X118370330Y-64054540D01*
X118433330Y-64138540D01*
X118478300Y-64228480D01*
X118478300Y-64490702D01*
X118491000Y-80378402D01*
X118501045Y-80427804D01*
X118529519Y-80469405D01*
X118571936Y-80496651D01*
X118618000Y-80505300D01*
X119249444Y-80505300D01*
X120155529Y-80941138D01*
X120167356Y-82076527D01*
X120156544Y-82238711D01*
X120099682Y-82361912D01*
X120052197Y-82409397D01*
X120026048Y-82447392D01*
X119759348Y-83044292D01*
X119748327Y-83098724D01*
X119913165Y-91074331D01*
X119750321Y-91976234D01*
X119748301Y-91999201D01*
X119760944Y-96007106D01*
X119722711Y-96140923D01*
X119667772Y-96205017D01*
X110962626Y-104897492D01*
X110863451Y-104942572D01*
X110750380Y-104952851D01*
X109459708Y-104964375D01*
X109450247Y-104207457D01*
X109736853Y-104216142D01*
X109786544Y-104207637D01*
X109830706Y-104178798D01*
X118200006Y-95771398D01*
X118227774Y-95729322D01*
X118237000Y-95681800D01*
X118237000Y-92870304D01*
X118247768Y-92784164D01*
X118267927Y-92703526D01*
X118297607Y-92644166D01*
X118325157Y-92598249D01*
X118911003Y-92012403D01*
X118938866Y-91970389D01*
X118948049Y-91928788D01*
X118998849Y-90887388D01*
X118991263Y-90837549D01*
X118961803Y-90791397D01*
X118335692Y-90165286D01*
X118294301Y-90103200D01*
X118257696Y-90039140D01*
X118248424Y-89974239D01*
X118247234Y-89967293D01*
X118237000Y-89916123D01*
X118237000Y-86880700D01*
X118226994Y-86831290D01*
X118198553Y-86789665D01*
X118156159Y-86762385D01*
X118109878Y-86753700D01*
X104838378Y-86766400D01*
X104788978Y-86776453D01*
X104745849Y-86806539D01*
X104570885Y-86993168D01*
X104555618Y-87000801D01*
X104521123Y-87007700D01*
X104317800Y-87007700D01*
X104317800Y-86855300D01*
X104432100Y-86855300D01*
X104481510Y-86845294D01*
X104519444Y-86820496D01*
X104760744Y-86591896D01*
X104789732Y-86550651D01*
X104800389Y-86501377D01*
X104791036Y-86451839D01*
X104763148Y-86409843D01*
X104721117Y-86382005D01*
X104673400Y-86372700D01*
X104317800Y-86372700D01*
X104317800Y-86220300D01*
X104609900Y-86220300D01*
X104659310Y-86210294D01*
X104700935Y-86181853D01*
X104728215Y-86139459D01*
X104736852Y-86089791D01*
X104725484Y-86040677D01*
X104699703Y-86003497D01*
X104471103Y-85774897D01*
X104429089Y-85747034D01*
X104381300Y-85737700D01*
X104317800Y-85737700D01*
X104317800Y-85585300D01*
X104474990Y-85585300D01*
X104503196Y-85594702D01*
X104837512Y-85929018D01*
X104879526Y-85956881D01*
X104927437Y-85966215D01*
X118097422Y-85953600D01*
X118146822Y-85943547D01*
X118188419Y-85915066D01*
X118215659Y-85872646D01*
X118224299Y-85827098D01*
X118236999Y-82588598D01*
X118227187Y-82539149D01*
X118189336Y-82488930D01*
X117998836Y-82336530D01*
X117954003Y-82313477D01*
X117919377Y-82308700D01*
X104812977Y-82321400D01*
X104660700Y-82321400D01*
X104611290Y-82331406D01*
X104570897Y-82358597D01*
X104404152Y-82525342D01*
X104358234Y-82552893D01*
X104338620Y-82562700D01*
X104317800Y-82562700D01*
X104317800Y-82383265D01*
X104326559Y-82377698D01*
X104580559Y-82149098D01*
X104610591Y-82108607D01*
X104622505Y-82059622D01*
X104614421Y-82009861D01*
X104587615Y-81967166D01*
X104546310Y-81938263D01*
X104495600Y-81927700D01*
X104317800Y-81927700D01*
X104317800Y-81775300D01*
X104533700Y-81775300D01*
X104583110Y-81765294D01*
X104624735Y-81736853D01*
X104652015Y-81694459D01*
X104660652Y-81644791D01*
X104649284Y-81595677D01*
X104623503Y-81558497D01*
X104394903Y-81329897D01*
X104352889Y-81302034D01*
X104317800Y-81295181D01*
X104317800Y-81143723D01*
X104422213Y-81150249D01*
X104448864Y-81171570D01*
X104634397Y-81357103D01*
X104676411Y-81384966D01*
X104724200Y-81394300D01*
X116789200Y-81394300D01*
X116838610Y-81384294D01*
X116880235Y-81355853D01*
X116907515Y-81313459D01*
X116916200Y-81267574D01*
X116954300Y-63614574D01*
X116954254Y-63610869D01*
X116941600Y-63142671D01*
X116941600Y-61787208D01*
X121768620Y-56947585D01*
X121796428Y-56905536D01*
X121805700Y-56857900D01*
X121805700Y-44945300D01*
X121795694Y-44895890D01*
X121768503Y-44855497D01*
X120177140Y-43264134D01*
X121329525Y-41978782D01*
X123287892Y-43876706D01*
X123287892Y-43876706D01*
G37*
X123287892Y-43876706D02*
X123426302Y-44038183D01*
X123490806Y-44167193D01*
X123536022Y-44314144D01*
X123558310Y-44447872D01*
X123570983Y-57373918D01*
X123492039Y-57655862D01*
X123344916Y-57882205D01*
X121728950Y-59485546D01*
X121728597Y-59485897D01*
X119151398Y-62063096D01*
X118200552Y-62975909D01*
X117832960Y-63318149D01*
X117803615Y-63359142D01*
X117792500Y-63411100D01*
X117792500Y-63449200D01*
X117802506Y-63498610D01*
X117831860Y-63541115D01*
X118370330Y-64054540D01*
X118433330Y-64138540D01*
X118478300Y-64228480D01*
X118478300Y-64490702D01*
X118491000Y-80378402D01*
X118501045Y-80427804D01*
X118529519Y-80469405D01*
X118571936Y-80496651D01*
X118618000Y-80505300D01*
X119249444Y-80505300D01*
X120155529Y-80941138D01*
X120167356Y-82076527D01*
X120156544Y-82238711D01*
X120099682Y-82361912D01*
X120052197Y-82409397D01*
X120026048Y-82447392D01*
X119759348Y-83044292D01*
X119748327Y-83098724D01*
X119913165Y-91074331D01*
X119750321Y-91976234D01*
X119748301Y-91999201D01*
X119760944Y-96007106D01*
X119722711Y-96140923D01*
X119667772Y-96205017D01*
X110962626Y-104897492D01*
X110863451Y-104942572D01*
X110750380Y-104952851D01*
X109459708Y-104964375D01*
X109450247Y-104207457D01*
X109736853Y-104216142D01*
X109786544Y-104207637D01*
X109830706Y-104178798D01*
X118200006Y-95771398D01*
X118227774Y-95729322D01*
X118237000Y-95681800D01*
X118237000Y-92870304D01*
X118247768Y-92784164D01*
X118267927Y-92703526D01*
X118297607Y-92644166D01*
X118325157Y-92598249D01*
X118911003Y-92012403D01*
X118938866Y-91970389D01*
X118948049Y-91928788D01*
X118998849Y-90887388D01*
X118991263Y-90837549D01*
X118961803Y-90791397D01*
X118335692Y-90165286D01*
X118294301Y-90103200D01*
X118257696Y-90039140D01*
X118248424Y-89974239D01*
X118247234Y-89967293D01*
X118237000Y-89916123D01*
X118237000Y-86880700D01*
X118226994Y-86831290D01*
X118198553Y-86789665D01*
X118156159Y-86762385D01*
X118109878Y-86753700D01*
X104838378Y-86766400D01*
X104788978Y-86776453D01*
X104745849Y-86806539D01*
X104570885Y-86993168D01*
X104555618Y-87000801D01*
X104521123Y-87007700D01*
X104317800Y-87007700D01*
X104317800Y-86855300D01*
X104432100Y-86855300D01*
X104481510Y-86845294D01*
X104519444Y-86820496D01*
X104760744Y-86591896D01*
X104789732Y-86550651D01*
X104800389Y-86501377D01*
X104791036Y-86451839D01*
X104763148Y-86409843D01*
X104721117Y-86382005D01*
X104673400Y-86372700D01*
X104317800Y-86372700D01*
X104317800Y-86220300D01*
X104609900Y-86220300D01*
X104659310Y-86210294D01*
X104700935Y-86181853D01*
X104728215Y-86139459D01*
X104736852Y-86089791D01*
X104725484Y-86040677D01*
X104699703Y-86003497D01*
X104471103Y-85774897D01*
X104429089Y-85747034D01*
X104381300Y-85737700D01*
X104317800Y-85737700D01*
X104317800Y-85585300D01*
X104474990Y-85585300D01*
X104503196Y-85594702D01*
X104837512Y-85929018D01*
X104879526Y-85956881D01*
X104927437Y-85966215D01*
X118097422Y-85953600D01*
X118146822Y-85943547D01*
X118188419Y-85915066D01*
X118215659Y-85872646D01*
X118224299Y-85827098D01*
X118236999Y-82588598D01*
X118227187Y-82539149D01*
X118189336Y-82488930D01*
X117998836Y-82336530D01*
X117954003Y-82313477D01*
X117919377Y-82308700D01*
X104812977Y-82321400D01*
X104660700Y-82321400D01*
X104611290Y-82331406D01*
X104570897Y-82358597D01*
X104404152Y-82525342D01*
X104358234Y-82552893D01*
X104338620Y-82562700D01*
X104317800Y-82562700D01*
X104317800Y-82383265D01*
X104326559Y-82377698D01*
X104580559Y-82149098D01*
X104610591Y-82108607D01*
X104622505Y-82059622D01*
X104614421Y-82009861D01*
X104587615Y-81967166D01*
X104546310Y-81938263D01*
X104495600Y-81927700D01*
X104317800Y-81927700D01*
X104317800Y-81775300D01*
X104533700Y-81775300D01*
X104583110Y-81765294D01*
X104624735Y-81736853D01*
X104652015Y-81694459D01*
X104660652Y-81644791D01*
X104649284Y-81595677D01*
X104623503Y-81558497D01*
X104394903Y-81329897D01*
X104352889Y-81302034D01*
X104317800Y-81295181D01*
X104317800Y-81143723D01*
X104422213Y-81150249D01*
X104448864Y-81171570D01*
X104634397Y-81357103D01*
X104676411Y-81384966D01*
X104724200Y-81394300D01*
X116789200Y-81394300D01*
X116838610Y-81384294D01*
X116880235Y-81355853D01*
X116907515Y-81313459D01*
X116916200Y-81267574D01*
X116954300Y-63614574D01*
X116954254Y-63610869D01*
X116941600Y-63142671D01*
X116941600Y-61787208D01*
X121768620Y-56947585D01*
X121796428Y-56905536D01*
X121805700Y-56857900D01*
X121805700Y-44945300D01*
X121795694Y-44895890D01*
X121768503Y-44855497D01*
X120177140Y-43264134D01*
X121329525Y-41978782D01*
X123287892Y-43876706D01*
M02*
