G04 #@! TF.FileFunction,Legend,Bot*
%FSLAX46Y46*%
G04 Gerber Fmt 4.6, Leading zero omitted, Abs format (unit mm)*
G04 Created by KiCad (PCBNEW 4.0.5) date 07/06/18 10:07:35*
%MOMM*%
%LPD*%
G01*
G04 APERTURE LIST*
%ADD10C,0.100000*%
%ADD11C,0.150000*%
G04 APERTURE END LIST*
D10*
D11*
X74668095Y-48395000D02*
X74763333Y-48347381D01*
X74906190Y-48347381D01*
X75049048Y-48395000D01*
X75144286Y-48490238D01*
X75191905Y-48585476D01*
X75239524Y-48775952D01*
X75239524Y-48918810D01*
X75191905Y-49109286D01*
X75144286Y-49204524D01*
X75049048Y-49299762D01*
X74906190Y-49347381D01*
X74810952Y-49347381D01*
X74668095Y-49299762D01*
X74620476Y-49252143D01*
X74620476Y-48918810D01*
X74810952Y-48918810D01*
X102750476Y-132532381D02*
X103083810Y-132056190D01*
X103321905Y-132532381D02*
X103321905Y-131532381D01*
X102940952Y-131532381D01*
X102845714Y-131580000D01*
X102798095Y-131627619D01*
X102750476Y-131722857D01*
X102750476Y-131865714D01*
X102798095Y-131960952D01*
X102845714Y-132008571D01*
X102940952Y-132056190D01*
X103321905Y-132056190D01*
X102321905Y-132532381D02*
X102321905Y-131532381D01*
X102083810Y-131532381D01*
X101940952Y-131580000D01*
X101845714Y-131675238D01*
X101798095Y-131770476D01*
X101750476Y-131960952D01*
X101750476Y-132103810D01*
X101798095Y-132294286D01*
X101845714Y-132389524D01*
X101940952Y-132484762D01*
X102083810Y-132532381D01*
X102321905Y-132532381D01*
X100750476Y-132437143D02*
X100798095Y-132484762D01*
X100940952Y-132532381D01*
X101036190Y-132532381D01*
X101179048Y-132484762D01*
X101274286Y-132389524D01*
X101321905Y-132294286D01*
X101369524Y-132103810D01*
X101369524Y-131960952D01*
X101321905Y-131770476D01*
X101274286Y-131675238D01*
X101179048Y-131580000D01*
X101036190Y-131532381D01*
X100940952Y-131532381D01*
X100798095Y-131580000D01*
X100750476Y-131627619D01*
X100369524Y-131627619D02*
X100321905Y-131580000D01*
X100226667Y-131532381D01*
X99988571Y-131532381D01*
X99893333Y-131580000D01*
X99845714Y-131627619D01*
X99798095Y-131722857D01*
X99798095Y-131818095D01*
X99845714Y-131960952D01*
X100417143Y-132532381D01*
X99798095Y-132532381D01*
X99369524Y-132151429D02*
X98607619Y-132151429D01*
X97940953Y-131532381D02*
X97845714Y-131532381D01*
X97750476Y-131580000D01*
X97702857Y-131627619D01*
X97655238Y-131722857D01*
X97607619Y-131913333D01*
X97607619Y-132151429D01*
X97655238Y-132341905D01*
X97702857Y-132437143D01*
X97750476Y-132484762D01*
X97845714Y-132532381D01*
X97940953Y-132532381D01*
X98036191Y-132484762D01*
X98083810Y-132437143D01*
X98131429Y-132341905D01*
X98179048Y-132151429D01*
X98179048Y-131913333D01*
X98131429Y-131722857D01*
X98083810Y-131627619D01*
X98036191Y-131580000D01*
X97940953Y-131532381D01*
X96988572Y-131532381D02*
X96893333Y-131532381D01*
X96798095Y-131580000D01*
X96750476Y-131627619D01*
X96702857Y-131722857D01*
X96655238Y-131913333D01*
X96655238Y-132151429D01*
X96702857Y-132341905D01*
X96750476Y-132437143D01*
X96798095Y-132484762D01*
X96893333Y-132532381D01*
X96988572Y-132532381D01*
X97083810Y-132484762D01*
X97131429Y-132437143D01*
X97179048Y-132341905D01*
X97226667Y-132151429D01*
X97226667Y-131913333D01*
X97179048Y-131722857D01*
X97131429Y-131627619D01*
X97083810Y-131580000D01*
X96988572Y-131532381D01*
X96321905Y-131532381D02*
X95702857Y-131532381D01*
X96036191Y-131913333D01*
X95893333Y-131913333D01*
X95798095Y-131960952D01*
X95750476Y-132008571D01*
X95702857Y-132103810D01*
X95702857Y-132341905D01*
X95750476Y-132437143D01*
X95798095Y-132484762D01*
X95893333Y-132532381D01*
X96179048Y-132532381D01*
X96274286Y-132484762D01*
X96321905Y-132437143D01*
X94845714Y-131865714D02*
X94845714Y-132532381D01*
X95083810Y-131484762D02*
X95321905Y-132199048D01*
X94702857Y-132199048D01*
X75191905Y-116657381D02*
X75191905Y-115657381D01*
X74953810Y-115657381D01*
X74810952Y-115705000D01*
X74715714Y-115800238D01*
X74668095Y-115895476D01*
X74620476Y-116085952D01*
X74620476Y-116228810D01*
X74668095Y-116419286D01*
X74715714Y-116514524D01*
X74810952Y-116609762D01*
X74953810Y-116657381D01*
X75191905Y-116657381D01*
X74668095Y-113165000D02*
X74763333Y-113117381D01*
X74906190Y-113117381D01*
X75049048Y-113165000D01*
X75144286Y-113260238D01*
X75191905Y-113355476D01*
X75239524Y-113545952D01*
X75239524Y-113688810D01*
X75191905Y-113879286D01*
X75144286Y-113974524D01*
X75049048Y-114069762D01*
X74906190Y-114117381D01*
X74810952Y-114117381D01*
X74668095Y-114069762D01*
X74620476Y-114022143D01*
X74620476Y-113688810D01*
X74810952Y-113688810D01*
X74620476Y-111482143D02*
X74668095Y-111529762D01*
X74810952Y-111577381D01*
X74906190Y-111577381D01*
X75049048Y-111529762D01*
X75144286Y-111434524D01*
X75191905Y-111339286D01*
X75239524Y-111148810D01*
X75239524Y-111005952D01*
X75191905Y-110815476D01*
X75144286Y-110720238D01*
X75049048Y-110625000D01*
X74906190Y-110577381D01*
X74810952Y-110577381D01*
X74668095Y-110625000D01*
X74620476Y-110672619D01*
X74858571Y-56443571D02*
X74715714Y-56491190D01*
X74668095Y-56538810D01*
X74620476Y-56634048D01*
X74620476Y-56776905D01*
X74668095Y-56872143D01*
X74715714Y-56919762D01*
X74810952Y-56967381D01*
X75191905Y-56967381D01*
X75191905Y-55967381D01*
X74858571Y-55967381D01*
X74763333Y-56015000D01*
X74715714Y-56062619D01*
X74668095Y-56157857D01*
X74668095Y-56253095D01*
X74715714Y-56348333D01*
X74763333Y-56395952D01*
X74858571Y-56443571D01*
X75191905Y-56443571D01*
X74668095Y-53475000D02*
X74763333Y-53427381D01*
X74906190Y-53427381D01*
X75049048Y-53475000D01*
X75144286Y-53570238D01*
X75191905Y-53665476D01*
X75239524Y-53855952D01*
X75239524Y-53998810D01*
X75191905Y-54189286D01*
X75144286Y-54284524D01*
X75049048Y-54379762D01*
X74906190Y-54427381D01*
X74810952Y-54427381D01*
X74668095Y-54379762D01*
X74620476Y-54332143D01*
X74620476Y-53998810D01*
X74810952Y-53998810D01*
X75168095Y-51601667D02*
X74691904Y-51601667D01*
X75263333Y-51887381D02*
X74930000Y-50887381D01*
X74596666Y-51887381D01*
X121411904Y-128532000D02*
X121507142Y-128484381D01*
X121649999Y-128484381D01*
X121792857Y-128532000D01*
X121888095Y-128627238D01*
X121935714Y-128722476D01*
X121983333Y-128912952D01*
X121983333Y-129055810D01*
X121935714Y-129246286D01*
X121888095Y-129341524D01*
X121792857Y-129436762D01*
X121649999Y-129484381D01*
X121554761Y-129484381D01*
X121411904Y-129436762D01*
X121364285Y-129389143D01*
X121364285Y-129055810D01*
X121554761Y-129055810D01*
X120935714Y-129484381D02*
X120935714Y-128484381D01*
X120364285Y-129484381D01*
X120364285Y-128484381D01*
X119888095Y-129484381D02*
X119888095Y-128484381D01*
X119650000Y-128484381D01*
X119507142Y-128532000D01*
X119411904Y-128627238D01*
X119364285Y-128722476D01*
X119316666Y-128912952D01*
X119316666Y-129055810D01*
X119364285Y-129246286D01*
X119411904Y-129341524D01*
X119507142Y-129436762D01*
X119650000Y-129484381D01*
X119888095Y-129484381D01*
X121348333Y-38187381D02*
X121015000Y-39187381D01*
X120681666Y-38187381D01*
X120348333Y-39187381D02*
X120348333Y-38187381D01*
X120110238Y-38187381D01*
X119967380Y-38235000D01*
X119872142Y-38330238D01*
X119824523Y-38425476D01*
X119776904Y-38615952D01*
X119776904Y-38758810D01*
X119824523Y-38949286D01*
X119872142Y-39044524D01*
X119967380Y-39139762D01*
X120110238Y-39187381D01*
X120348333Y-39187381D01*
X119348333Y-39187381D02*
X119348333Y-38187381D01*
X119110238Y-38187381D01*
X118967380Y-38235000D01*
X118872142Y-38330238D01*
X118824523Y-38425476D01*
X118776904Y-38615952D01*
X118776904Y-38758810D01*
X118824523Y-38949286D01*
X118872142Y-39044524D01*
X118967380Y-39139762D01*
X119110238Y-39187381D01*
X119348333Y-39187381D01*
X84225381Y-68121475D02*
X84225381Y-68692904D01*
X85225381Y-68407189D02*
X84225381Y-68407189D01*
X85225381Y-69026237D02*
X84225381Y-69026237D01*
X84225381Y-69407190D01*
X84273000Y-69502428D01*
X84320619Y-69550047D01*
X84415857Y-69597666D01*
X84558714Y-69597666D01*
X84653952Y-69550047D01*
X84701571Y-69502428D01*
X84749190Y-69407190D01*
X84749190Y-69026237D01*
X84939667Y-69978618D02*
X84939667Y-70454809D01*
X85225381Y-69883380D02*
X84225381Y-70216713D01*
X85225381Y-70550047D01*
X84225381Y-70788142D02*
X84225381Y-71407190D01*
X84606333Y-71073856D01*
X84606333Y-71216714D01*
X84653952Y-71311952D01*
X84701571Y-71359571D01*
X84796810Y-71407190D01*
X85034905Y-71407190D01*
X85130143Y-71359571D01*
X85177762Y-71311952D01*
X85225381Y-71216714D01*
X85225381Y-70930999D01*
X85177762Y-70835761D01*
X85130143Y-70788142D01*
X84320619Y-71788142D02*
X84273000Y-71835761D01*
X84225381Y-71930999D01*
X84225381Y-72169095D01*
X84273000Y-72264333D01*
X84320619Y-72311952D01*
X84415857Y-72359571D01*
X84511095Y-72359571D01*
X84653952Y-72311952D01*
X85225381Y-71740523D01*
X85225381Y-72359571D01*
X84225381Y-73264333D02*
X84225381Y-72788142D01*
X84701571Y-72740523D01*
X84653952Y-72788142D01*
X84606333Y-72883380D01*
X84606333Y-73121476D01*
X84653952Y-73216714D01*
X84701571Y-73264333D01*
X84796810Y-73311952D01*
X85034905Y-73311952D01*
X85130143Y-73264333D01*
X85177762Y-73216714D01*
X85225381Y-73121476D01*
X85225381Y-72883380D01*
X85177762Y-72788142D01*
X85130143Y-72740523D01*
X84225381Y-74216714D02*
X84225381Y-73740523D01*
X84701571Y-73692904D01*
X84653952Y-73740523D01*
X84606333Y-73835761D01*
X84606333Y-74073857D01*
X84653952Y-74169095D01*
X84701571Y-74216714D01*
X84796810Y-74264333D01*
X85034905Y-74264333D01*
X85130143Y-74216714D01*
X85177762Y-74169095D01*
X85225381Y-74073857D01*
X85225381Y-73835761D01*
X85177762Y-73740523D01*
X85130143Y-73692904D01*
X84225381Y-75359571D02*
X84225381Y-75978619D01*
X84606333Y-75645285D01*
X84606333Y-75788143D01*
X84653952Y-75883381D01*
X84701571Y-75931000D01*
X84796810Y-75978619D01*
X85034905Y-75978619D01*
X85130143Y-75931000D01*
X85177762Y-75883381D01*
X85225381Y-75788143D01*
X85225381Y-75502428D01*
X85177762Y-75407190D01*
X85130143Y-75359571D01*
X85225381Y-76931000D02*
X85225381Y-76359571D01*
X85225381Y-76645285D02*
X84225381Y-76645285D01*
X84368238Y-76550047D01*
X84463476Y-76454809D01*
X84511095Y-76359571D01*
X84225381Y-77835762D02*
X84225381Y-77359571D01*
X84701571Y-77311952D01*
X84653952Y-77359571D01*
X84606333Y-77454809D01*
X84606333Y-77692905D01*
X84653952Y-77788143D01*
X84701571Y-77835762D01*
X84796810Y-77883381D01*
X85034905Y-77883381D01*
X85130143Y-77835762D01*
X85177762Y-77788143D01*
X85225381Y-77692905D01*
X85225381Y-77454809D01*
X85177762Y-77359571D01*
X85130143Y-77311952D01*
X84844429Y-78311952D02*
X84844429Y-79073857D01*
X84225381Y-79454809D02*
X85225381Y-79692904D01*
X84511095Y-79883381D01*
X85225381Y-80073857D01*
X84225381Y-80311952D01*
X85177762Y-81407190D02*
X85225381Y-81550047D01*
X85225381Y-81788143D01*
X85177762Y-81883381D01*
X85130143Y-81931000D01*
X85034905Y-81978619D01*
X84939667Y-81978619D01*
X84844429Y-81931000D01*
X84796810Y-81883381D01*
X84749190Y-81788143D01*
X84701571Y-81597666D01*
X84653952Y-81502428D01*
X84606333Y-81454809D01*
X84511095Y-81407190D01*
X84415857Y-81407190D01*
X84320619Y-81454809D01*
X84273000Y-81502428D01*
X84225381Y-81597666D01*
X84225381Y-81835762D01*
X84273000Y-81978619D01*
X84558714Y-82264333D02*
X84558714Y-82645285D01*
X84225381Y-82407190D02*
X85082524Y-82407190D01*
X85177762Y-82454809D01*
X85225381Y-82550047D01*
X85225381Y-82645285D01*
X85177762Y-83359572D02*
X85225381Y-83264334D01*
X85225381Y-83073857D01*
X85177762Y-82978619D01*
X85082524Y-82931000D01*
X84701571Y-82931000D01*
X84606333Y-82978619D01*
X84558714Y-83073857D01*
X84558714Y-83264334D01*
X84606333Y-83359572D01*
X84701571Y-83407191D01*
X84796810Y-83407191D01*
X84892048Y-82931000D01*
X85225381Y-83835762D02*
X84558714Y-83835762D01*
X84749190Y-83835762D02*
X84653952Y-83883381D01*
X84606333Y-83931000D01*
X84558714Y-84026238D01*
X84558714Y-84121477D01*
X85177762Y-84835763D02*
X85225381Y-84740525D01*
X85225381Y-84550048D01*
X85177762Y-84454810D01*
X85082524Y-84407191D01*
X84701571Y-84407191D01*
X84606333Y-84454810D01*
X84558714Y-84550048D01*
X84558714Y-84740525D01*
X84606333Y-84835763D01*
X84701571Y-84883382D01*
X84796810Y-84883382D01*
X84892048Y-84407191D01*
X85225381Y-85454810D02*
X85177762Y-85359572D01*
X85130143Y-85311953D01*
X85034905Y-85264334D01*
X84749190Y-85264334D01*
X84653952Y-85311953D01*
X84606333Y-85359572D01*
X84558714Y-85454810D01*
X84558714Y-85597668D01*
X84606333Y-85692906D01*
X84653952Y-85740525D01*
X84749190Y-85788144D01*
X85034905Y-85788144D01*
X85130143Y-85740525D01*
X85177762Y-85692906D01*
X85225381Y-85597668D01*
X85225381Y-85454810D01*
X85177762Y-86264334D02*
X85225381Y-86264334D01*
X85320619Y-86216715D01*
X85368238Y-86169096D01*
X84225381Y-87883382D02*
X84225381Y-87692905D01*
X84273000Y-87597667D01*
X84320619Y-87550048D01*
X84463476Y-87454810D01*
X84653952Y-87407191D01*
X85034905Y-87407191D01*
X85130143Y-87454810D01*
X85177762Y-87502429D01*
X85225381Y-87597667D01*
X85225381Y-87788144D01*
X85177762Y-87883382D01*
X85130143Y-87931001D01*
X85034905Y-87978620D01*
X84796810Y-87978620D01*
X84701571Y-87931001D01*
X84653952Y-87883382D01*
X84606333Y-87788144D01*
X84606333Y-87597667D01*
X84653952Y-87502429D01*
X84701571Y-87454810D01*
X84796810Y-87407191D01*
X84225381Y-88597667D02*
X84225381Y-88692906D01*
X84273000Y-88788144D01*
X84320619Y-88835763D01*
X84415857Y-88883382D01*
X84606333Y-88931001D01*
X84844429Y-88931001D01*
X85034905Y-88883382D01*
X85130143Y-88835763D01*
X85177762Y-88788144D01*
X85225381Y-88692906D01*
X85225381Y-88597667D01*
X85177762Y-88502429D01*
X85130143Y-88454810D01*
X85034905Y-88407191D01*
X84844429Y-88359572D01*
X84606333Y-88359572D01*
X84415857Y-88407191D01*
X84320619Y-88454810D01*
X84273000Y-88502429D01*
X84225381Y-88597667D01*
X84225381Y-89550048D02*
X84225381Y-89645287D01*
X84273000Y-89740525D01*
X84320619Y-89788144D01*
X84415857Y-89835763D01*
X84606333Y-89883382D01*
X84844429Y-89883382D01*
X85034905Y-89835763D01*
X85130143Y-89788144D01*
X85177762Y-89740525D01*
X85225381Y-89645287D01*
X85225381Y-89550048D01*
X85177762Y-89454810D01*
X85130143Y-89407191D01*
X85034905Y-89359572D01*
X84844429Y-89311953D01*
X84606333Y-89311953D01*
X84415857Y-89359572D01*
X84320619Y-89407191D01*
X84273000Y-89454810D01*
X84225381Y-89550048D01*
X84844429Y-90311953D02*
X84844429Y-91073858D01*
X84225381Y-91454810D02*
X85225381Y-91692905D01*
X84511095Y-91883382D01*
X85225381Y-92073858D01*
X84225381Y-92311953D01*
X85225381Y-93454810D02*
X84225381Y-93454810D01*
X84939667Y-93788144D01*
X84225381Y-94121477D01*
X85225381Y-94121477D01*
X85225381Y-94740524D02*
X85177762Y-94645286D01*
X85130143Y-94597667D01*
X85034905Y-94550048D01*
X84749190Y-94550048D01*
X84653952Y-94597667D01*
X84606333Y-94645286D01*
X84558714Y-94740524D01*
X84558714Y-94883382D01*
X84606333Y-94978620D01*
X84653952Y-95026239D01*
X84749190Y-95073858D01*
X85034905Y-95073858D01*
X85130143Y-95026239D01*
X85177762Y-94978620D01*
X85225381Y-94883382D01*
X85225381Y-94740524D01*
X84558714Y-95502429D02*
X85225381Y-95502429D01*
X84653952Y-95502429D02*
X84606333Y-95550048D01*
X84558714Y-95645286D01*
X84558714Y-95788144D01*
X84606333Y-95883382D01*
X84701571Y-95931001D01*
X85225381Y-95931001D01*
X85225381Y-96550048D02*
X85177762Y-96454810D01*
X85130143Y-96407191D01*
X85034905Y-96359572D01*
X84749190Y-96359572D01*
X84653952Y-96407191D01*
X84606333Y-96454810D01*
X84558714Y-96550048D01*
X84558714Y-96692906D01*
X84606333Y-96788144D01*
X84653952Y-96835763D01*
X84749190Y-96883382D01*
X85034905Y-96883382D01*
X85130143Y-96835763D01*
X85177762Y-96788144D01*
X85225381Y-96692906D01*
X85225381Y-96550048D01*
X86875381Y-70550046D02*
X85875381Y-70550046D01*
X85875381Y-70930999D01*
X85923000Y-71026237D01*
X85970619Y-71073856D01*
X86065857Y-71121475D01*
X86208714Y-71121475D01*
X86303952Y-71073856D01*
X86351571Y-71026237D01*
X86399190Y-70930999D01*
X86399190Y-70550046D01*
X86208714Y-71978618D02*
X86875381Y-71978618D01*
X86208714Y-71550046D02*
X86732524Y-71550046D01*
X86827762Y-71597665D01*
X86875381Y-71692903D01*
X86875381Y-71835761D01*
X86827762Y-71930999D01*
X86780143Y-71978618D01*
X86875381Y-72454808D02*
X86208714Y-72454808D01*
X86399190Y-72454808D02*
X86303952Y-72502427D01*
X86256333Y-72550046D01*
X86208714Y-72645284D01*
X86208714Y-72740523D01*
X86827762Y-73454809D02*
X86875381Y-73359571D01*
X86875381Y-73169094D01*
X86827762Y-73073856D01*
X86732524Y-73026237D01*
X86351571Y-73026237D01*
X86256333Y-73073856D01*
X86208714Y-73169094D01*
X86208714Y-73359571D01*
X86256333Y-73454809D01*
X86351571Y-73502428D01*
X86446810Y-73502428D01*
X86542048Y-73026237D01*
X86875381Y-73930999D02*
X85875381Y-73930999D01*
X85875381Y-74311952D01*
X85923000Y-74407190D01*
X85970619Y-74454809D01*
X86065857Y-74502428D01*
X86208714Y-74502428D01*
X86303952Y-74454809D01*
X86351571Y-74407190D01*
X86399190Y-74311952D01*
X86399190Y-73930999D01*
X86875381Y-75359571D02*
X86351571Y-75359571D01*
X86256333Y-75311952D01*
X86208714Y-75216714D01*
X86208714Y-75026237D01*
X86256333Y-74930999D01*
X86827762Y-75359571D02*
X86875381Y-75264333D01*
X86875381Y-75026237D01*
X86827762Y-74930999D01*
X86732524Y-74883380D01*
X86637286Y-74883380D01*
X86542048Y-74930999D01*
X86494429Y-75026237D01*
X86494429Y-75264333D01*
X86446810Y-75359571D01*
X86208714Y-75692904D02*
X86208714Y-76073856D01*
X85875381Y-75835761D02*
X86732524Y-75835761D01*
X86827762Y-75883380D01*
X86875381Y-75978618D01*
X86875381Y-76073856D01*
X86875381Y-76407190D02*
X85875381Y-76407190D01*
X86875381Y-76835762D02*
X86351571Y-76835762D01*
X86256333Y-76788143D01*
X86208714Y-76692905D01*
X86208714Y-76550047D01*
X86256333Y-76454809D01*
X86303952Y-76407190D01*
X85875381Y-78073857D02*
X86684905Y-78073857D01*
X86780143Y-78121476D01*
X86827762Y-78169095D01*
X86875381Y-78264333D01*
X86875381Y-78454810D01*
X86827762Y-78550048D01*
X86780143Y-78597667D01*
X86684905Y-78645286D01*
X85875381Y-78645286D01*
X86875381Y-79264333D02*
X86827762Y-79169095D01*
X86732524Y-79121476D01*
X85875381Y-79121476D01*
X86208714Y-79502429D02*
X86208714Y-79883381D01*
X85875381Y-79645286D02*
X86732524Y-79645286D01*
X86827762Y-79692905D01*
X86875381Y-79788143D01*
X86875381Y-79883381D01*
X86875381Y-80216715D02*
X86208714Y-80216715D01*
X86399190Y-80216715D02*
X86303952Y-80264334D01*
X86256333Y-80311953D01*
X86208714Y-80407191D01*
X86208714Y-80502430D01*
X86875381Y-81264335D02*
X86351571Y-81264335D01*
X86256333Y-81216716D01*
X86208714Y-81121478D01*
X86208714Y-80931001D01*
X86256333Y-80835763D01*
X86827762Y-81264335D02*
X86875381Y-81169097D01*
X86875381Y-80931001D01*
X86827762Y-80835763D01*
X86732524Y-80788144D01*
X86637286Y-80788144D01*
X86542048Y-80835763D01*
X86494429Y-80931001D01*
X86494429Y-81169097D01*
X86446810Y-81264335D01*
X86494429Y-81740525D02*
X86494429Y-82502430D01*
X86875381Y-82978620D02*
X85875381Y-82978620D01*
X86351571Y-82978620D02*
X86351571Y-83550049D01*
X86875381Y-83550049D02*
X85875381Y-83550049D01*
X86875381Y-84026239D02*
X85875381Y-84026239D01*
X85875381Y-84264334D01*
X85923000Y-84407192D01*
X86018238Y-84502430D01*
X86113476Y-84550049D01*
X86303952Y-84597668D01*
X86446810Y-84597668D01*
X86637286Y-84550049D01*
X86732524Y-84502430D01*
X86827762Y-84407192D01*
X86875381Y-84264334D01*
X86875381Y-84026239D01*
X86589667Y-85740525D02*
X86589667Y-86216716D01*
X86875381Y-85645287D02*
X85875381Y-85978620D01*
X86875381Y-86311954D01*
X86208714Y-86645287D02*
X86875381Y-86645287D01*
X86303952Y-86645287D02*
X86256333Y-86692906D01*
X86208714Y-86788144D01*
X86208714Y-86931002D01*
X86256333Y-87026240D01*
X86351571Y-87073859D01*
X86875381Y-87073859D01*
X86875381Y-87978621D02*
X86351571Y-87978621D01*
X86256333Y-87931002D01*
X86208714Y-87835764D01*
X86208714Y-87645287D01*
X86256333Y-87550049D01*
X86827762Y-87978621D02*
X86875381Y-87883383D01*
X86875381Y-87645287D01*
X86827762Y-87550049D01*
X86732524Y-87502430D01*
X86637286Y-87502430D01*
X86542048Y-87550049D01*
X86494429Y-87645287D01*
X86494429Y-87883383D01*
X86446810Y-87978621D01*
X86875381Y-88597668D02*
X86827762Y-88502430D01*
X86732524Y-88454811D01*
X85875381Y-88454811D01*
X86875381Y-89121478D02*
X86827762Y-89026240D01*
X86780143Y-88978621D01*
X86684905Y-88931002D01*
X86399190Y-88931002D01*
X86303952Y-88978621D01*
X86256333Y-89026240D01*
X86208714Y-89121478D01*
X86208714Y-89264336D01*
X86256333Y-89359574D01*
X86303952Y-89407193D01*
X86399190Y-89454812D01*
X86684905Y-89454812D01*
X86780143Y-89407193D01*
X86827762Y-89359574D01*
X86875381Y-89264336D01*
X86875381Y-89121478D01*
X86208714Y-90311955D02*
X87018238Y-90311955D01*
X87113476Y-90264336D01*
X87161095Y-90216717D01*
X87208714Y-90121478D01*
X87208714Y-89978621D01*
X87161095Y-89883383D01*
X86827762Y-90311955D02*
X86875381Y-90216717D01*
X86875381Y-90026240D01*
X86827762Y-89931002D01*
X86780143Y-89883383D01*
X86684905Y-89835764D01*
X86399190Y-89835764D01*
X86303952Y-89883383D01*
X86256333Y-89931002D01*
X86208714Y-90026240D01*
X86208714Y-90216717D01*
X86256333Y-90311955D01*
X86494429Y-90788145D02*
X86494429Y-91550050D01*
X86875381Y-92026240D02*
X85875381Y-92026240D01*
X86208714Y-92502430D02*
X86875381Y-92502430D01*
X86303952Y-92502430D02*
X86256333Y-92550049D01*
X86208714Y-92645287D01*
X86208714Y-92788145D01*
X86256333Y-92883383D01*
X86351571Y-92931002D01*
X86875381Y-92931002D01*
X86208714Y-93407192D02*
X87208714Y-93407192D01*
X86256333Y-93407192D02*
X86208714Y-93502430D01*
X86208714Y-93692907D01*
X86256333Y-93788145D01*
X86303952Y-93835764D01*
X86399190Y-93883383D01*
X86684905Y-93883383D01*
X86780143Y-93835764D01*
X86827762Y-93788145D01*
X86875381Y-93692907D01*
X86875381Y-93502430D01*
X86827762Y-93407192D01*
X86208714Y-94740526D02*
X86875381Y-94740526D01*
X86208714Y-94311954D02*
X86732524Y-94311954D01*
X86827762Y-94359573D01*
X86875381Y-94454811D01*
X86875381Y-94597669D01*
X86827762Y-94692907D01*
X86780143Y-94740526D01*
X86208714Y-95073859D02*
X86208714Y-95454811D01*
X85875381Y-95216716D02*
X86732524Y-95216716D01*
X86827762Y-95264335D01*
X86875381Y-95359573D01*
X86875381Y-95454811D01*
X123800953Y-118070381D02*
X123610476Y-118070381D01*
X123515238Y-118118000D01*
X123420000Y-118213238D01*
X123372381Y-118403714D01*
X123372381Y-118737048D01*
X123420000Y-118927524D01*
X123515238Y-119022762D01*
X123610476Y-119070381D01*
X123800953Y-119070381D01*
X123896191Y-119022762D01*
X123991429Y-118927524D01*
X124039048Y-118737048D01*
X124039048Y-118403714D01*
X123991429Y-118213238D01*
X123896191Y-118118000D01*
X123800953Y-118070381D01*
X122943810Y-118070381D02*
X122943810Y-118879905D01*
X122896191Y-118975143D01*
X122848572Y-119022762D01*
X122753334Y-119070381D01*
X122562857Y-119070381D01*
X122467619Y-119022762D01*
X122420000Y-118975143D01*
X122372381Y-118879905D01*
X122372381Y-118070381D01*
X122039048Y-118070381D02*
X121467619Y-118070381D01*
X121753334Y-119070381D02*
X121753334Y-118070381D01*
X120372381Y-119070381D02*
X120372381Y-118070381D01*
X120134286Y-118070381D01*
X119991428Y-118118000D01*
X119896190Y-118213238D01*
X119848571Y-118308476D01*
X119800952Y-118498952D01*
X119800952Y-118641810D01*
X119848571Y-118832286D01*
X119896190Y-118927524D01*
X119991428Y-119022762D01*
X120134286Y-119070381D01*
X120372381Y-119070381D01*
X123546953Y-109434381D02*
X123356476Y-109434381D01*
X123261238Y-109482000D01*
X123166000Y-109577238D01*
X123118381Y-109767714D01*
X123118381Y-110101048D01*
X123166000Y-110291524D01*
X123261238Y-110386762D01*
X123356476Y-110434381D01*
X123546953Y-110434381D01*
X123642191Y-110386762D01*
X123737429Y-110291524D01*
X123785048Y-110101048D01*
X123785048Y-109767714D01*
X123737429Y-109577238D01*
X123642191Y-109482000D01*
X123546953Y-109434381D01*
X122689810Y-109434381D02*
X122689810Y-110243905D01*
X122642191Y-110339143D01*
X122594572Y-110386762D01*
X122499334Y-110434381D01*
X122308857Y-110434381D01*
X122213619Y-110386762D01*
X122166000Y-110339143D01*
X122118381Y-110243905D01*
X122118381Y-109434381D01*
X121785048Y-109434381D02*
X121213619Y-109434381D01*
X121499334Y-110434381D02*
X121499334Y-109434381D01*
X119546952Y-110339143D02*
X119594571Y-110386762D01*
X119737428Y-110434381D01*
X119832666Y-110434381D01*
X119975524Y-110386762D01*
X120070762Y-110291524D01*
X120118381Y-110196286D01*
X120166000Y-110005810D01*
X120166000Y-109862952D01*
X120118381Y-109672476D01*
X120070762Y-109577238D01*
X119975524Y-109482000D01*
X119832666Y-109434381D01*
X119737428Y-109434381D01*
X119594571Y-109482000D01*
X119546952Y-109529619D01*
X123673953Y-57237381D02*
X123483476Y-57237381D01*
X123388238Y-57285000D01*
X123293000Y-57380238D01*
X123245381Y-57570714D01*
X123245381Y-57904048D01*
X123293000Y-58094524D01*
X123388238Y-58189762D01*
X123483476Y-58237381D01*
X123673953Y-58237381D01*
X123769191Y-58189762D01*
X123864429Y-58094524D01*
X123912048Y-57904048D01*
X123912048Y-57570714D01*
X123864429Y-57380238D01*
X123769191Y-57285000D01*
X123673953Y-57237381D01*
X122816810Y-57237381D02*
X122816810Y-58046905D01*
X122769191Y-58142143D01*
X122721572Y-58189762D01*
X122626334Y-58237381D01*
X122435857Y-58237381D01*
X122340619Y-58189762D01*
X122293000Y-58142143D01*
X122245381Y-58046905D01*
X122245381Y-57237381D01*
X121912048Y-57237381D02*
X121340619Y-57237381D01*
X121626334Y-58237381D02*
X121626334Y-57237381D01*
X119912047Y-57713571D02*
X119769190Y-57761190D01*
X119721571Y-57808810D01*
X119673952Y-57904048D01*
X119673952Y-58046905D01*
X119721571Y-58142143D01*
X119769190Y-58189762D01*
X119864428Y-58237381D01*
X120245381Y-58237381D01*
X120245381Y-57237381D01*
X119912047Y-57237381D01*
X119816809Y-57285000D01*
X119769190Y-57332619D01*
X119721571Y-57427857D01*
X119721571Y-57523095D01*
X119769190Y-57618333D01*
X119816809Y-57665952D01*
X119912047Y-57713571D01*
X120245381Y-57713571D01*
X123729524Y-48601381D02*
X123539047Y-48601381D01*
X123443809Y-48649000D01*
X123348571Y-48744238D01*
X123300952Y-48934714D01*
X123300952Y-49268048D01*
X123348571Y-49458524D01*
X123443809Y-49553762D01*
X123539047Y-49601381D01*
X123729524Y-49601381D01*
X123824762Y-49553762D01*
X123920000Y-49458524D01*
X123967619Y-49268048D01*
X123967619Y-48934714D01*
X123920000Y-48744238D01*
X123824762Y-48649000D01*
X123729524Y-48601381D01*
X122872381Y-48601381D02*
X122872381Y-49410905D01*
X122824762Y-49506143D01*
X122777143Y-49553762D01*
X122681905Y-49601381D01*
X122491428Y-49601381D01*
X122396190Y-49553762D01*
X122348571Y-49506143D01*
X122300952Y-49410905D01*
X122300952Y-48601381D01*
X121967619Y-48601381D02*
X121396190Y-48601381D01*
X121681905Y-49601381D02*
X121681905Y-48601381D01*
X120348571Y-49315667D02*
X119872380Y-49315667D01*
X120443809Y-49601381D02*
X120110476Y-48601381D01*
X119777142Y-49601381D01*
M02*
