M48
; DRILL file {KiCad (5.1.2)-2} date 19.08.2019 13:15:08
; FORMAT={-:-/ absolute / metric / decimal}
; #@! TF.CreationDate,2019-08-19T13:15:08+03:00
; #@! TF.GenerationSoftware,Kicad,Pcbnew,(5.1.2)-2
; #@! TF.FileFunction,Plated,1,2,PTH
FMAT,2
METRIC
T1C0.300
T2C0.600
T3C1.000
T4C1.016
T5C4.000
%
G90
G05
T1
X159.0Y-167.0
X159.0Y-169.0
X159.0Y-171.0
X159.0Y-173.0
X159.0Y-183.0
X159.0Y-185.0
X159.0Y-187.0
X162.2Y-190.4
X164.1Y-190.4
X164.2Y-176.25
X164.35Y-180.85
X164.5Y-179.35
X164.7Y-166.5
X164.9Y-176.75
X166.35Y-170.0
X166.35Y-171.7
X166.35Y-173.35
X166.35Y-174.55
X166.9Y-167.1
X167.15Y-180.9
X167.15Y-182.9
X169.0Y-169.7
X169.4Y-164.4
X169.456Y-187.63
X169.5Y-180.95
X169.5Y-182.95
X169.75Y-185.2
X171.4Y-169.7
X172.0Y-164.45
X173.0Y-181.3
X173.4Y-187.2
X173.4Y-188.05
X173.4Y-190.0
X173.45Y-182.2
X173.9Y-172.45
X174.1Y-177.85
X174.15Y-175.85
X174.45Y-177.1
X174.475Y-174.775
X174.55Y-168.8
X174.6Y-183.9
X174.95Y-169.55
X176.325Y-183.175
X176.55Y-169.25
X176.9Y-174.7
X177.0Y-179.7
X177.3Y-183.8
X177.4Y-181.35
X177.7Y-179.35
X177.8Y-165.3
X177.825Y-174.725
X178.1Y-175.5
X178.4Y-190.55
X178.65Y-185.5
X179.0Y-177.1
X179.75Y-177.3
X179.8Y-178.8
X180.15Y-181.3
X180.2Y-175.7
X180.226Y-174.574
X180.25Y-180.2
X180.3Y-172.1
X180.3Y-179.4
X180.7Y-185.55
X181.0Y-183.1
X181.1Y-171.7
X181.45Y-191.15
X181.55Y-188.05
X182.1Y-174.1
X182.15Y-174.95
X182.2Y-180.65
X182.45Y-170.7
X182.9Y-175.5
X182.9Y-176.6
X182.9Y-177.65
X182.9Y-178.75
X182.9Y-179.75
X183.0Y-183.6
X183.15Y-164.5
X183.15Y-167.15
X183.25Y-173.45
X183.4Y-171.4
X184.15Y-181.4
X184.6Y-173.55
X184.65Y-187.75
X185.1Y-184.15
X185.35Y-181.15
X185.95Y-174.25
X186.2Y-185.8
X186.25Y-181.2
X186.5Y-188.7
X186.5Y-189.6
X186.8Y-170.2
X186.85Y-171.4
X186.85Y-183.4
X186.95Y-181.5
X187.0Y-169.3
X187.0Y-174.25
X187.05Y-185.85
X187.35Y-187.75
X187.8Y-184.9
X187.85Y-181.6
X188.05Y-174.25
X188.075Y-189.525
X188.2Y-164.55
X188.25Y-167.15
X188.4Y-184.2
X188.7Y-170.3
X188.8Y-169.55
X189.1Y-174.25
X189.5Y-175.75
X189.5Y-176.7
X189.5Y-177.65
X189.9Y-185.35
X190.1Y-180.3
X190.1Y-181.35
X190.15Y-174.6
X190.25Y-186.2
X190.55Y-169.35
X190.8Y-164.5
X191.2Y-186.8
X191.3Y-190.5
X191.35Y-188.7
X191.5Y-183.0
X191.922Y-180.645
X191.999Y-179.883
X192.0Y-181.45
X192.0Y-186.3
X192.4Y-179.235
X192.9Y-171.85
X192.9Y-178.5
X193.55Y-177.8
X193.9Y-165.2
X194.05Y-182.25
X194.1Y-185.75
X194.2Y-170.35
X195.0Y-186.55
X195.95Y-171.2
X195.95Y-172.5
X197.45Y-180.65
X197.45Y-181.45
X197.5Y-182.25
X198.25Y-171.8
X198.85Y-166.5
X199.1Y-169.75
X199.5Y-173.7
X199.55Y-186.55
X200.8Y-176.25
X200.95Y-187.8
X201.25Y-190.75
X202.0Y-176.4
X202.0Y-180.2
X202.0Y-181.6
X202.05Y-173.7
X204.6Y-166.05
X204.65Y-168.85
X207.55Y-169.15
X207.6Y-171.1
X209.25Y-170.7
X209.5Y-177.75
X213.868Y-168.0
X213.868Y-170.0
X213.868Y-172.0
X215.0Y-182.0
X215.0Y-184.0
X215.0Y-186.0
X215.0Y-188.0
T2
X188.55Y-186.85
T3
X195.7Y-167.8
X198.24Y-167.8
X200.78Y-167.8
X203.32Y-167.8
X162.95Y-172.4
X162.95Y-174.94
X162.95Y-177.48
X162.95Y-180.02
X162.95Y-182.56
X162.95Y-185.1
X179.35Y-167.8
X181.89Y-167.8
X184.43Y-167.8
X186.97Y-167.8
X189.51Y-167.8
X192.05Y-167.8
X195.7Y-184.0
X198.24Y-184.0
X200.78Y-184.0
X203.32Y-184.0
X205.86Y-184.0
X208.4Y-184.0
X214.6Y-176.36
X214.6Y-178.9
X163.1Y-165.25
X165.64Y-165.25
X168.18Y-165.25
X170.72Y-165.25
X173.26Y-165.25
X175.8Y-165.25
X180.1Y-187.1
X180.1Y-189.64
X159.85Y-174.9
X159.85Y-177.44
X159.85Y-179.98
X195.7Y-165.25
X198.24Y-165.25
X200.78Y-165.25
X203.32Y-165.25
X205.86Y-165.25
X208.4Y-165.25
X195.7Y-174.4
X198.24Y-174.4
X200.78Y-174.4
X203.32Y-174.4
X205.86Y-174.4
X208.4Y-174.4
X163.1Y-167.75
X165.64Y-167.75
X168.18Y-167.75
X170.72Y-167.75
X173.26Y-167.75
X175.8Y-167.75
X197.45Y-190.05
X199.99Y-190.05
X202.53Y-190.05
X205.07Y-190.05
X207.61Y-190.05
X210.15Y-190.05
X179.35Y-165.25
X181.89Y-165.25
X184.43Y-165.25
X186.97Y-165.25
X189.51Y-165.25
X192.05Y-165.25
X195.7Y-179.2
X198.24Y-179.2
X200.78Y-179.2
X203.32Y-179.2
X205.86Y-179.2
X208.4Y-179.2
T4
X158.315Y-195.619
X160.855Y-195.619
X163.395Y-195.619
X165.935Y-195.619
X168.475Y-195.619
X171.015Y-195.619
X173.555Y-195.619
X176.095Y-195.619
X158.315Y-159.359
X160.855Y-159.359
X163.395Y-159.359
X165.935Y-159.359
X168.475Y-159.359
X171.015Y-159.359
X173.555Y-159.359
X176.095Y-159.359
X178.635Y-198.159
X181.175Y-198.159
X183.715Y-198.159
X186.255Y-198.159
X188.795Y-198.159
X191.335Y-198.159
X193.875Y-198.159
X196.415Y-198.159
X198.955Y-159.359
X201.495Y-159.359
X204.035Y-159.359
X206.575Y-159.359
X209.115Y-159.359
X211.655Y-159.359
X214.195Y-159.359
X216.735Y-159.359
X154.342Y-168.674
X154.342Y-171.214
X154.342Y-173.754
X154.342Y-176.294
X154.342Y-178.834
X154.342Y-181.374
X154.342Y-183.914
X154.342Y-186.454
X223.303Y-168.674
X223.303Y-171.214
X223.303Y-173.754
X223.303Y-176.294
X223.303Y-178.834
X223.303Y-181.374
X223.303Y-183.914
X223.303Y-186.454
X220.763Y-188.994
X223.303Y-188.994
X151.802Y-163.594
X154.342Y-163.594
X151.802Y-191.534
X154.342Y-191.534
X158.315Y-156.819
X160.855Y-156.819
X163.395Y-156.819
X165.935Y-156.819
X168.475Y-156.819
X171.015Y-156.819
X173.555Y-156.819
X176.095Y-156.819
X178.635Y-195.619
X181.175Y-195.619
X183.715Y-195.619
X186.255Y-195.619
X188.795Y-195.619
X191.335Y-195.619
X193.875Y-195.619
X196.415Y-195.619
X178.635Y-159.359
X181.175Y-159.359
X183.715Y-159.359
X186.255Y-159.359
X188.795Y-159.359
X191.335Y-159.359
X193.875Y-159.359
X196.415Y-159.359
X198.955Y-195.619
X201.495Y-195.619
X204.035Y-195.619
X206.575Y-195.619
X209.115Y-195.619
X211.655Y-195.619
X214.195Y-195.619
X216.735Y-195.619
X151.802Y-168.674
X151.802Y-171.214
X151.802Y-173.754
X151.802Y-176.294
X151.802Y-178.834
X151.802Y-181.374
X151.802Y-183.914
X151.802Y-186.454
X220.763Y-191.534
X223.303Y-191.534
X151.802Y-166.134
X154.342Y-166.134
X220.763Y-163.594
X223.303Y-163.594
X158.315Y-198.159
X160.855Y-198.159
X163.395Y-198.159
X165.935Y-198.159
X168.475Y-198.159
X171.015Y-198.159
X173.555Y-198.159
X176.095Y-198.159
X178.635Y-156.819
X181.175Y-156.819
X183.715Y-156.819
X186.255Y-156.819
X188.795Y-156.819
X191.335Y-156.819
X193.875Y-156.819
X196.415Y-156.819
X198.955Y-198.159
X201.495Y-198.159
X204.035Y-198.159
X206.575Y-198.159
X209.115Y-198.159
X211.655Y-198.159
X214.195Y-198.159
X216.735Y-198.159
X198.955Y-156.819
X201.495Y-156.819
X204.035Y-156.819
X206.575Y-156.819
X209.115Y-156.819
X211.655Y-156.819
X214.195Y-156.819
X216.735Y-156.819
X151.802Y-188.994
X154.342Y-188.994
X220.763Y-168.674
X220.763Y-171.214
X220.763Y-173.754
X220.763Y-176.294
X220.763Y-178.834
X220.763Y-181.374
X220.763Y-183.914
X220.763Y-186.454
X220.763Y-166.134
X223.303Y-166.134
T5
X186.1Y-177.5
T0
M30
