G04 #@! TF.GenerationSoftware,KiCad,Pcbnew,(5.1.2)-2*
G04 #@! TF.CreationDate,2019-08-19T13:15:06+03:00*
G04 #@! TF.ProjectId,SigmaDSP ADAU1452,5369676d-6144-4535-9020-414441553134,rev?*
G04 #@! TF.SameCoordinates,Original*
G04 #@! TF.FileFunction,Profile,NP*
%FSLAX46Y46*%
G04 Gerber Fmt 4.6, Leading zero omitted, Abs format (unit mm)*
G04 Created by KiCad (PCBNEW (5.1.2)-2) date 2019-08-19 13:15:06*
%MOMM*%
%LPD*%
G04 APERTURE LIST*
%ADD10C,0.150000*%
G04 APERTURE END LIST*
D10*
X215000000Y-163000000D02*
G75*
G02X217000000Y-165000000I0J-2000000D01*
G01*
X158000000Y-165000000D02*
G75*
G02X160000000Y-163000000I2000000J0D01*
G01*
X217000000Y-190000000D02*
G75*
G02X215000000Y-192000000I-2000000J0D01*
G01*
X160000000Y-192000000D02*
G75*
G02X158000000Y-190000000I0J2000000D01*
G01*
X163000000Y-192000000D02*
X172000000Y-192000000D01*
X172000000Y-192000000D02*
X172000000Y-194000000D01*
X172000000Y-194000000D02*
X163000000Y-194000000D01*
X163000000Y-194000000D02*
X163000000Y-192000000D01*
X174000000Y-192000000D02*
X174000000Y-194000000D01*
X174000000Y-194000000D02*
X201000000Y-194000000D01*
X201000000Y-194000000D02*
X201000000Y-192000000D01*
X201000000Y-192000000D02*
X174000000Y-192000000D01*
X203000000Y-192000000D02*
X203000000Y-194000000D01*
X203000000Y-194000000D02*
X211000000Y-194000000D01*
X211000000Y-192000000D02*
X203000000Y-192000000D01*
X160000000Y-192000000D02*
X161000000Y-192000000D01*
X161000000Y-192000000D02*
X161000000Y-194000000D01*
X161000000Y-194000000D02*
X160000000Y-194000000D01*
X158000000Y-190000000D02*
X158000000Y-189000000D01*
X158000000Y-189000000D02*
X156000000Y-189000000D01*
X156000000Y-189000000D02*
X156000000Y-190000000D01*
X160000000Y-194000000D02*
G75*
G02X156000000Y-190000000I0J4000000D01*
G01*
X160000000Y-163000000D02*
X161000000Y-163000000D01*
X161000000Y-163000000D02*
X161000000Y-161000000D01*
X161000000Y-161000000D02*
X160000000Y-161000000D01*
X158000000Y-165000000D02*
X158000000Y-166000000D01*
X158000000Y-166000000D02*
X156000000Y-166000000D01*
X156000000Y-166000000D02*
X156000000Y-165000000D01*
X156000000Y-165000000D02*
G75*
G02X160000000Y-161000000I4000000J0D01*
G01*
X215000000Y-163000000D02*
X214000000Y-163000000D01*
X214000000Y-163000000D02*
X214000000Y-161000000D01*
X214000000Y-161000000D02*
X215000000Y-161000000D01*
X217000000Y-165000000D02*
X217000000Y-166000000D01*
X217000000Y-166000000D02*
X219000000Y-166000000D01*
X219000000Y-166000000D02*
X219000000Y-165000000D01*
X215000000Y-161000000D02*
G75*
G02X219000000Y-165000000I0J-4000000D01*
G01*
X217000000Y-190000000D02*
X217000000Y-189000000D01*
X217000000Y-189000000D02*
X219000000Y-189000000D01*
X219000000Y-189000000D02*
X219000000Y-190000000D01*
X215000000Y-192000000D02*
X214000000Y-192000000D01*
X214000000Y-192000000D02*
X214000000Y-194000000D01*
X219000000Y-190000000D02*
G75*
G02X215000000Y-194000000I-4000000J0D01*
G01*
X214000000Y-194000000D02*
X215000000Y-194000000D01*
X158000000Y-187000000D02*
X156000000Y-187000000D01*
X156000000Y-187000000D02*
X156000000Y-168000000D01*
X156000000Y-168000000D02*
X158000000Y-168000000D01*
X158000000Y-168000000D02*
X158000000Y-187000000D01*
X217000000Y-187000000D02*
X219000000Y-187000000D01*
X219000000Y-187000000D02*
X219000000Y-168000000D01*
X219000000Y-168000000D02*
X217000000Y-168000000D01*
X217000000Y-168000000D02*
X217000000Y-187000000D01*
X163000000Y-163000000D02*
X163000000Y-161000000D01*
X163000000Y-161000000D02*
X172000000Y-161000000D01*
X172000000Y-161000000D02*
X172000000Y-163000000D01*
X172000000Y-163000000D02*
X163000000Y-163000000D01*
X212000000Y-163000000D02*
X203000000Y-163000000D01*
X203000000Y-163000000D02*
X203000000Y-161000000D01*
X203000000Y-161000000D02*
X212000000Y-161000000D01*
X212000000Y-161000000D02*
X212000000Y-163000000D01*
X174000000Y-163000000D02*
X174000000Y-161000000D01*
X174000000Y-161000000D02*
X201000000Y-161000000D01*
X201000000Y-161000000D02*
X201000000Y-163000000D01*
X201000000Y-163000000D02*
X174000000Y-163000000D01*
X150000000Y-159000000D02*
G75*
G02X154000000Y-155000000I4000000J0D01*
G01*
X221000000Y-155000000D02*
G75*
G02X225000000Y-159000000I0J-4000000D01*
G01*
X225000000Y-196000000D02*
G75*
G02X221000000Y-200000000I-4000000J0D01*
G01*
X154000000Y-200000000D02*
G75*
G02X150000000Y-196000000I0J4000000D01*
G01*
X154000000Y-200000000D02*
X221000000Y-200000000D01*
X225000000Y-196000000D02*
X225000000Y-159000000D01*
X221000000Y-155000000D02*
X154000000Y-155000000D01*
X150000000Y-159000000D02*
X150000000Y-196000000D01*
X211000000Y-192000000D02*
X212000000Y-192000000D01*
X212000000Y-192000000D02*
X212000000Y-194000000D01*
X212000000Y-194000000D02*
X211000000Y-194000000D01*
M02*
