G04 #@! TF.GenerationSoftware,KiCad,Pcbnew,(5.1.2)-2*
G04 #@! TF.CreationDate,2019-08-19T13:15:06+03:00*
G04 #@! TF.ProjectId,SigmaDSP ADAU1452,5369676d-6144-4535-9020-414441553134,rev?*
G04 #@! TF.SameCoordinates,Original*
G04 #@! TF.FileFunction,Legend,Bot*
G04 #@! TF.FilePolarity,Positive*
%FSLAX46Y46*%
G04 Gerber Fmt 4.6, Leading zero omitted, Abs format (unit mm)*
G04 Created by KiCad (PCBNEW (5.1.2)-2) date 2019-08-19 13:15:06*
%MOMM*%
%LPD*%
G04 APERTURE LIST*
%ADD10C,0.110000*%
%ADD11C,0.150000*%
%ADD12C,0.200000*%
%ADD13C,0.010000*%
G04 APERTURE END LIST*
D10*
X210992857Y-187811904D02*
X210621428Y-187811904D01*
X210821428Y-188116666D01*
X210735714Y-188116666D01*
X210678571Y-188154761D01*
X210650000Y-188192857D01*
X210621428Y-188269047D01*
X210621428Y-188459523D01*
X210650000Y-188535714D01*
X210678571Y-188573809D01*
X210735714Y-188611904D01*
X210907142Y-188611904D01*
X210964285Y-188573809D01*
X210992857Y-188535714D01*
X210450000Y-187811904D02*
X210250000Y-188611904D01*
X210050000Y-187811904D01*
X209907142Y-187811904D02*
X209535714Y-187811904D01*
X209735714Y-188116666D01*
X209650000Y-188116666D01*
X209592857Y-188154761D01*
X209564285Y-188192857D01*
X209535714Y-188269047D01*
X209535714Y-188459523D01*
X209564285Y-188535714D01*
X209592857Y-188573809D01*
X209650000Y-188611904D01*
X209821428Y-188611904D01*
X209878571Y-188573809D01*
X209907142Y-188535714D01*
X208157142Y-188573809D02*
X208071428Y-188611904D01*
X207928571Y-188611904D01*
X207871428Y-188573809D01*
X207842857Y-188535714D01*
X207814285Y-188459523D01*
X207814285Y-188383333D01*
X207842857Y-188307142D01*
X207871428Y-188269047D01*
X207928571Y-188230952D01*
X208042857Y-188192857D01*
X208100000Y-188154761D01*
X208128571Y-188116666D01*
X208157142Y-188040476D01*
X208157142Y-187964285D01*
X208128571Y-187888095D01*
X208100000Y-187850000D01*
X208042857Y-187811904D01*
X207900000Y-187811904D01*
X207814285Y-187850000D01*
X207585714Y-188573809D02*
X207500000Y-188611904D01*
X207357142Y-188611904D01*
X207300000Y-188573809D01*
X207271428Y-188535714D01*
X207242857Y-188459523D01*
X207242857Y-188383333D01*
X207271428Y-188307142D01*
X207300000Y-188269047D01*
X207357142Y-188230952D01*
X207471428Y-188192857D01*
X207528571Y-188154761D01*
X207557142Y-188116666D01*
X207585714Y-188040476D01*
X207585714Y-187964285D01*
X207557142Y-187888095D01*
X207528571Y-187850000D01*
X207471428Y-187811904D01*
X207328571Y-187811904D01*
X207242857Y-187850000D01*
X206092857Y-188611904D02*
X206092857Y-187811904D01*
X205892857Y-188383333D01*
X205692857Y-187811904D01*
X205692857Y-188611904D01*
X205407142Y-188611904D02*
X205407142Y-187811904D01*
X205150000Y-188573809D02*
X205064285Y-188611904D01*
X204921428Y-188611904D01*
X204864285Y-188573809D01*
X204835714Y-188535714D01*
X204807142Y-188459523D01*
X204807142Y-188383333D01*
X204835714Y-188307142D01*
X204864285Y-188269047D01*
X204921428Y-188230952D01*
X205035714Y-188192857D01*
X205092857Y-188154761D01*
X205121428Y-188116666D01*
X205150000Y-188040476D01*
X205150000Y-187964285D01*
X205121428Y-187888095D01*
X205092857Y-187850000D01*
X205035714Y-187811904D01*
X204892857Y-187811904D01*
X204807142Y-187850000D01*
X204435714Y-187811904D02*
X204321428Y-187811904D01*
X204264285Y-187850000D01*
X204207142Y-187926190D01*
X204178571Y-188078571D01*
X204178571Y-188345238D01*
X204207142Y-188497619D01*
X204264285Y-188573809D01*
X204321428Y-188611904D01*
X204435714Y-188611904D01*
X204492857Y-188573809D01*
X204550000Y-188497619D01*
X204578571Y-188345238D01*
X204578571Y-188078571D01*
X204550000Y-187926190D01*
X204492857Y-187850000D01*
X204435714Y-187811904D01*
X203314285Y-188573809D02*
X203228571Y-188611904D01*
X203085714Y-188611904D01*
X203028571Y-188573809D01*
X203000000Y-188535714D01*
X202971428Y-188459523D01*
X202971428Y-188383333D01*
X203000000Y-188307142D01*
X203028571Y-188269047D01*
X203085714Y-188230952D01*
X203200000Y-188192857D01*
X203257142Y-188154761D01*
X203285714Y-188116666D01*
X203314285Y-188040476D01*
X203314285Y-187964285D01*
X203285714Y-187888095D01*
X203257142Y-187850000D01*
X203200000Y-187811904D01*
X203057142Y-187811904D01*
X202971428Y-187850000D01*
X202371428Y-188535714D02*
X202400000Y-188573809D01*
X202485714Y-188611904D01*
X202542857Y-188611904D01*
X202628571Y-188573809D01*
X202685714Y-188497619D01*
X202714285Y-188421428D01*
X202742857Y-188269047D01*
X202742857Y-188154761D01*
X202714285Y-188002380D01*
X202685714Y-187926190D01*
X202628571Y-187850000D01*
X202542857Y-187811904D01*
X202485714Y-187811904D01*
X202400000Y-187850000D01*
X202371428Y-187888095D01*
X201828571Y-188611904D02*
X202114285Y-188611904D01*
X202114285Y-187811904D01*
X201042857Y-188611904D02*
X201042857Y-187811904D01*
X200842857Y-188383333D01*
X200642857Y-187811904D01*
X200642857Y-188611904D01*
X200242857Y-187811904D02*
X200128571Y-187811904D01*
X200071428Y-187850000D01*
X200014285Y-187926190D01*
X199985714Y-188078571D01*
X199985714Y-188345238D01*
X200014285Y-188497619D01*
X200071428Y-188573809D01*
X200128571Y-188611904D01*
X200242857Y-188611904D01*
X200300000Y-188573809D01*
X200357142Y-188497619D01*
X200385714Y-188345238D01*
X200385714Y-188078571D01*
X200357142Y-187926190D01*
X200300000Y-187850000D01*
X200242857Y-187811904D01*
X199757142Y-188573809D02*
X199671428Y-188611904D01*
X199528571Y-188611904D01*
X199471428Y-188573809D01*
X199442857Y-188535714D01*
X199414285Y-188459523D01*
X199414285Y-188383333D01*
X199442857Y-188307142D01*
X199471428Y-188269047D01*
X199528571Y-188230952D01*
X199642857Y-188192857D01*
X199700000Y-188154761D01*
X199728571Y-188116666D01*
X199757142Y-188040476D01*
X199757142Y-187964285D01*
X199728571Y-187888095D01*
X199700000Y-187850000D01*
X199642857Y-187811904D01*
X199500000Y-187811904D01*
X199414285Y-187850000D01*
X199157142Y-188611904D02*
X199157142Y-187811904D01*
X197292857Y-187850000D02*
X197350000Y-187811904D01*
X197435714Y-187811904D01*
X197521428Y-187850000D01*
X197578571Y-187926190D01*
X197607142Y-188002380D01*
X197635714Y-188154761D01*
X197635714Y-188269047D01*
X197607142Y-188421428D01*
X197578571Y-188497619D01*
X197521428Y-188573809D01*
X197435714Y-188611904D01*
X197378571Y-188611904D01*
X197292857Y-188573809D01*
X197264285Y-188535714D01*
X197264285Y-188269047D01*
X197378571Y-188269047D01*
X213064285Y-190442809D02*
X212978571Y-190480904D01*
X212835714Y-190480904D01*
X212778571Y-190442809D01*
X212750000Y-190404714D01*
X212721428Y-190328523D01*
X212721428Y-190252333D01*
X212750000Y-190176142D01*
X212778571Y-190138047D01*
X212835714Y-190099952D01*
X212950000Y-190061857D01*
X213007142Y-190023761D01*
X213035714Y-189985666D01*
X213064285Y-189909476D01*
X213064285Y-189833285D01*
X213035714Y-189757095D01*
X213007142Y-189719000D01*
X212950000Y-189680904D01*
X212807142Y-189680904D01*
X212721428Y-189719000D01*
X212464285Y-190480904D02*
X212464285Y-189680904D01*
X212235714Y-189680904D01*
X212178571Y-189719000D01*
X212150000Y-189757095D01*
X212121428Y-189833285D01*
X212121428Y-189947571D01*
X212150000Y-190023761D01*
X212178571Y-190061857D01*
X212235714Y-190099952D01*
X212464285Y-190099952D01*
X211864285Y-190480904D02*
X211864285Y-189680904D01*
X193957571Y-164861904D02*
X193900428Y-164861904D01*
X193843285Y-164900000D01*
X193814714Y-164938095D01*
X193786142Y-165014285D01*
X193757571Y-165166666D01*
X193757571Y-165357142D01*
X193786142Y-165509523D01*
X193814714Y-165585714D01*
X193843285Y-165623809D01*
X193900428Y-165661904D01*
X193957571Y-165661904D01*
X194014714Y-165623809D01*
X194043285Y-165585714D01*
X194071857Y-165509523D01*
X194100428Y-165357142D01*
X194100428Y-165166666D01*
X194071857Y-165014285D01*
X194043285Y-164938095D01*
X194014714Y-164900000D01*
X193957571Y-164861904D01*
X194100000Y-173911904D02*
X193728571Y-173911904D01*
X193928571Y-174216666D01*
X193842857Y-174216666D01*
X193785714Y-174254761D01*
X193757142Y-174292857D01*
X193728571Y-174369047D01*
X193728571Y-174559523D01*
X193757142Y-174635714D01*
X193785714Y-174673809D01*
X193842857Y-174711904D01*
X194014285Y-174711904D01*
X194071428Y-174673809D01*
X194100000Y-174635714D01*
X194071428Y-178835095D02*
X194042857Y-178797000D01*
X193985714Y-178758904D01*
X193842857Y-178758904D01*
X193785714Y-178797000D01*
X193757142Y-178835095D01*
X193728571Y-178911285D01*
X193728571Y-178987476D01*
X193757142Y-179101761D01*
X194100000Y-179558904D01*
X193728571Y-179558904D01*
X193878571Y-184384904D02*
X194221428Y-184384904D01*
X194050000Y-184384904D02*
X194050000Y-183584904D01*
X194107142Y-183699190D01*
X194164285Y-183775380D01*
X194221428Y-183813476D01*
D11*
X207295785Y-185892857D02*
X207210071Y-185921428D01*
X207067214Y-185921428D01*
X207010071Y-185892857D01*
X206981500Y-185864285D01*
X206952928Y-185807142D01*
X206952928Y-185750000D01*
X206981500Y-185692857D01*
X207010071Y-185664285D01*
X207067214Y-185635714D01*
X207181500Y-185607142D01*
X207238642Y-185578571D01*
X207267214Y-185550000D01*
X207295785Y-185492857D01*
X207295785Y-185435714D01*
X207267214Y-185378571D01*
X207238642Y-185350000D01*
X207181500Y-185321428D01*
X207038642Y-185321428D01*
X206952928Y-185350000D01*
X206695785Y-185921428D02*
X206695785Y-185321428D01*
X206552928Y-185321428D01*
X206467214Y-185350000D01*
X206410071Y-185407142D01*
X206381500Y-185464285D01*
X206352928Y-185578571D01*
X206352928Y-185664285D01*
X206381500Y-185778571D01*
X206410071Y-185835714D01*
X206467214Y-185892857D01*
X206552928Y-185921428D01*
X206695785Y-185921428D01*
X206124357Y-185750000D02*
X205838642Y-185750000D01*
X206181500Y-185921428D02*
X205981500Y-185321428D01*
X205781500Y-185921428D01*
X205667214Y-185321428D02*
X205324357Y-185321428D01*
X205495785Y-185921428D02*
X205495785Y-185321428D01*
X205152928Y-185750000D02*
X204867214Y-185750000D01*
X205210071Y-185921428D02*
X205010071Y-185321428D01*
X204810071Y-185921428D01*
X206795785Y-186971428D02*
X206795785Y-186371428D01*
X206652928Y-186371428D01*
X206567214Y-186400000D01*
X206510071Y-186457142D01*
X206481500Y-186514285D01*
X206452928Y-186628571D01*
X206452928Y-186714285D01*
X206481500Y-186828571D01*
X206510071Y-186885714D01*
X206567214Y-186942857D01*
X206652928Y-186971428D01*
X206795785Y-186971428D01*
X206224357Y-186800000D02*
X205938642Y-186800000D01*
X206281500Y-186971428D02*
X206081500Y-186371428D01*
X205881500Y-186971428D01*
X205338642Y-186914285D02*
X205367214Y-186942857D01*
X205452928Y-186971428D01*
X205510071Y-186971428D01*
X205595785Y-186942857D01*
X205652928Y-186885714D01*
X205681500Y-186828571D01*
X205710071Y-186714285D01*
X205710071Y-186628571D01*
X205681500Y-186514285D01*
X205652928Y-186457142D01*
X205595785Y-186400000D01*
X205510071Y-186371428D01*
X205452928Y-186371428D01*
X205367214Y-186400000D01*
X205338642Y-186428571D01*
X209292857Y-185321428D02*
X208921428Y-185321428D01*
X209121428Y-185550000D01*
X209035714Y-185550000D01*
X208978571Y-185578571D01*
X208950000Y-185607142D01*
X208921428Y-185664285D01*
X208921428Y-185807142D01*
X208950000Y-185864285D01*
X208978571Y-185892857D01*
X209035714Y-185921428D01*
X209207142Y-185921428D01*
X209264285Y-185892857D01*
X209292857Y-185864285D01*
X208750000Y-185321428D02*
X208550000Y-185921428D01*
X208350000Y-185321428D01*
X208207142Y-185321428D02*
X207835714Y-185321428D01*
X208035714Y-185550000D01*
X207950000Y-185550000D01*
X207892857Y-185578571D01*
X207864285Y-185607142D01*
X207835714Y-185664285D01*
X207835714Y-185807142D01*
X207864285Y-185864285D01*
X207892857Y-185892857D01*
X207950000Y-185921428D01*
X208121428Y-185921428D01*
X208178571Y-185892857D01*
X208207142Y-185864285D01*
X195650857Y-185350000D02*
X195708000Y-185321428D01*
X195793714Y-185321428D01*
X195879428Y-185350000D01*
X195936571Y-185407142D01*
X195965142Y-185464285D01*
X195993714Y-185578571D01*
X195993714Y-185664285D01*
X195965142Y-185778571D01*
X195936571Y-185835714D01*
X195879428Y-185892857D01*
X195793714Y-185921428D01*
X195736571Y-185921428D01*
X195650857Y-185892857D01*
X195622285Y-185864285D01*
X195622285Y-185664285D01*
X195736571Y-185664285D01*
X204200000Y-185607142D02*
X204114285Y-185635714D01*
X204085714Y-185664285D01*
X204057142Y-185721428D01*
X204057142Y-185807142D01*
X204085714Y-185864285D01*
X204114285Y-185892857D01*
X204171428Y-185921428D01*
X204400000Y-185921428D01*
X204400000Y-185321428D01*
X204200000Y-185321428D01*
X204142857Y-185350000D01*
X204114285Y-185378571D01*
X204085714Y-185435714D01*
X204085714Y-185492857D01*
X204114285Y-185550000D01*
X204142857Y-185578571D01*
X204200000Y-185607142D01*
X204400000Y-185607142D01*
X203457142Y-185864285D02*
X203485714Y-185892857D01*
X203571428Y-185921428D01*
X203628571Y-185921428D01*
X203714285Y-185892857D01*
X203771428Y-185835714D01*
X203800000Y-185778571D01*
X203828571Y-185664285D01*
X203828571Y-185578571D01*
X203800000Y-185464285D01*
X203771428Y-185407142D01*
X203714285Y-185350000D01*
X203628571Y-185321428D01*
X203571428Y-185321428D01*
X203485714Y-185350000D01*
X203457142Y-185378571D01*
X202914285Y-185921428D02*
X203200000Y-185921428D01*
X203200000Y-185321428D01*
X202714285Y-185921428D02*
X202714285Y-185321428D01*
X202371428Y-185921428D02*
X202628571Y-185578571D01*
X202371428Y-185321428D02*
X202714285Y-185664285D01*
X199342857Y-185921428D02*
X199342857Y-185321428D01*
X199142857Y-185750000D01*
X198942857Y-185321428D01*
X198942857Y-185921428D01*
X198314285Y-185864285D02*
X198342857Y-185892857D01*
X198428571Y-185921428D01*
X198485714Y-185921428D01*
X198571428Y-185892857D01*
X198628571Y-185835714D01*
X198657142Y-185778571D01*
X198685714Y-185664285D01*
X198685714Y-185578571D01*
X198657142Y-185464285D01*
X198628571Y-185407142D01*
X198571428Y-185350000D01*
X198485714Y-185321428D01*
X198428571Y-185321428D01*
X198342857Y-185350000D01*
X198314285Y-185378571D01*
X197771428Y-185921428D02*
X198057142Y-185921428D01*
X198057142Y-185321428D01*
X197571428Y-185921428D02*
X197571428Y-185321428D01*
X197228571Y-185921428D02*
X197485714Y-185578571D01*
X197228571Y-185321428D02*
X197571428Y-185664285D01*
X200875285Y-185921428D02*
X201161000Y-185921428D01*
X201161000Y-185321428D01*
X200332428Y-185921428D02*
X200532428Y-185635714D01*
X200675285Y-185921428D02*
X200675285Y-185321428D01*
X200446714Y-185321428D01*
X200389571Y-185350000D01*
X200361000Y-185378571D01*
X200332428Y-185435714D01*
X200332428Y-185521428D01*
X200361000Y-185578571D01*
X200389571Y-185607142D01*
X200446714Y-185635714D01*
X200675285Y-185635714D01*
X195600857Y-180600000D02*
X195658000Y-180571428D01*
X195743714Y-180571428D01*
X195829428Y-180600000D01*
X195886571Y-180657142D01*
X195915142Y-180714285D01*
X195943714Y-180828571D01*
X195943714Y-180914285D01*
X195915142Y-181028571D01*
X195886571Y-181085714D01*
X195829428Y-181142857D01*
X195743714Y-181171428D01*
X195686571Y-181171428D01*
X195600857Y-181142857D01*
X195572285Y-181114285D01*
X195572285Y-180914285D01*
X195686571Y-180914285D01*
X204150000Y-180857142D02*
X204064285Y-180885714D01*
X204035714Y-180914285D01*
X204007142Y-180971428D01*
X204007142Y-181057142D01*
X204035714Y-181114285D01*
X204064285Y-181142857D01*
X204121428Y-181171428D01*
X204350000Y-181171428D01*
X204350000Y-180571428D01*
X204150000Y-180571428D01*
X204092857Y-180600000D01*
X204064285Y-180628571D01*
X204035714Y-180685714D01*
X204035714Y-180742857D01*
X204064285Y-180800000D01*
X204092857Y-180828571D01*
X204150000Y-180857142D01*
X204350000Y-180857142D01*
X203407142Y-181114285D02*
X203435714Y-181142857D01*
X203521428Y-181171428D01*
X203578571Y-181171428D01*
X203664285Y-181142857D01*
X203721428Y-181085714D01*
X203750000Y-181028571D01*
X203778571Y-180914285D01*
X203778571Y-180828571D01*
X203750000Y-180714285D01*
X203721428Y-180657142D01*
X203664285Y-180600000D01*
X203578571Y-180571428D01*
X203521428Y-180571428D01*
X203435714Y-180600000D01*
X203407142Y-180628571D01*
X202864285Y-181171428D02*
X203150000Y-181171428D01*
X203150000Y-180571428D01*
X202664285Y-181171428D02*
X202664285Y-180571428D01*
X202321428Y-181171428D02*
X202578571Y-180828571D01*
X202321428Y-180571428D02*
X202664285Y-180914285D01*
X199292857Y-181171428D02*
X199292857Y-180571428D01*
X199092857Y-181000000D01*
X198892857Y-180571428D01*
X198892857Y-181171428D01*
X198264285Y-181114285D02*
X198292857Y-181142857D01*
X198378571Y-181171428D01*
X198435714Y-181171428D01*
X198521428Y-181142857D01*
X198578571Y-181085714D01*
X198607142Y-181028571D01*
X198635714Y-180914285D01*
X198635714Y-180828571D01*
X198607142Y-180714285D01*
X198578571Y-180657142D01*
X198521428Y-180600000D01*
X198435714Y-180571428D01*
X198378571Y-180571428D01*
X198292857Y-180600000D01*
X198264285Y-180628571D01*
X197721428Y-181171428D02*
X198007142Y-181171428D01*
X198007142Y-180571428D01*
X197521428Y-181171428D02*
X197521428Y-180571428D01*
X197178571Y-181171428D02*
X197435714Y-180828571D01*
X197178571Y-180571428D02*
X197521428Y-180914285D01*
X200825285Y-181171428D02*
X201111000Y-181171428D01*
X201111000Y-180571428D01*
X200282428Y-181171428D02*
X200482428Y-180885714D01*
X200625285Y-181171428D02*
X200625285Y-180571428D01*
X200396714Y-180571428D01*
X200339571Y-180600000D01*
X200311000Y-180628571D01*
X200282428Y-180685714D01*
X200282428Y-180771428D01*
X200311000Y-180828571D01*
X200339571Y-180857142D01*
X200396714Y-180885714D01*
X200625285Y-180885714D01*
X209242857Y-180571428D02*
X208871428Y-180571428D01*
X209071428Y-180800000D01*
X208985714Y-180800000D01*
X208928571Y-180828571D01*
X208900000Y-180857142D01*
X208871428Y-180914285D01*
X208871428Y-181057142D01*
X208900000Y-181114285D01*
X208928571Y-181142857D01*
X208985714Y-181171428D01*
X209157142Y-181171428D01*
X209214285Y-181142857D01*
X209242857Y-181114285D01*
X208700000Y-180571428D02*
X208500000Y-181171428D01*
X208300000Y-180571428D01*
X208157142Y-180571428D02*
X207785714Y-180571428D01*
X207985714Y-180800000D01*
X207900000Y-180800000D01*
X207842857Y-180828571D01*
X207814285Y-180857142D01*
X207785714Y-180914285D01*
X207785714Y-181057142D01*
X207814285Y-181114285D01*
X207842857Y-181142857D01*
X207900000Y-181171428D01*
X208071428Y-181171428D01*
X208128571Y-181142857D01*
X208157142Y-181114285D01*
X207245785Y-181142857D02*
X207160071Y-181171428D01*
X207017214Y-181171428D01*
X206960071Y-181142857D01*
X206931500Y-181114285D01*
X206902928Y-181057142D01*
X206902928Y-181000000D01*
X206931500Y-180942857D01*
X206960071Y-180914285D01*
X207017214Y-180885714D01*
X207131500Y-180857142D01*
X207188642Y-180828571D01*
X207217214Y-180800000D01*
X207245785Y-180742857D01*
X207245785Y-180685714D01*
X207217214Y-180628571D01*
X207188642Y-180600000D01*
X207131500Y-180571428D01*
X206988642Y-180571428D01*
X206902928Y-180600000D01*
X206645785Y-181171428D02*
X206645785Y-180571428D01*
X206502928Y-180571428D01*
X206417214Y-180600000D01*
X206360071Y-180657142D01*
X206331500Y-180714285D01*
X206302928Y-180828571D01*
X206302928Y-180914285D01*
X206331500Y-181028571D01*
X206360071Y-181085714D01*
X206417214Y-181142857D01*
X206502928Y-181171428D01*
X206645785Y-181171428D01*
X206074357Y-181000000D02*
X205788642Y-181000000D01*
X206131500Y-181171428D02*
X205931500Y-180571428D01*
X205731500Y-181171428D01*
X205617214Y-180571428D02*
X205274357Y-180571428D01*
X205445785Y-181171428D02*
X205445785Y-180571428D01*
X205102928Y-181000000D02*
X204817214Y-181000000D01*
X205160071Y-181171428D02*
X204960071Y-180571428D01*
X204760071Y-181171428D01*
X206745785Y-182221428D02*
X206745785Y-181621428D01*
X206602928Y-181621428D01*
X206517214Y-181650000D01*
X206460071Y-181707142D01*
X206431500Y-181764285D01*
X206402928Y-181878571D01*
X206402928Y-181964285D01*
X206431500Y-182078571D01*
X206460071Y-182135714D01*
X206517214Y-182192857D01*
X206602928Y-182221428D01*
X206745785Y-182221428D01*
X206174357Y-182050000D02*
X205888642Y-182050000D01*
X206231500Y-182221428D02*
X206031500Y-181621428D01*
X205831500Y-182221428D01*
X205288642Y-182164285D02*
X205317214Y-182192857D01*
X205402928Y-182221428D01*
X205460071Y-182221428D01*
X205545785Y-182192857D01*
X205602928Y-182135714D01*
X205631500Y-182078571D01*
X205660071Y-181964285D01*
X205660071Y-181878571D01*
X205631500Y-181764285D01*
X205602928Y-181707142D01*
X205545785Y-181650000D01*
X205460071Y-181621428D01*
X205402928Y-181621428D01*
X205317214Y-181650000D01*
X205288642Y-181678571D01*
X207245785Y-176342857D02*
X207160071Y-176371428D01*
X207017214Y-176371428D01*
X206960071Y-176342857D01*
X206931500Y-176314285D01*
X206902928Y-176257142D01*
X206902928Y-176200000D01*
X206931500Y-176142857D01*
X206960071Y-176114285D01*
X207017214Y-176085714D01*
X207131500Y-176057142D01*
X207188642Y-176028571D01*
X207217214Y-176000000D01*
X207245785Y-175942857D01*
X207245785Y-175885714D01*
X207217214Y-175828571D01*
X207188642Y-175800000D01*
X207131500Y-175771428D01*
X206988642Y-175771428D01*
X206902928Y-175800000D01*
X206645785Y-176371428D02*
X206645785Y-175771428D01*
X206502928Y-175771428D01*
X206417214Y-175800000D01*
X206360071Y-175857142D01*
X206331500Y-175914285D01*
X206302928Y-176028571D01*
X206302928Y-176114285D01*
X206331500Y-176228571D01*
X206360071Y-176285714D01*
X206417214Y-176342857D01*
X206502928Y-176371428D01*
X206645785Y-176371428D01*
X206074357Y-176200000D02*
X205788642Y-176200000D01*
X206131500Y-176371428D02*
X205931500Y-175771428D01*
X205731500Y-176371428D01*
X205617214Y-175771428D02*
X205274357Y-175771428D01*
X205445785Y-176371428D02*
X205445785Y-175771428D01*
X205102928Y-176200000D02*
X204817214Y-176200000D01*
X205160071Y-176371428D02*
X204960071Y-175771428D01*
X204760071Y-176371428D01*
X206745785Y-177421428D02*
X206745785Y-176821428D01*
X206602928Y-176821428D01*
X206517214Y-176850000D01*
X206460071Y-176907142D01*
X206431500Y-176964285D01*
X206402928Y-177078571D01*
X206402928Y-177164285D01*
X206431500Y-177278571D01*
X206460071Y-177335714D01*
X206517214Y-177392857D01*
X206602928Y-177421428D01*
X206745785Y-177421428D01*
X206174357Y-177250000D02*
X205888642Y-177250000D01*
X206231500Y-177421428D02*
X206031500Y-176821428D01*
X205831500Y-177421428D01*
X205288642Y-177364285D02*
X205317214Y-177392857D01*
X205402928Y-177421428D01*
X205460071Y-177421428D01*
X205545785Y-177392857D01*
X205602928Y-177335714D01*
X205631500Y-177278571D01*
X205660071Y-177164285D01*
X205660071Y-177078571D01*
X205631500Y-176964285D01*
X205602928Y-176907142D01*
X205545785Y-176850000D01*
X205460071Y-176821428D01*
X205402928Y-176821428D01*
X205317214Y-176850000D01*
X205288642Y-176878571D01*
X209242857Y-175771428D02*
X208871428Y-175771428D01*
X209071428Y-176000000D01*
X208985714Y-176000000D01*
X208928571Y-176028571D01*
X208900000Y-176057142D01*
X208871428Y-176114285D01*
X208871428Y-176257142D01*
X208900000Y-176314285D01*
X208928571Y-176342857D01*
X208985714Y-176371428D01*
X209157142Y-176371428D01*
X209214285Y-176342857D01*
X209242857Y-176314285D01*
X208700000Y-175771428D02*
X208500000Y-176371428D01*
X208300000Y-175771428D01*
X208157142Y-175771428D02*
X207785714Y-175771428D01*
X207985714Y-176000000D01*
X207900000Y-176000000D01*
X207842857Y-176028571D01*
X207814285Y-176057142D01*
X207785714Y-176114285D01*
X207785714Y-176257142D01*
X207814285Y-176314285D01*
X207842857Y-176342857D01*
X207900000Y-176371428D01*
X208071428Y-176371428D01*
X208128571Y-176342857D01*
X208157142Y-176314285D01*
X200825285Y-176371428D02*
X201111000Y-176371428D01*
X201111000Y-175771428D01*
X200282428Y-176371428D02*
X200482428Y-176085714D01*
X200625285Y-176371428D02*
X200625285Y-175771428D01*
X200396714Y-175771428D01*
X200339571Y-175800000D01*
X200311000Y-175828571D01*
X200282428Y-175885714D01*
X200282428Y-175971428D01*
X200311000Y-176028571D01*
X200339571Y-176057142D01*
X200396714Y-176085714D01*
X200625285Y-176085714D01*
X199292857Y-176371428D02*
X199292857Y-175771428D01*
X199092857Y-176200000D01*
X198892857Y-175771428D01*
X198892857Y-176371428D01*
X198264285Y-176314285D02*
X198292857Y-176342857D01*
X198378571Y-176371428D01*
X198435714Y-176371428D01*
X198521428Y-176342857D01*
X198578571Y-176285714D01*
X198607142Y-176228571D01*
X198635714Y-176114285D01*
X198635714Y-176028571D01*
X198607142Y-175914285D01*
X198578571Y-175857142D01*
X198521428Y-175800000D01*
X198435714Y-175771428D01*
X198378571Y-175771428D01*
X198292857Y-175800000D01*
X198264285Y-175828571D01*
X197721428Y-176371428D02*
X198007142Y-176371428D01*
X198007142Y-175771428D01*
X197521428Y-176371428D02*
X197521428Y-175771428D01*
X197178571Y-176371428D02*
X197435714Y-176028571D01*
X197178571Y-175771428D02*
X197521428Y-176114285D01*
X195600857Y-175800000D02*
X195658000Y-175771428D01*
X195743714Y-175771428D01*
X195829428Y-175800000D01*
X195886571Y-175857142D01*
X195915142Y-175914285D01*
X195943714Y-176028571D01*
X195943714Y-176114285D01*
X195915142Y-176228571D01*
X195886571Y-176285714D01*
X195829428Y-176342857D01*
X195743714Y-176371428D01*
X195686571Y-176371428D01*
X195600857Y-176342857D01*
X195572285Y-176314285D01*
X195572285Y-176114285D01*
X195686571Y-176114285D01*
X204150000Y-176057142D02*
X204064285Y-176085714D01*
X204035714Y-176114285D01*
X204007142Y-176171428D01*
X204007142Y-176257142D01*
X204035714Y-176314285D01*
X204064285Y-176342857D01*
X204121428Y-176371428D01*
X204350000Y-176371428D01*
X204350000Y-175771428D01*
X204150000Y-175771428D01*
X204092857Y-175800000D01*
X204064285Y-175828571D01*
X204035714Y-175885714D01*
X204035714Y-175942857D01*
X204064285Y-176000000D01*
X204092857Y-176028571D01*
X204150000Y-176057142D01*
X204350000Y-176057142D01*
X203407142Y-176314285D02*
X203435714Y-176342857D01*
X203521428Y-176371428D01*
X203578571Y-176371428D01*
X203664285Y-176342857D01*
X203721428Y-176285714D01*
X203750000Y-176228571D01*
X203778571Y-176114285D01*
X203778571Y-176028571D01*
X203750000Y-175914285D01*
X203721428Y-175857142D01*
X203664285Y-175800000D01*
X203578571Y-175771428D01*
X203521428Y-175771428D01*
X203435714Y-175800000D01*
X203407142Y-175828571D01*
X202864285Y-176371428D02*
X203150000Y-176371428D01*
X203150000Y-175771428D01*
X202664285Y-176371428D02*
X202664285Y-175771428D01*
X202321428Y-176371428D02*
X202578571Y-176028571D01*
X202321428Y-175771428D02*
X202664285Y-176114285D01*
D10*
X192892857Y-169161428D02*
X192521428Y-169161428D01*
X192721428Y-169390000D01*
X192635714Y-169390000D01*
X192578571Y-169418571D01*
X192550000Y-169447142D01*
X192521428Y-169504285D01*
X192521428Y-169647142D01*
X192550000Y-169704285D01*
X192578571Y-169732857D01*
X192635714Y-169761428D01*
X192807142Y-169761428D01*
X192864285Y-169732857D01*
X192892857Y-169704285D01*
X192350000Y-169161428D02*
X192150000Y-169761428D01*
X191950000Y-169161428D01*
X191807142Y-169161428D02*
X191435714Y-169161428D01*
X191635714Y-169390000D01*
X191550000Y-169390000D01*
X191492857Y-169418571D01*
X191464285Y-169447142D01*
X191435714Y-169504285D01*
X191435714Y-169647142D01*
X191464285Y-169704285D01*
X191492857Y-169732857D01*
X191550000Y-169761428D01*
X191721428Y-169761428D01*
X191778571Y-169732857D01*
X191807142Y-169704285D01*
X179192857Y-169190000D02*
X179250000Y-169161428D01*
X179335714Y-169161428D01*
X179421428Y-169190000D01*
X179478571Y-169247142D01*
X179507142Y-169304285D01*
X179535714Y-169418571D01*
X179535714Y-169504285D01*
X179507142Y-169618571D01*
X179478571Y-169675714D01*
X179421428Y-169732857D01*
X179335714Y-169761428D01*
X179278571Y-169761428D01*
X179192857Y-169732857D01*
X179164285Y-169704285D01*
X179164285Y-169504285D01*
X179278571Y-169504285D01*
X190764285Y-169732857D02*
X190678571Y-169761428D01*
X190535714Y-169761428D01*
X190478571Y-169732857D01*
X190450000Y-169704285D01*
X190421428Y-169647142D01*
X190421428Y-169590000D01*
X190450000Y-169532857D01*
X190478571Y-169504285D01*
X190535714Y-169475714D01*
X190650000Y-169447142D01*
X190707142Y-169418571D01*
X190735714Y-169390000D01*
X190764285Y-169332857D01*
X190764285Y-169275714D01*
X190735714Y-169218571D01*
X190707142Y-169190000D01*
X190650000Y-169161428D01*
X190507142Y-169161428D01*
X190421428Y-169190000D01*
X190164285Y-169761428D02*
X190164285Y-169161428D01*
X190021428Y-169161428D01*
X189935714Y-169190000D01*
X189878571Y-169247142D01*
X189850000Y-169304285D01*
X189821428Y-169418571D01*
X189821428Y-169504285D01*
X189850000Y-169618571D01*
X189878571Y-169675714D01*
X189935714Y-169732857D01*
X190021428Y-169761428D01*
X190164285Y-169761428D01*
X189592857Y-169590000D02*
X189307142Y-169590000D01*
X189650000Y-169761428D02*
X189450000Y-169161428D01*
X189250000Y-169761428D01*
X189135714Y-169161428D02*
X188792857Y-169161428D01*
X188964285Y-169761428D02*
X188964285Y-169161428D01*
X188621428Y-169590000D02*
X188335714Y-169590000D01*
X188678571Y-169761428D02*
X188478571Y-169161428D01*
X188278571Y-169761428D01*
X190292857Y-170600000D02*
X190007142Y-170600000D01*
X190350000Y-170771428D02*
X190150000Y-170171428D01*
X189950000Y-170771428D01*
X189750000Y-170771428D02*
X189750000Y-170171428D01*
X189607142Y-170171428D01*
X189521428Y-170200000D01*
X189464285Y-170257142D01*
X189435714Y-170314285D01*
X189407142Y-170428571D01*
X189407142Y-170514285D01*
X189435714Y-170628571D01*
X189464285Y-170685714D01*
X189521428Y-170742857D01*
X189607142Y-170771428D01*
X189750000Y-170771428D01*
X188807142Y-170714285D02*
X188835714Y-170742857D01*
X188921428Y-170771428D01*
X188978571Y-170771428D01*
X189064285Y-170742857D01*
X189121428Y-170685714D01*
X189150000Y-170628571D01*
X189178571Y-170514285D01*
X189178571Y-170428571D01*
X189150000Y-170314285D01*
X189121428Y-170257142D01*
X189064285Y-170200000D01*
X188978571Y-170171428D01*
X188921428Y-170171428D01*
X188835714Y-170200000D01*
X188807142Y-170228571D01*
X187700000Y-169447142D02*
X187614285Y-169475714D01*
X187585714Y-169504285D01*
X187557142Y-169561428D01*
X187557142Y-169647142D01*
X187585714Y-169704285D01*
X187614285Y-169732857D01*
X187671428Y-169761428D01*
X187900000Y-169761428D01*
X187900000Y-169161428D01*
X187700000Y-169161428D01*
X187642857Y-169190000D01*
X187614285Y-169218571D01*
X187585714Y-169275714D01*
X187585714Y-169332857D01*
X187614285Y-169390000D01*
X187642857Y-169418571D01*
X187700000Y-169447142D01*
X187900000Y-169447142D01*
X186957142Y-169704285D02*
X186985714Y-169732857D01*
X187071428Y-169761428D01*
X187128571Y-169761428D01*
X187214285Y-169732857D01*
X187271428Y-169675714D01*
X187300000Y-169618571D01*
X187328571Y-169504285D01*
X187328571Y-169418571D01*
X187300000Y-169304285D01*
X187271428Y-169247142D01*
X187214285Y-169190000D01*
X187128571Y-169161428D01*
X187071428Y-169161428D01*
X186985714Y-169190000D01*
X186957142Y-169218571D01*
X186414285Y-169761428D02*
X186700000Y-169761428D01*
X186700000Y-169161428D01*
X186214285Y-169761428D02*
X186214285Y-169161428D01*
X185871428Y-169761428D02*
X186128571Y-169418571D01*
X185871428Y-169161428D02*
X186214285Y-169504285D01*
X184564285Y-169761428D02*
X184850000Y-169761428D01*
X184850000Y-169161428D01*
X184021428Y-169761428D02*
X184221428Y-169475714D01*
X184364285Y-169761428D02*
X184364285Y-169161428D01*
X184135714Y-169161428D01*
X184078571Y-169190000D01*
X184050000Y-169218571D01*
X184021428Y-169275714D01*
X184021428Y-169361428D01*
X184050000Y-169418571D01*
X184078571Y-169447142D01*
X184135714Y-169475714D01*
X184364285Y-169475714D01*
X182892857Y-169761428D02*
X182892857Y-169161428D01*
X182692857Y-169590000D01*
X182492857Y-169161428D01*
X182492857Y-169761428D01*
X181864285Y-169704285D02*
X181892857Y-169732857D01*
X181978571Y-169761428D01*
X182035714Y-169761428D01*
X182121428Y-169732857D01*
X182178571Y-169675714D01*
X182207142Y-169618571D01*
X182235714Y-169504285D01*
X182235714Y-169418571D01*
X182207142Y-169304285D01*
X182178571Y-169247142D01*
X182121428Y-169190000D01*
X182035714Y-169161428D01*
X181978571Y-169161428D01*
X181892857Y-169190000D01*
X181864285Y-169218571D01*
X181321428Y-169761428D02*
X181607142Y-169761428D01*
X181607142Y-169161428D01*
X181121428Y-169761428D02*
X181121428Y-169161428D01*
X180778571Y-169761428D02*
X181035714Y-169418571D01*
X180778571Y-169161428D02*
X181121428Y-169504285D01*
X176542857Y-169161428D02*
X176171428Y-169161428D01*
X176371428Y-169390000D01*
X176285714Y-169390000D01*
X176228571Y-169418571D01*
X176200000Y-169447142D01*
X176171428Y-169504285D01*
X176171428Y-169647142D01*
X176200000Y-169704285D01*
X176228571Y-169732857D01*
X176285714Y-169761428D01*
X176457142Y-169761428D01*
X176514285Y-169732857D01*
X176542857Y-169704285D01*
X176000000Y-169161428D02*
X175800000Y-169761428D01*
X175600000Y-169161428D01*
X175457142Y-169161428D02*
X175085714Y-169161428D01*
X175285714Y-169390000D01*
X175200000Y-169390000D01*
X175142857Y-169418571D01*
X175114285Y-169447142D01*
X175085714Y-169504285D01*
X175085714Y-169647142D01*
X175114285Y-169704285D01*
X175142857Y-169732857D01*
X175200000Y-169761428D01*
X175371428Y-169761428D01*
X175428571Y-169732857D01*
X175457142Y-169704285D01*
X174514285Y-169732857D02*
X174428571Y-169761428D01*
X174285714Y-169761428D01*
X174228571Y-169732857D01*
X174200000Y-169704285D01*
X174171428Y-169647142D01*
X174171428Y-169590000D01*
X174200000Y-169532857D01*
X174228571Y-169504285D01*
X174285714Y-169475714D01*
X174400000Y-169447142D01*
X174457142Y-169418571D01*
X174485714Y-169390000D01*
X174514285Y-169332857D01*
X174514285Y-169275714D01*
X174485714Y-169218571D01*
X174457142Y-169190000D01*
X174400000Y-169161428D01*
X174257142Y-169161428D01*
X174171428Y-169190000D01*
X173914285Y-169761428D02*
X173914285Y-169161428D01*
X173771428Y-169161428D01*
X173685714Y-169190000D01*
X173628571Y-169247142D01*
X173600000Y-169304285D01*
X173571428Y-169418571D01*
X173571428Y-169504285D01*
X173600000Y-169618571D01*
X173628571Y-169675714D01*
X173685714Y-169732857D01*
X173771428Y-169761428D01*
X173914285Y-169761428D01*
X173342857Y-169590000D02*
X173057142Y-169590000D01*
X173400000Y-169761428D02*
X173200000Y-169161428D01*
X173000000Y-169761428D01*
X172885714Y-169161428D02*
X172542857Y-169161428D01*
X172714285Y-169761428D02*
X172714285Y-169161428D01*
X172371428Y-169590000D02*
X172085714Y-169590000D01*
X172428571Y-169761428D02*
X172228571Y-169161428D01*
X172028571Y-169761428D01*
X174042857Y-170600000D02*
X173757142Y-170600000D01*
X174100000Y-170771428D02*
X173900000Y-170171428D01*
X173700000Y-170771428D01*
X173500000Y-170771428D02*
X173500000Y-170171428D01*
X173357142Y-170171428D01*
X173271428Y-170200000D01*
X173214285Y-170257142D01*
X173185714Y-170314285D01*
X173157142Y-170428571D01*
X173157142Y-170514285D01*
X173185714Y-170628571D01*
X173214285Y-170685714D01*
X173271428Y-170742857D01*
X173357142Y-170771428D01*
X173500000Y-170771428D01*
X172557142Y-170714285D02*
X172585714Y-170742857D01*
X172671428Y-170771428D01*
X172728571Y-170771428D01*
X172814285Y-170742857D01*
X172871428Y-170685714D01*
X172900000Y-170628571D01*
X172928571Y-170514285D01*
X172928571Y-170428571D01*
X172900000Y-170314285D01*
X172871428Y-170257142D01*
X172814285Y-170200000D01*
X172728571Y-170171428D01*
X172671428Y-170171428D01*
X172585714Y-170200000D01*
X172557142Y-170228571D01*
X171450000Y-169447142D02*
X171364285Y-169475714D01*
X171335714Y-169504285D01*
X171307142Y-169561428D01*
X171307142Y-169647142D01*
X171335714Y-169704285D01*
X171364285Y-169732857D01*
X171421428Y-169761428D01*
X171650000Y-169761428D01*
X171650000Y-169161428D01*
X171450000Y-169161428D01*
X171392857Y-169190000D01*
X171364285Y-169218571D01*
X171335714Y-169275714D01*
X171335714Y-169332857D01*
X171364285Y-169390000D01*
X171392857Y-169418571D01*
X171450000Y-169447142D01*
X171650000Y-169447142D01*
X170707142Y-169704285D02*
X170735714Y-169732857D01*
X170821428Y-169761428D01*
X170878571Y-169761428D01*
X170964285Y-169732857D01*
X171021428Y-169675714D01*
X171050000Y-169618571D01*
X171078571Y-169504285D01*
X171078571Y-169418571D01*
X171050000Y-169304285D01*
X171021428Y-169247142D01*
X170964285Y-169190000D01*
X170878571Y-169161428D01*
X170821428Y-169161428D01*
X170735714Y-169190000D01*
X170707142Y-169218571D01*
X170164285Y-169761428D02*
X170450000Y-169761428D01*
X170450000Y-169161428D01*
X169964285Y-169761428D02*
X169964285Y-169161428D01*
X169621428Y-169761428D02*
X169878571Y-169418571D01*
X169621428Y-169161428D02*
X169964285Y-169504285D01*
X168214285Y-169761428D02*
X168500000Y-169761428D01*
X168500000Y-169161428D01*
X167671428Y-169761428D02*
X167871428Y-169475714D01*
X168014285Y-169761428D02*
X168014285Y-169161428D01*
X167785714Y-169161428D01*
X167728571Y-169190000D01*
X167700000Y-169218571D01*
X167671428Y-169275714D01*
X167671428Y-169361428D01*
X167700000Y-169418571D01*
X167728571Y-169447142D01*
X167785714Y-169475714D01*
X168014285Y-169475714D01*
X166592857Y-169761428D02*
X166592857Y-169161428D01*
X166392857Y-169590000D01*
X166192857Y-169161428D01*
X166192857Y-169761428D01*
X165564285Y-169704285D02*
X165592857Y-169732857D01*
X165678571Y-169761428D01*
X165735714Y-169761428D01*
X165821428Y-169732857D01*
X165878571Y-169675714D01*
X165907142Y-169618571D01*
X165935714Y-169504285D01*
X165935714Y-169418571D01*
X165907142Y-169304285D01*
X165878571Y-169247142D01*
X165821428Y-169190000D01*
X165735714Y-169161428D01*
X165678571Y-169161428D01*
X165592857Y-169190000D01*
X165564285Y-169218571D01*
X165021428Y-169761428D02*
X165307142Y-169761428D01*
X165307142Y-169161428D01*
X164821428Y-169761428D02*
X164821428Y-169161428D01*
X164478571Y-169761428D02*
X164735714Y-169418571D01*
X164478571Y-169161428D02*
X164821428Y-169504285D01*
X162942857Y-169190000D02*
X163000000Y-169161428D01*
X163085714Y-169161428D01*
X163171428Y-169190000D01*
X163228571Y-169247142D01*
X163257142Y-169304285D01*
X163285714Y-169418571D01*
X163285714Y-169504285D01*
X163257142Y-169618571D01*
X163228571Y-169675714D01*
X163171428Y-169732857D01*
X163085714Y-169761428D01*
X163028571Y-169761428D01*
X162942857Y-169732857D01*
X162914285Y-169704285D01*
X162914285Y-169504285D01*
X163028571Y-169504285D01*
D11*
X164747571Y-172264428D02*
X164690428Y-172264428D01*
X164633285Y-172293000D01*
X164604714Y-172321571D01*
X164576142Y-172378714D01*
X164547571Y-172493000D01*
X164547571Y-172635857D01*
X164576142Y-172750142D01*
X164604714Y-172807285D01*
X164633285Y-172835857D01*
X164690428Y-172864428D01*
X164747571Y-172864428D01*
X164804714Y-172835857D01*
X164833285Y-172807285D01*
X164861857Y-172750142D01*
X164890428Y-172635857D01*
X164890428Y-172493000D01*
X164861857Y-172378714D01*
X164833285Y-172321571D01*
X164804714Y-172293000D01*
X164747571Y-172264428D01*
D10*
X212842857Y-175961904D02*
X212471428Y-175961904D01*
X212671428Y-176266666D01*
X212585714Y-176266666D01*
X212528571Y-176304761D01*
X212500000Y-176342857D01*
X212471428Y-176419047D01*
X212471428Y-176609523D01*
X212500000Y-176685714D01*
X212528571Y-176723809D01*
X212585714Y-176761904D01*
X212757142Y-176761904D01*
X212814285Y-176723809D01*
X212842857Y-176685714D01*
X212300000Y-175961904D02*
X212100000Y-176761904D01*
X211900000Y-175961904D01*
X211757142Y-175961904D02*
X211385714Y-175961904D01*
X211585714Y-176266666D01*
X211500000Y-176266666D01*
X211442857Y-176304761D01*
X211414285Y-176342857D01*
X211385714Y-176419047D01*
X211385714Y-176609523D01*
X211414285Y-176685714D01*
X211442857Y-176723809D01*
X211500000Y-176761904D01*
X211671428Y-176761904D01*
X211728571Y-176723809D01*
X211757142Y-176685714D01*
X212042857Y-178500000D02*
X212100000Y-178461904D01*
X212185714Y-178461904D01*
X212271428Y-178500000D01*
X212328571Y-178576190D01*
X212357142Y-178652380D01*
X212385714Y-178804761D01*
X212385714Y-178919047D01*
X212357142Y-179071428D01*
X212328571Y-179147619D01*
X212271428Y-179223809D01*
X212185714Y-179261904D01*
X212128571Y-179261904D01*
X212042857Y-179223809D01*
X212014285Y-179185714D01*
X212014285Y-178919047D01*
X212128571Y-178919047D01*
D11*
X159650142Y-186280142D02*
X159621571Y-186194428D01*
X159621571Y-186051571D01*
X159650142Y-185994428D01*
X159678714Y-185965857D01*
X159735857Y-185937285D01*
X159793000Y-185937285D01*
X159850142Y-185965857D01*
X159878714Y-185994428D01*
X159907285Y-186051571D01*
X159935857Y-186165857D01*
X159964428Y-186223000D01*
X159993000Y-186251571D01*
X160050142Y-186280142D01*
X160107285Y-186280142D01*
X160164428Y-186251571D01*
X160193000Y-186223000D01*
X160221571Y-186165857D01*
X160221571Y-186023000D01*
X160193000Y-185937285D01*
X159621571Y-185680142D02*
X160221571Y-185680142D01*
X160221571Y-185451571D01*
X160193000Y-185394428D01*
X160164428Y-185365857D01*
X160107285Y-185337285D01*
X160021571Y-185337285D01*
X159964428Y-185365857D01*
X159935857Y-185394428D01*
X159907285Y-185451571D01*
X159907285Y-185680142D01*
X159621571Y-185080142D02*
X160221571Y-185080142D01*
X160221571Y-184937285D01*
X160193000Y-184851571D01*
X160135857Y-184794428D01*
X160078714Y-184765857D01*
X159964428Y-184737285D01*
X159878714Y-184737285D01*
X159764428Y-184765857D01*
X159707285Y-184794428D01*
X159650142Y-184851571D01*
X159621571Y-184937285D01*
X159621571Y-185080142D01*
X159621571Y-184480142D02*
X160221571Y-184480142D01*
X159935857Y-183994428D02*
X159935857Y-184194428D01*
X159621571Y-184194428D02*
X160221571Y-184194428D01*
X160221571Y-183908714D01*
X160221571Y-183108714D02*
X160221571Y-182994428D01*
X160193000Y-182937285D01*
X160135857Y-182880142D01*
X160021571Y-182851571D01*
X159821571Y-182851571D01*
X159707285Y-182880142D01*
X159650142Y-182937285D01*
X159621571Y-182994428D01*
X159621571Y-183108714D01*
X159650142Y-183165857D01*
X159707285Y-183223000D01*
X159821571Y-183251571D01*
X160021571Y-183251571D01*
X160135857Y-183223000D01*
X160193000Y-183165857D01*
X160221571Y-183108714D01*
X160221571Y-182594428D02*
X159735857Y-182594428D01*
X159678714Y-182565857D01*
X159650142Y-182537285D01*
X159621571Y-182480142D01*
X159621571Y-182365857D01*
X159650142Y-182308714D01*
X159678714Y-182280142D01*
X159735857Y-182251571D01*
X160221571Y-182251571D01*
X160221571Y-182051571D02*
X160221571Y-181708714D01*
X159621571Y-181880142D02*
X160221571Y-181880142D01*
X159650142Y-173053142D02*
X159621571Y-172967428D01*
X159621571Y-172824571D01*
X159650142Y-172767428D01*
X159678714Y-172738857D01*
X159735857Y-172710285D01*
X159793000Y-172710285D01*
X159850142Y-172738857D01*
X159878714Y-172767428D01*
X159907285Y-172824571D01*
X159935857Y-172938857D01*
X159964428Y-172996000D01*
X159993000Y-173024571D01*
X160050142Y-173053142D01*
X160107285Y-173053142D01*
X160164428Y-173024571D01*
X160193000Y-172996000D01*
X160221571Y-172938857D01*
X160221571Y-172796000D01*
X160193000Y-172710285D01*
X159621571Y-172453142D02*
X160221571Y-172453142D01*
X160221571Y-172224571D01*
X160193000Y-172167428D01*
X160164428Y-172138857D01*
X160107285Y-172110285D01*
X160021571Y-172110285D01*
X159964428Y-172138857D01*
X159935857Y-172167428D01*
X159907285Y-172224571D01*
X159907285Y-172453142D01*
X159621571Y-171853142D02*
X160221571Y-171853142D01*
X160221571Y-171710285D01*
X160193000Y-171624571D01*
X160135857Y-171567428D01*
X160078714Y-171538857D01*
X159964428Y-171510285D01*
X159878714Y-171510285D01*
X159764428Y-171538857D01*
X159707285Y-171567428D01*
X159650142Y-171624571D01*
X159621571Y-171710285D01*
X159621571Y-171853142D01*
X159621571Y-171253142D02*
X160221571Y-171253142D01*
X159935857Y-170767428D02*
X159935857Y-170967428D01*
X159621571Y-170967428D02*
X160221571Y-170967428D01*
X160221571Y-170681714D01*
X159621571Y-169996000D02*
X160221571Y-169996000D01*
X159621571Y-169710285D02*
X160221571Y-169710285D01*
X159621571Y-169367428D01*
X160221571Y-169367428D01*
X164576142Y-184837428D02*
X164861857Y-184837428D01*
X164890428Y-185123142D01*
X164861857Y-185094571D01*
X164804714Y-185066000D01*
X164661857Y-185066000D01*
X164604714Y-185094571D01*
X164576142Y-185123142D01*
X164547571Y-185180285D01*
X164547571Y-185323142D01*
X164576142Y-185380285D01*
X164604714Y-185408857D01*
X164661857Y-185437428D01*
X164804714Y-185437428D01*
X164861857Y-185408857D01*
X164890428Y-185380285D01*
X164604714Y-182497428D02*
X164604714Y-182897428D01*
X164747571Y-182268857D02*
X164890428Y-182697428D01*
X164519000Y-182697428D01*
X164919000Y-179808228D02*
X164547571Y-179808228D01*
X164747571Y-180036800D01*
X164661857Y-180036800D01*
X164604714Y-180065371D01*
X164576142Y-180093942D01*
X164547571Y-180151085D01*
X164547571Y-180293942D01*
X164576142Y-180351085D01*
X164604714Y-180379657D01*
X164661857Y-180408228D01*
X164833285Y-180408228D01*
X164890428Y-180379657D01*
X164919000Y-180351085D01*
X164890428Y-177350771D02*
X164861857Y-177322200D01*
X164804714Y-177293628D01*
X164661857Y-177293628D01*
X164604714Y-177322200D01*
X164576142Y-177350771D01*
X164547571Y-177407914D01*
X164547571Y-177465057D01*
X164576142Y-177550771D01*
X164919000Y-177893628D01*
X164547571Y-177893628D01*
X164547571Y-175379028D02*
X164890428Y-175379028D01*
X164719000Y-175379028D02*
X164719000Y-174779028D01*
X164776142Y-174864742D01*
X164833285Y-174921885D01*
X164890428Y-174950457D01*
X163810857Y-187298000D02*
X163525142Y-187298000D01*
X163868000Y-187469428D02*
X163668000Y-186869428D01*
X163468000Y-187469428D01*
X163268000Y-186869428D02*
X163268000Y-187355142D01*
X163239428Y-187412285D01*
X163210857Y-187440857D01*
X163153714Y-187469428D01*
X163039428Y-187469428D01*
X162982285Y-187440857D01*
X162953714Y-187412285D01*
X162925142Y-187355142D01*
X162925142Y-186869428D01*
X162696571Y-186869428D02*
X162296571Y-187469428D01*
X162296571Y-186869428D02*
X162696571Y-187469428D01*
D10*
X173095533Y-182655809D02*
X173009818Y-182693904D01*
X172866961Y-182693904D01*
X172809818Y-182655809D01*
X172781247Y-182617714D01*
X172752676Y-182541523D01*
X172752676Y-182465333D01*
X172781247Y-182389142D01*
X172809818Y-182351047D01*
X172866961Y-182312952D01*
X172981247Y-182274857D01*
X173038390Y-182236761D01*
X173066961Y-182198666D01*
X173095533Y-182122476D01*
X173095533Y-182046285D01*
X173066961Y-181970095D01*
X173038390Y-181932000D01*
X172981247Y-181893904D01*
X172838390Y-181893904D01*
X172752676Y-181932000D01*
X172495533Y-182693904D02*
X172495533Y-182160571D01*
X172495533Y-181893904D02*
X172524104Y-181932000D01*
X172495533Y-181970095D01*
X172466961Y-181932000D01*
X172495533Y-181893904D01*
X172495533Y-181970095D01*
X171952676Y-182160571D02*
X171952676Y-182808190D01*
X171981247Y-182884380D01*
X172009818Y-182922476D01*
X172066961Y-182960571D01*
X172152676Y-182960571D01*
X172209818Y-182922476D01*
X171952676Y-182655809D02*
X172009818Y-182693904D01*
X172124104Y-182693904D01*
X172181247Y-182655809D01*
X172209818Y-182617714D01*
X172238390Y-182541523D01*
X172238390Y-182312952D01*
X172209818Y-182236761D01*
X172181247Y-182198666D01*
X172124104Y-182160571D01*
X172009818Y-182160571D01*
X171952676Y-182198666D01*
X171666961Y-182693904D02*
X171666961Y-182160571D01*
X171666961Y-182236761D02*
X171638390Y-182198666D01*
X171581247Y-182160571D01*
X171495533Y-182160571D01*
X171438390Y-182198666D01*
X171409818Y-182274857D01*
X171409818Y-182693904D01*
X171409818Y-182274857D02*
X171381247Y-182198666D01*
X171324104Y-182160571D01*
X171238390Y-182160571D01*
X171181247Y-182198666D01*
X171152676Y-182274857D01*
X171152676Y-182693904D01*
X170609818Y-182693904D02*
X170609818Y-182274857D01*
X170638390Y-182198666D01*
X170695533Y-182160571D01*
X170809818Y-182160571D01*
X170866961Y-182198666D01*
X170609818Y-182655809D02*
X170666961Y-182693904D01*
X170809818Y-182693904D01*
X170866961Y-182655809D01*
X170895533Y-182579619D01*
X170895533Y-182503428D01*
X170866961Y-182427238D01*
X170809818Y-182389142D01*
X170666961Y-182389142D01*
X170609818Y-182351047D01*
X170324104Y-182693904D02*
X170324104Y-181893904D01*
X170181247Y-181893904D01*
X170095533Y-181932000D01*
X170038390Y-182008190D01*
X170009818Y-182084380D01*
X169981247Y-182236761D01*
X169981247Y-182351047D01*
X170009818Y-182503428D01*
X170038390Y-182579619D01*
X170095533Y-182655809D01*
X170181247Y-182693904D01*
X170324104Y-182693904D01*
X169752676Y-182655809D02*
X169666961Y-182693904D01*
X169524104Y-182693904D01*
X169466961Y-182655809D01*
X169438390Y-182617714D01*
X169409818Y-182541523D01*
X169409818Y-182465333D01*
X169438390Y-182389142D01*
X169466961Y-182351047D01*
X169524104Y-182312952D01*
X169638390Y-182274857D01*
X169695533Y-182236761D01*
X169724104Y-182198666D01*
X169752676Y-182122476D01*
X169752676Y-182046285D01*
X169724104Y-181970095D01*
X169695533Y-181932000D01*
X169638390Y-181893904D01*
X169495533Y-181893904D01*
X169409818Y-181932000D01*
X169152676Y-182693904D02*
X169152676Y-181893904D01*
X168924104Y-181893904D01*
X168866961Y-181932000D01*
X168838390Y-181970095D01*
X168809818Y-182046285D01*
X168809818Y-182160571D01*
X168838390Y-182236761D01*
X168866961Y-182274857D01*
X168924104Y-182312952D01*
X169152676Y-182312952D01*
X174552676Y-183775333D02*
X174266961Y-183775333D01*
X174609818Y-184003904D02*
X174409818Y-183203904D01*
X174209818Y-184003904D01*
X174066961Y-183470571D02*
X173924104Y-184003904D01*
X173781247Y-183470571D02*
X173924104Y-184003904D01*
X173981247Y-184194380D01*
X174009818Y-184232476D01*
X174066961Y-184270571D01*
X173266961Y-183546761D02*
X173295533Y-183508666D01*
X173352676Y-183470571D01*
X173466961Y-183470571D01*
X173524104Y-183508666D01*
X173552676Y-183546761D01*
X173581247Y-183622952D01*
X173581247Y-183851523D01*
X173552676Y-183927714D01*
X173524104Y-183965809D01*
X173466961Y-184003904D01*
X173381247Y-184003904D01*
X173324104Y-183965809D01*
X173295533Y-183927714D01*
X173266961Y-183851523D01*
X173266961Y-183356285D01*
X173295533Y-183280095D01*
X173324104Y-183242000D01*
X173381247Y-183203904D01*
X173495533Y-183203904D01*
X173552676Y-183242000D01*
X173009818Y-183470571D02*
X173009818Y-184003904D01*
X172724104Y-183470571D01*
X172724104Y-184003904D01*
X172352676Y-184003904D02*
X172409818Y-183965809D01*
X172438390Y-183927714D01*
X172466961Y-183851523D01*
X172466961Y-183622952D01*
X172438390Y-183546761D01*
X172409818Y-183508666D01*
X172352676Y-183470571D01*
X172266961Y-183470571D01*
X172209818Y-183508666D01*
X172181247Y-183546761D01*
X172152676Y-183622952D01*
X172152676Y-183851523D01*
X172181247Y-183927714D01*
X172209818Y-183965809D01*
X172266961Y-184003904D01*
X172352676Y-184003904D01*
X171895533Y-184003904D02*
X171895533Y-183470571D01*
X171638390Y-183470571D01*
X171638390Y-184003904D01*
X171352676Y-183470571D02*
X171352676Y-184270571D01*
X171352676Y-183508666D02*
X171295533Y-183470571D01*
X171181247Y-183470571D01*
X171124104Y-183508666D01*
X171095533Y-183546761D01*
X171066961Y-183622952D01*
X171066961Y-183851523D01*
X171095533Y-183927714D01*
X171124104Y-183965809D01*
X171181247Y-184003904D01*
X171295533Y-184003904D01*
X171352676Y-183965809D01*
X170724104Y-184003904D02*
X170781247Y-183965809D01*
X170809818Y-183927714D01*
X170838390Y-183851523D01*
X170838390Y-183622952D01*
X170809818Y-183546761D01*
X170781247Y-183508666D01*
X170724104Y-183470571D01*
X170638390Y-183470571D01*
X170581247Y-183508666D01*
X170552676Y-183546761D01*
X170524104Y-183622952D01*
X170524104Y-183851523D01*
X170552676Y-183927714D01*
X170581247Y-183965809D01*
X170638390Y-184003904D01*
X170724104Y-184003904D01*
X170009818Y-183470571D02*
X170009818Y-184003904D01*
X170266961Y-183470571D02*
X170266961Y-184003904D01*
X169952676Y-184003904D01*
X169952676Y-184194380D01*
X169495533Y-183965809D02*
X169552676Y-184003904D01*
X169666961Y-184003904D01*
X169724104Y-183965809D01*
X169752676Y-183889619D01*
X169752676Y-183584857D01*
X169724104Y-183508666D01*
X169666961Y-183470571D01*
X169552676Y-183470571D01*
X169495533Y-183508666D01*
X169466961Y-183584857D01*
X169466961Y-183661047D01*
X169752676Y-183737238D01*
X168952676Y-183965809D02*
X169009818Y-184003904D01*
X169124104Y-184003904D01*
X169181247Y-183965809D01*
X169209818Y-183927714D01*
X169238390Y-183851523D01*
X169238390Y-183622952D01*
X169209818Y-183546761D01*
X169181247Y-183508666D01*
X169124104Y-183470571D01*
X169009818Y-183470571D01*
X168952676Y-183508666D01*
X168438390Y-183965809D02*
X168495533Y-184003904D01*
X168609818Y-184003904D01*
X168666961Y-183965809D01*
X168695533Y-183927714D01*
X168724104Y-183851523D01*
X168724104Y-183622952D01*
X168695533Y-183546761D01*
X168666961Y-183508666D01*
X168609818Y-183470571D01*
X168495533Y-183470571D01*
X168438390Y-183508666D01*
X168095533Y-184003904D02*
X168152676Y-183965809D01*
X168181247Y-183927714D01*
X168209818Y-183851523D01*
X168209818Y-183622952D01*
X168181247Y-183546761D01*
X168152676Y-183508666D01*
X168095533Y-183470571D01*
X168009818Y-183470571D01*
X167952676Y-183508666D01*
X167924104Y-183546761D01*
X167895533Y-183622952D01*
X167895533Y-183851523D01*
X167924104Y-183927714D01*
X167952676Y-183965809D01*
X168009818Y-184003904D01*
X168095533Y-184003904D01*
X167638390Y-183470571D02*
X167638390Y-184270571D01*
X167638390Y-183508666D02*
X167581247Y-183470571D01*
X167466961Y-183470571D01*
X167409818Y-183508666D01*
X167381247Y-183546761D01*
X167352676Y-183622952D01*
X167352676Y-183851523D01*
X167381247Y-183927714D01*
X167409818Y-183965809D01*
X167466961Y-184003904D01*
X167581247Y-184003904D01*
X167638390Y-183965809D01*
X173109818Y-185085333D02*
X172824104Y-185085333D01*
X173166961Y-185313904D02*
X172966961Y-184513904D01*
X172766961Y-185313904D01*
X172566961Y-185313904D02*
X172566961Y-184513904D01*
X172424104Y-184513904D01*
X172338390Y-184552000D01*
X172281247Y-184628190D01*
X172252676Y-184704380D01*
X172224104Y-184856761D01*
X172224104Y-184971047D01*
X172252676Y-185123428D01*
X172281247Y-185199619D01*
X172338390Y-185275809D01*
X172424104Y-185313904D01*
X172566961Y-185313904D01*
X171995533Y-185085333D02*
X171709818Y-185085333D01*
X172052676Y-185313904D02*
X171852676Y-184513904D01*
X171652676Y-185313904D01*
X171452676Y-184513904D02*
X171452676Y-185161523D01*
X171424104Y-185237714D01*
X171395533Y-185275809D01*
X171338390Y-185313904D01*
X171224104Y-185313904D01*
X171166961Y-185275809D01*
X171138390Y-185237714D01*
X171109818Y-185161523D01*
X171109818Y-184513904D01*
X170509818Y-185313904D02*
X170852676Y-185313904D01*
X170681247Y-185313904D02*
X170681247Y-184513904D01*
X170738390Y-184628190D01*
X170795533Y-184704380D01*
X170852676Y-184742476D01*
X169995533Y-184780571D02*
X169995533Y-185313904D01*
X170138390Y-184475809D02*
X170281247Y-185047238D01*
X169909818Y-185047238D01*
X169395533Y-184513904D02*
X169681247Y-184513904D01*
X169709818Y-184894857D01*
X169681247Y-184856761D01*
X169624104Y-184818666D01*
X169481247Y-184818666D01*
X169424104Y-184856761D01*
X169395533Y-184894857D01*
X169366961Y-184971047D01*
X169366961Y-185161523D01*
X169395533Y-185237714D01*
X169424104Y-185275809D01*
X169481247Y-185313904D01*
X169624104Y-185313904D01*
X169681247Y-185275809D01*
X169709818Y-185237714D01*
X169138390Y-184590095D02*
X169109818Y-184552000D01*
X169052676Y-184513904D01*
X168909818Y-184513904D01*
X168852676Y-184552000D01*
X168824104Y-184590095D01*
X168795533Y-184666285D01*
X168795533Y-184742476D01*
X168824104Y-184856761D01*
X169166961Y-185313904D01*
X168795533Y-185313904D01*
D11*
X174643152Y-187523380D02*
X174976485Y-187047190D01*
X175214580Y-187523380D02*
X175214580Y-186523380D01*
X174833628Y-186523380D01*
X174738390Y-186571000D01*
X174690771Y-186618619D01*
X174643152Y-186713857D01*
X174643152Y-186856714D01*
X174690771Y-186951952D01*
X174738390Y-186999571D01*
X174833628Y-187047190D01*
X175214580Y-187047190D01*
X174214580Y-187523380D02*
X174214580Y-186523380D01*
X173976485Y-186523380D01*
X173833628Y-186571000D01*
X173738390Y-186666238D01*
X173690771Y-186761476D01*
X173643152Y-186951952D01*
X173643152Y-187094809D01*
X173690771Y-187285285D01*
X173738390Y-187380523D01*
X173833628Y-187475761D01*
X173976485Y-187523380D01*
X174214580Y-187523380D01*
X172643152Y-187428142D02*
X172690771Y-187475761D01*
X172833628Y-187523380D01*
X172928866Y-187523380D01*
X173071723Y-187475761D01*
X173166961Y-187380523D01*
X173214580Y-187285285D01*
X173262199Y-187094809D01*
X173262199Y-186951952D01*
X173214580Y-186761476D01*
X173166961Y-186666238D01*
X173071723Y-186571000D01*
X172928866Y-186523380D01*
X172833628Y-186523380D01*
X172690771Y-186571000D01*
X172643152Y-186618619D01*
X172309818Y-186523380D02*
X171690771Y-186523380D01*
X172024104Y-186904333D01*
X171881247Y-186904333D01*
X171786009Y-186951952D01*
X171738390Y-186999571D01*
X171690771Y-187094809D01*
X171690771Y-187332904D01*
X171738390Y-187428142D01*
X171786009Y-187475761D01*
X171881247Y-187523380D01*
X172166961Y-187523380D01*
X172262199Y-187475761D01*
X172309818Y-187428142D01*
X171262199Y-187142428D02*
X170500295Y-187142428D01*
X169833628Y-186523380D02*
X169738390Y-186523380D01*
X169643152Y-186571000D01*
X169595533Y-186618619D01*
X169547914Y-186713857D01*
X169500295Y-186904333D01*
X169500295Y-187142428D01*
X169547914Y-187332904D01*
X169595533Y-187428142D01*
X169643152Y-187475761D01*
X169738390Y-187523380D01*
X169833628Y-187523380D01*
X169928866Y-187475761D01*
X169976485Y-187428142D01*
X170024104Y-187332904D01*
X170071723Y-187142428D01*
X170071723Y-186904333D01*
X170024104Y-186713857D01*
X169976485Y-186618619D01*
X169928866Y-186571000D01*
X169833628Y-186523380D01*
X168881247Y-186523380D02*
X168786009Y-186523380D01*
X168690771Y-186571000D01*
X168643152Y-186618619D01*
X168595533Y-186713857D01*
X168547914Y-186904333D01*
X168547914Y-187142428D01*
X168595533Y-187332904D01*
X168643152Y-187428142D01*
X168690771Y-187475761D01*
X168786009Y-187523380D01*
X168881247Y-187523380D01*
X168976485Y-187475761D01*
X169024104Y-187428142D01*
X169071723Y-187332904D01*
X169119342Y-187142428D01*
X169119342Y-186904333D01*
X169071723Y-186713857D01*
X169024104Y-186618619D01*
X168976485Y-186571000D01*
X168881247Y-186523380D01*
X168166961Y-186618619D02*
X168119342Y-186571000D01*
X168024104Y-186523380D01*
X167786009Y-186523380D01*
X167690771Y-186571000D01*
X167643152Y-186618619D01*
X167595533Y-186713857D01*
X167595533Y-186809095D01*
X167643152Y-186951952D01*
X168214580Y-187523380D01*
X167595533Y-187523380D01*
X167262199Y-186523380D02*
X166595533Y-186523380D01*
X167024104Y-187523380D01*
X215000000Y-163000000D02*
G75*
G02X217000000Y-165000000I0J-2000000D01*
G01*
X158000000Y-165000000D02*
G75*
G02X160000000Y-163000000I2000000J0D01*
G01*
X217000000Y-190000000D02*
G75*
G02X215000000Y-192000000I-2000000J0D01*
G01*
X160000000Y-192000000D02*
G75*
G02X158000000Y-190000000I0J2000000D01*
G01*
X163000000Y-192000000D02*
X172000000Y-192000000D01*
X172000000Y-192000000D02*
X172000000Y-194000000D01*
X172000000Y-194000000D02*
X163000000Y-194000000D01*
X163000000Y-194000000D02*
X163000000Y-192000000D01*
X174000000Y-192000000D02*
X174000000Y-194000000D01*
X174000000Y-194000000D02*
X201000000Y-194000000D01*
X201000000Y-194000000D02*
X201000000Y-192000000D01*
X201000000Y-192000000D02*
X174000000Y-192000000D01*
X203000000Y-192000000D02*
X203000000Y-194000000D01*
X203000000Y-194000000D02*
X211000000Y-194000000D01*
X211000000Y-192000000D02*
X203000000Y-192000000D01*
X160000000Y-192000000D02*
X161000000Y-192000000D01*
X161000000Y-192000000D02*
X161000000Y-194000000D01*
X161000000Y-194000000D02*
X160000000Y-194000000D01*
X158000000Y-190000000D02*
X158000000Y-189000000D01*
X158000000Y-189000000D02*
X156000000Y-189000000D01*
X156000000Y-189000000D02*
X156000000Y-190000000D01*
X160000000Y-194000000D02*
G75*
G02X156000000Y-190000000I0J4000000D01*
G01*
X160000000Y-163000000D02*
X161000000Y-163000000D01*
X161000000Y-163000000D02*
X161000000Y-161000000D01*
X161000000Y-161000000D02*
X160000000Y-161000000D01*
X158000000Y-165000000D02*
X158000000Y-166000000D01*
X158000000Y-166000000D02*
X156000000Y-166000000D01*
X156000000Y-166000000D02*
X156000000Y-165000000D01*
X156000000Y-165000000D02*
G75*
G02X160000000Y-161000000I4000000J0D01*
G01*
X215000000Y-163000000D02*
X214000000Y-163000000D01*
X214000000Y-163000000D02*
X214000000Y-161000000D01*
X214000000Y-161000000D02*
X215000000Y-161000000D01*
X217000000Y-165000000D02*
X217000000Y-166000000D01*
X217000000Y-166000000D02*
X219000000Y-166000000D01*
X219000000Y-166000000D02*
X219000000Y-165000000D01*
X215000000Y-161000000D02*
G75*
G02X219000000Y-165000000I0J-4000000D01*
G01*
X217000000Y-190000000D02*
X217000000Y-189000000D01*
X217000000Y-189000000D02*
X219000000Y-189000000D01*
X219000000Y-189000000D02*
X219000000Y-190000000D01*
X215000000Y-192000000D02*
X214000000Y-192000000D01*
X214000000Y-192000000D02*
X214000000Y-194000000D01*
X219000000Y-190000000D02*
G75*
G02X215000000Y-194000000I-4000000J0D01*
G01*
X214000000Y-194000000D02*
X215000000Y-194000000D01*
X158000000Y-187000000D02*
X156000000Y-187000000D01*
X156000000Y-187000000D02*
X156000000Y-168000000D01*
X156000000Y-168000000D02*
X158000000Y-168000000D01*
X158000000Y-168000000D02*
X158000000Y-187000000D01*
X217000000Y-187000000D02*
X219000000Y-187000000D01*
X219000000Y-187000000D02*
X219000000Y-168000000D01*
X219000000Y-168000000D02*
X217000000Y-168000000D01*
X217000000Y-168000000D02*
X217000000Y-187000000D01*
X163000000Y-163000000D02*
X163000000Y-161000000D01*
X163000000Y-161000000D02*
X172000000Y-161000000D01*
X172000000Y-161000000D02*
X172000000Y-163000000D01*
X172000000Y-163000000D02*
X163000000Y-163000000D01*
X212000000Y-163000000D02*
X203000000Y-163000000D01*
X203000000Y-163000000D02*
X203000000Y-161000000D01*
X203000000Y-161000000D02*
X212000000Y-161000000D01*
X212000000Y-161000000D02*
X212000000Y-163000000D01*
X174000000Y-163000000D02*
X174000000Y-161000000D01*
X174000000Y-161000000D02*
X201000000Y-161000000D01*
X201000000Y-161000000D02*
X201000000Y-163000000D01*
X201000000Y-163000000D02*
X174000000Y-163000000D01*
X150000000Y-159000000D02*
G75*
G02X154000000Y-155000000I4000000J0D01*
G01*
X221000000Y-155000000D02*
G75*
G02X225000000Y-159000000I0J-4000000D01*
G01*
X225000000Y-196000000D02*
G75*
G02X221000000Y-200000000I-4000000J0D01*
G01*
X154000000Y-200000000D02*
G75*
G02X150000000Y-196000000I0J4000000D01*
G01*
X154000000Y-200000000D02*
X221000000Y-200000000D01*
X225000000Y-196000000D02*
X225000000Y-159000000D01*
X221000000Y-155000000D02*
X154000000Y-155000000D01*
X150000000Y-159000000D02*
X150000000Y-196000000D01*
X211000000Y-192000000D02*
X212000000Y-192000000D01*
X212000000Y-192000000D02*
X212000000Y-194000000D01*
X212000000Y-194000000D02*
X211000000Y-194000000D01*
X204100000Y-169457142D02*
X204014285Y-169485714D01*
X203985714Y-169514285D01*
X203957142Y-169571428D01*
X203957142Y-169657142D01*
X203985714Y-169714285D01*
X204014285Y-169742857D01*
X204071428Y-169771428D01*
X204300000Y-169771428D01*
X204300000Y-169171428D01*
X204100000Y-169171428D01*
X204042857Y-169200000D01*
X204014285Y-169228571D01*
X203985714Y-169285714D01*
X203985714Y-169342857D01*
X204014285Y-169400000D01*
X204042857Y-169428571D01*
X204100000Y-169457142D01*
X204300000Y-169457142D01*
X203357142Y-169714285D02*
X203385714Y-169742857D01*
X203471428Y-169771428D01*
X203528571Y-169771428D01*
X203614285Y-169742857D01*
X203671428Y-169685714D01*
X203700000Y-169628571D01*
X203728571Y-169514285D01*
X203728571Y-169428571D01*
X203700000Y-169314285D01*
X203671428Y-169257142D01*
X203614285Y-169200000D01*
X203528571Y-169171428D01*
X203471428Y-169171428D01*
X203385714Y-169200000D01*
X203357142Y-169228571D01*
X202814285Y-169771428D02*
X203100000Y-169771428D01*
X203100000Y-169171428D01*
X202614285Y-169771428D02*
X202614285Y-169171428D01*
X202271428Y-169771428D02*
X202528571Y-169428571D01*
X202271428Y-169171428D02*
X202614285Y-169514285D01*
X209192857Y-166596428D02*
X208821428Y-166596428D01*
X209021428Y-166825000D01*
X208935714Y-166825000D01*
X208878571Y-166853571D01*
X208850000Y-166882142D01*
X208821428Y-166939285D01*
X208821428Y-167082142D01*
X208850000Y-167139285D01*
X208878571Y-167167857D01*
X208935714Y-167196428D01*
X209107142Y-167196428D01*
X209164285Y-167167857D01*
X209192857Y-167139285D01*
X208650000Y-166596428D02*
X208450000Y-167196428D01*
X208250000Y-166596428D01*
X208107142Y-166596428D02*
X207735714Y-166596428D01*
X207935714Y-166825000D01*
X207850000Y-166825000D01*
X207792857Y-166853571D01*
X207764285Y-166882142D01*
X207735714Y-166939285D01*
X207735714Y-167082142D01*
X207764285Y-167139285D01*
X207792857Y-167167857D01*
X207850000Y-167196428D01*
X208021428Y-167196428D01*
X208078571Y-167167857D01*
X208107142Y-167139285D01*
X195542857Y-170250000D02*
X195600000Y-170221428D01*
X195685714Y-170221428D01*
X195771428Y-170250000D01*
X195828571Y-170307142D01*
X195857142Y-170364285D01*
X195885714Y-170478571D01*
X195885714Y-170564285D01*
X195857142Y-170678571D01*
X195828571Y-170735714D01*
X195771428Y-170792857D01*
X195685714Y-170821428D01*
X195628571Y-170821428D01*
X195542857Y-170792857D01*
X195514285Y-170764285D01*
X195514285Y-170564285D01*
X195628571Y-170564285D01*
X195550857Y-169200000D02*
X195608000Y-169171428D01*
X195693714Y-169171428D01*
X195779428Y-169200000D01*
X195836571Y-169257142D01*
X195865142Y-169314285D01*
X195893714Y-169428571D01*
X195893714Y-169514285D01*
X195865142Y-169628571D01*
X195836571Y-169685714D01*
X195779428Y-169742857D01*
X195693714Y-169771428D01*
X195636571Y-169771428D01*
X195550857Y-169742857D01*
X195522285Y-169714285D01*
X195522285Y-169514285D01*
X195636571Y-169514285D01*
X204042857Y-170221428D02*
X203671428Y-170221428D01*
X203871428Y-170450000D01*
X203785714Y-170450000D01*
X203728571Y-170478571D01*
X203700000Y-170507142D01*
X203671428Y-170564285D01*
X203671428Y-170707142D01*
X203700000Y-170764285D01*
X203728571Y-170792857D01*
X203785714Y-170821428D01*
X203957142Y-170821428D01*
X204014285Y-170792857D01*
X204042857Y-170764285D01*
X203500000Y-170221428D02*
X203300000Y-170821428D01*
X203100000Y-170221428D01*
X202957142Y-170221428D02*
X202585714Y-170221428D01*
X202785714Y-170450000D01*
X202700000Y-170450000D01*
X202642857Y-170478571D01*
X202614285Y-170507142D01*
X202585714Y-170564285D01*
X202585714Y-170707142D01*
X202614285Y-170764285D01*
X202642857Y-170792857D01*
X202700000Y-170821428D01*
X202871428Y-170821428D01*
X202928571Y-170792857D01*
X202957142Y-170764285D01*
X199242857Y-169771428D02*
X199242857Y-169171428D01*
X199042857Y-169600000D01*
X198842857Y-169171428D01*
X198842857Y-169771428D01*
X198214285Y-169714285D02*
X198242857Y-169742857D01*
X198328571Y-169771428D01*
X198385714Y-169771428D01*
X198471428Y-169742857D01*
X198528571Y-169685714D01*
X198557142Y-169628571D01*
X198585714Y-169514285D01*
X198585714Y-169428571D01*
X198557142Y-169314285D01*
X198528571Y-169257142D01*
X198471428Y-169200000D01*
X198385714Y-169171428D01*
X198328571Y-169171428D01*
X198242857Y-169200000D01*
X198214285Y-169228571D01*
X197671428Y-169771428D02*
X197957142Y-169771428D01*
X197957142Y-169171428D01*
X197471428Y-169771428D02*
X197471428Y-169171428D01*
X197128571Y-169771428D02*
X197385714Y-169428571D01*
X197128571Y-169171428D02*
X197471428Y-169514285D01*
X198945571Y-170792857D02*
X198859857Y-170821428D01*
X198717000Y-170821428D01*
X198659857Y-170792857D01*
X198631285Y-170764285D01*
X198602714Y-170707142D01*
X198602714Y-170650000D01*
X198631285Y-170592857D01*
X198659857Y-170564285D01*
X198717000Y-170535714D01*
X198831285Y-170507142D01*
X198888428Y-170478571D01*
X198917000Y-170450000D01*
X198945571Y-170392857D01*
X198945571Y-170335714D01*
X198917000Y-170278571D01*
X198888428Y-170250000D01*
X198831285Y-170221428D01*
X198688428Y-170221428D01*
X198602714Y-170250000D01*
X198345571Y-170821428D02*
X198345571Y-170221428D01*
X198202714Y-170221428D01*
X198117000Y-170250000D01*
X198059857Y-170307142D01*
X198031285Y-170364285D01*
X198002714Y-170478571D01*
X198002714Y-170564285D01*
X198031285Y-170678571D01*
X198059857Y-170735714D01*
X198117000Y-170792857D01*
X198202714Y-170821428D01*
X198345571Y-170821428D01*
X197774142Y-170650000D02*
X197488428Y-170650000D01*
X197831285Y-170821428D02*
X197631285Y-170221428D01*
X197431285Y-170821428D01*
X207195785Y-167167857D02*
X207110071Y-167196428D01*
X206967214Y-167196428D01*
X206910071Y-167167857D01*
X206881500Y-167139285D01*
X206852928Y-167082142D01*
X206852928Y-167025000D01*
X206881500Y-166967857D01*
X206910071Y-166939285D01*
X206967214Y-166910714D01*
X207081500Y-166882142D01*
X207138642Y-166853571D01*
X207167214Y-166825000D01*
X207195785Y-166767857D01*
X207195785Y-166710714D01*
X207167214Y-166653571D01*
X207138642Y-166625000D01*
X207081500Y-166596428D01*
X206938642Y-166596428D01*
X206852928Y-166625000D01*
X206595785Y-167196428D02*
X206595785Y-166596428D01*
X206452928Y-166596428D01*
X206367214Y-166625000D01*
X206310071Y-166682142D01*
X206281500Y-166739285D01*
X206252928Y-166853571D01*
X206252928Y-166939285D01*
X206281500Y-167053571D01*
X206310071Y-167110714D01*
X206367214Y-167167857D01*
X206452928Y-167196428D01*
X206595785Y-167196428D01*
X206024357Y-167025000D02*
X205738642Y-167025000D01*
X206081500Y-167196428D02*
X205881500Y-166596428D01*
X205681500Y-167196428D01*
X205567214Y-166596428D02*
X205224357Y-166596428D01*
X205395785Y-167196428D02*
X205395785Y-166596428D01*
X205052928Y-167025000D02*
X204767214Y-167025000D01*
X205110071Y-167196428D02*
X204910071Y-166596428D01*
X204710071Y-167196428D01*
X206695785Y-168246428D02*
X206695785Y-167646428D01*
X206552928Y-167646428D01*
X206467214Y-167675000D01*
X206410071Y-167732142D01*
X206381500Y-167789285D01*
X206352928Y-167903571D01*
X206352928Y-167989285D01*
X206381500Y-168103571D01*
X206410071Y-168160714D01*
X206467214Y-168217857D01*
X206552928Y-168246428D01*
X206695785Y-168246428D01*
X206124357Y-168075000D02*
X205838642Y-168075000D01*
X206181500Y-168246428D02*
X205981500Y-167646428D01*
X205781500Y-168246428D01*
X205238642Y-168189285D02*
X205267214Y-168217857D01*
X205352928Y-168246428D01*
X205410071Y-168246428D01*
X205495785Y-168217857D01*
X205552928Y-168160714D01*
X205581500Y-168103571D01*
X205610071Y-167989285D01*
X205610071Y-167903571D01*
X205581500Y-167789285D01*
X205552928Y-167732142D01*
X205495785Y-167675000D01*
X205410071Y-167646428D01*
X205352928Y-167646428D01*
X205267214Y-167675000D01*
X205238642Y-167703571D01*
X200775285Y-169771428D02*
X201061000Y-169771428D01*
X201061000Y-169171428D01*
X200232428Y-169771428D02*
X200432428Y-169485714D01*
X200575285Y-169771428D02*
X200575285Y-169171428D01*
X200346714Y-169171428D01*
X200289571Y-169200000D01*
X200261000Y-169228571D01*
X200232428Y-169285714D01*
X200232428Y-169371428D01*
X200261000Y-169428571D01*
X200289571Y-169457142D01*
X200346714Y-169485714D01*
X200575285Y-169485714D01*
X201464285Y-170792857D02*
X201378571Y-170821428D01*
X201235714Y-170821428D01*
X201178571Y-170792857D01*
X201150000Y-170764285D01*
X201121428Y-170707142D01*
X201121428Y-170650000D01*
X201150000Y-170592857D01*
X201178571Y-170564285D01*
X201235714Y-170535714D01*
X201350000Y-170507142D01*
X201407142Y-170478571D01*
X201435714Y-170450000D01*
X201464285Y-170392857D01*
X201464285Y-170335714D01*
X201435714Y-170278571D01*
X201407142Y-170250000D01*
X201350000Y-170221428D01*
X201207142Y-170221428D01*
X201121428Y-170250000D01*
X200521428Y-170764285D02*
X200550000Y-170792857D01*
X200635714Y-170821428D01*
X200692857Y-170821428D01*
X200778571Y-170792857D01*
X200835714Y-170735714D01*
X200864285Y-170678571D01*
X200892857Y-170564285D01*
X200892857Y-170478571D01*
X200864285Y-170364285D01*
X200835714Y-170307142D01*
X200778571Y-170250000D01*
X200692857Y-170221428D01*
X200635714Y-170221428D01*
X200550000Y-170250000D01*
X200521428Y-170278571D01*
X199978571Y-170821428D02*
X200264285Y-170821428D01*
X200264285Y-170221428D01*
D12*
X216462000Y-164973500D02*
X216462000Y-189973500D01*
X216462000Y-164973500D02*
G75*
G03X214962000Y-163473500I-1500000J0D01*
G01*
X158462000Y-189973500D02*
G75*
G03X159962000Y-191473500I1500000J0D01*
G01*
X214962000Y-191473500D02*
X159962000Y-191473500D01*
X214962000Y-191473500D02*
G75*
G03X216462000Y-189973500I0J1500000D01*
G01*
X159962000Y-163473500D02*
G75*
G03X158462000Y-164973500I0J-1500000D01*
G01*
X159962000Y-163473500D02*
X214962000Y-163473500D01*
X158462000Y-189973500D02*
X158462000Y-164973500D01*
D13*
G36*
X171402624Y-188960961D02*
G01*
X171340971Y-188961872D01*
X171288688Y-188963389D01*
X171249502Y-188965398D01*
X171227134Y-188967787D01*
X171225299Y-188968215D01*
X171188896Y-188986281D01*
X171150487Y-189017930D01*
X171116396Y-189057283D01*
X171098694Y-189085863D01*
X171092780Y-189098333D01*
X171088035Y-189111668D01*
X171084332Y-189128221D01*
X171081545Y-189150346D01*
X171079547Y-189180397D01*
X171078213Y-189220726D01*
X171077414Y-189273687D01*
X171077025Y-189341635D01*
X171076918Y-189426922D01*
X171076939Y-189490200D01*
X171076992Y-189589614D01*
X171077247Y-189670256D01*
X171078053Y-189734523D01*
X171079753Y-189784808D01*
X171082696Y-189823507D01*
X171087227Y-189853016D01*
X171093693Y-189875728D01*
X171102439Y-189894039D01*
X171113813Y-189910344D01*
X171128160Y-189927038D01*
X171142366Y-189942674D01*
X171162941Y-189963848D01*
X171183396Y-189979757D01*
X171207137Y-189991198D01*
X171237573Y-189998969D01*
X171278113Y-190003870D01*
X171332164Y-190006698D01*
X171403135Y-190008250D01*
X171423542Y-190008528D01*
X171487901Y-190009055D01*
X171547569Y-190009006D01*
X171598230Y-190008427D01*
X171635569Y-190007361D01*
X171653165Y-190006161D01*
X171690227Y-189994197D01*
X171723651Y-189965644D01*
X171724602Y-189964568D01*
X171756917Y-189927763D01*
X171756917Y-189484250D01*
X171651084Y-189484250D01*
X171650936Y-189593526D01*
X171650459Y-189683238D01*
X171649602Y-189754988D01*
X171648314Y-189810376D01*
X171646544Y-189851003D01*
X171644241Y-189878471D01*
X171641354Y-189894380D01*
X171637855Y-189900324D01*
X171623211Y-189902180D01*
X171591293Y-189903862D01*
X171545994Y-189905240D01*
X171491207Y-189906183D01*
X171453251Y-189906497D01*
X171387911Y-189906573D01*
X171339990Y-189905820D01*
X171305748Y-189903869D01*
X171281442Y-189900351D01*
X171263330Y-189894897D01*
X171247672Y-189887139D01*
X171245778Y-189886034D01*
X171226401Y-189873617D01*
X171210839Y-189860092D01*
X171198706Y-189843139D01*
X171189614Y-189820442D01*
X171183178Y-189789683D01*
X171179011Y-189748545D01*
X171176726Y-189694710D01*
X171175937Y-189625860D01*
X171176256Y-189539679D01*
X171176879Y-189473002D01*
X171177999Y-189368818D01*
X171179833Y-189283838D01*
X171183667Y-189216108D01*
X171190787Y-189163672D01*
X171202480Y-189124576D01*
X171220029Y-189096864D01*
X171244723Y-189078583D01*
X171277846Y-189067777D01*
X171320685Y-189062492D01*
X171374525Y-189060772D01*
X171440652Y-189060664D01*
X171448122Y-189060666D01*
X171506929Y-189061053D01*
X171559043Y-189062122D01*
X171600442Y-189063733D01*
X171627103Y-189065748D01*
X171634343Y-189067090D01*
X171638621Y-189070579D01*
X171642112Y-189078737D01*
X171644894Y-189093505D01*
X171647045Y-189116826D01*
X171648644Y-189150640D01*
X171649767Y-189196890D01*
X171650494Y-189257518D01*
X171650901Y-189334466D01*
X171651067Y-189429676D01*
X171651084Y-189484250D01*
X171756917Y-189484250D01*
X171756917Y-189039189D01*
X171721280Y-189000302D01*
X171685644Y-188961416D01*
X171469926Y-188960770D01*
X171402624Y-188960961D01*
X171402624Y-188960961D01*
G37*
X171402624Y-188960961D02*
X171340971Y-188961872D01*
X171288688Y-188963389D01*
X171249502Y-188965398D01*
X171227134Y-188967787D01*
X171225299Y-188968215D01*
X171188896Y-188986281D01*
X171150487Y-189017930D01*
X171116396Y-189057283D01*
X171098694Y-189085863D01*
X171092780Y-189098333D01*
X171088035Y-189111668D01*
X171084332Y-189128221D01*
X171081545Y-189150346D01*
X171079547Y-189180397D01*
X171078213Y-189220726D01*
X171077414Y-189273687D01*
X171077025Y-189341635D01*
X171076918Y-189426922D01*
X171076939Y-189490200D01*
X171076992Y-189589614D01*
X171077247Y-189670256D01*
X171078053Y-189734523D01*
X171079753Y-189784808D01*
X171082696Y-189823507D01*
X171087227Y-189853016D01*
X171093693Y-189875728D01*
X171102439Y-189894039D01*
X171113813Y-189910344D01*
X171128160Y-189927038D01*
X171142366Y-189942674D01*
X171162941Y-189963848D01*
X171183396Y-189979757D01*
X171207137Y-189991198D01*
X171237573Y-189998969D01*
X171278113Y-190003870D01*
X171332164Y-190006698D01*
X171403135Y-190008250D01*
X171423542Y-190008528D01*
X171487901Y-190009055D01*
X171547569Y-190009006D01*
X171598230Y-190008427D01*
X171635569Y-190007361D01*
X171653165Y-190006161D01*
X171690227Y-189994197D01*
X171723651Y-189965644D01*
X171724602Y-189964568D01*
X171756917Y-189927763D01*
X171756917Y-189484250D01*
X171651084Y-189484250D01*
X171650936Y-189593526D01*
X171650459Y-189683238D01*
X171649602Y-189754988D01*
X171648314Y-189810376D01*
X171646544Y-189851003D01*
X171644241Y-189878471D01*
X171641354Y-189894380D01*
X171637855Y-189900324D01*
X171623211Y-189902180D01*
X171591293Y-189903862D01*
X171545994Y-189905240D01*
X171491207Y-189906183D01*
X171453251Y-189906497D01*
X171387911Y-189906573D01*
X171339990Y-189905820D01*
X171305748Y-189903869D01*
X171281442Y-189900351D01*
X171263330Y-189894897D01*
X171247672Y-189887139D01*
X171245778Y-189886034D01*
X171226401Y-189873617D01*
X171210839Y-189860092D01*
X171198706Y-189843139D01*
X171189614Y-189820442D01*
X171183178Y-189789683D01*
X171179011Y-189748545D01*
X171176726Y-189694710D01*
X171175937Y-189625860D01*
X171176256Y-189539679D01*
X171176879Y-189473002D01*
X171177999Y-189368818D01*
X171179833Y-189283838D01*
X171183667Y-189216108D01*
X171190787Y-189163672D01*
X171202480Y-189124576D01*
X171220029Y-189096864D01*
X171244723Y-189078583D01*
X171277846Y-189067777D01*
X171320685Y-189062492D01*
X171374525Y-189060772D01*
X171440652Y-189060664D01*
X171448122Y-189060666D01*
X171506929Y-189061053D01*
X171559043Y-189062122D01*
X171600442Y-189063733D01*
X171627103Y-189065748D01*
X171634343Y-189067090D01*
X171638621Y-189070579D01*
X171642112Y-189078737D01*
X171644894Y-189093505D01*
X171647045Y-189116826D01*
X171648644Y-189150640D01*
X171649767Y-189196890D01*
X171650494Y-189257518D01*
X171650901Y-189334466D01*
X171651067Y-189429676D01*
X171651084Y-189484250D01*
X171756917Y-189484250D01*
X171756917Y-189039189D01*
X171721280Y-189000302D01*
X171685644Y-188961416D01*
X171469926Y-188960770D01*
X171402624Y-188960961D01*
G36*
X168291421Y-188140084D02*
G01*
X168231124Y-188140704D01*
X168186725Y-188141952D01*
X168155591Y-188144007D01*
X168135089Y-188147042D01*
X168122585Y-188151236D01*
X168115446Y-188156763D01*
X168115254Y-188156992D01*
X168109525Y-188174794D01*
X168105494Y-188209462D01*
X168103075Y-188256773D01*
X168102182Y-188312502D01*
X168102728Y-188372424D01*
X168104627Y-188432315D01*
X168107794Y-188487950D01*
X168112142Y-188535106D01*
X168117585Y-188569556D01*
X168124022Y-188587062D01*
X168131512Y-188593271D01*
X168143159Y-188597930D01*
X168161782Y-188601258D01*
X168190205Y-188603470D01*
X168231246Y-188604783D01*
X168287728Y-188605415D01*
X168362472Y-188605583D01*
X168364959Y-188605583D01*
X168439512Y-188605488D01*
X168495801Y-188605028D01*
X168536728Y-188603939D01*
X168565197Y-188601956D01*
X168584109Y-188598814D01*
X168596366Y-188594251D01*
X168604872Y-188588002D01*
X168609381Y-188583334D01*
X168616602Y-188573471D01*
X168621995Y-188559980D01*
X168625901Y-188539700D01*
X168628661Y-188509473D01*
X168630616Y-188466138D01*
X168632105Y-188406537D01*
X168632851Y-188365613D01*
X168633664Y-188287630D01*
X168633066Y-188229109D01*
X168630986Y-188188387D01*
X168627349Y-188163803D01*
X168623617Y-188155028D01*
X168615838Y-188149996D01*
X168600303Y-188146167D01*
X168574568Y-188143395D01*
X168536189Y-188141535D01*
X168482721Y-188140441D01*
X168411719Y-188139966D01*
X168370250Y-188139916D01*
X168291421Y-188140084D01*
X168291421Y-188140084D01*
G37*
X168291421Y-188140084D02*
X168231124Y-188140704D01*
X168186725Y-188141952D01*
X168155591Y-188144007D01*
X168135089Y-188147042D01*
X168122585Y-188151236D01*
X168115446Y-188156763D01*
X168115254Y-188156992D01*
X168109525Y-188174794D01*
X168105494Y-188209462D01*
X168103075Y-188256773D01*
X168102182Y-188312502D01*
X168102728Y-188372424D01*
X168104627Y-188432315D01*
X168107794Y-188487950D01*
X168112142Y-188535106D01*
X168117585Y-188569556D01*
X168124022Y-188587062D01*
X168131512Y-188593271D01*
X168143159Y-188597930D01*
X168161782Y-188601258D01*
X168190205Y-188603470D01*
X168231246Y-188604783D01*
X168287728Y-188605415D01*
X168362472Y-188605583D01*
X168364959Y-188605583D01*
X168439512Y-188605488D01*
X168495801Y-188605028D01*
X168536728Y-188603939D01*
X168565197Y-188601956D01*
X168584109Y-188598814D01*
X168596366Y-188594251D01*
X168604872Y-188588002D01*
X168609381Y-188583334D01*
X168616602Y-188573471D01*
X168621995Y-188559980D01*
X168625901Y-188539700D01*
X168628661Y-188509473D01*
X168630616Y-188466138D01*
X168632105Y-188406537D01*
X168632851Y-188365613D01*
X168633664Y-188287630D01*
X168633066Y-188229109D01*
X168630986Y-188188387D01*
X168627349Y-188163803D01*
X168623617Y-188155028D01*
X168615838Y-188149996D01*
X168600303Y-188146167D01*
X168574568Y-188143395D01*
X168536189Y-188141535D01*
X168482721Y-188140441D01*
X168411719Y-188139966D01*
X168370250Y-188139916D01*
X168291421Y-188140084D01*
G36*
X172615174Y-188118828D02*
G01*
X172555219Y-188119216D01*
X172510924Y-188120146D01*
X172479536Y-188121849D01*
X172458301Y-188124554D01*
X172444466Y-188128495D01*
X172435277Y-188133901D01*
X172427982Y-188141003D01*
X172427953Y-188141036D01*
X172421028Y-188150112D01*
X172415984Y-188161828D01*
X172412602Y-188179245D01*
X172410660Y-188205424D01*
X172409937Y-188243425D01*
X172410212Y-188296310D01*
X172411264Y-188367140D01*
X172411333Y-188371223D01*
X172412255Y-188449388D01*
X172413645Y-188509849D01*
X172417926Y-188554863D01*
X172427520Y-188586686D01*
X172444848Y-188607574D01*
X172472332Y-188619783D01*
X172512395Y-188625571D01*
X172567458Y-188627192D01*
X172639944Y-188626905D01*
X172685618Y-188626750D01*
X172912129Y-188626750D01*
X172943065Y-188595814D01*
X172974000Y-188564878D01*
X172976395Y-188407959D01*
X172977535Y-188330055D01*
X172978143Y-188270516D01*
X172978081Y-188245750D01*
X172847000Y-188245750D01*
X172847000Y-188499750D01*
X172529500Y-188499750D01*
X172529500Y-188245750D01*
X172847000Y-188245750D01*
X172978081Y-188245750D01*
X172978032Y-188226540D01*
X172977014Y-188195330D01*
X172974903Y-188174085D01*
X172971511Y-188160006D01*
X172966651Y-188150293D01*
X172960135Y-188142147D01*
X172958491Y-188140320D01*
X172951262Y-188133432D01*
X172941837Y-188128189D01*
X172927468Y-188124366D01*
X172905411Y-188121742D01*
X172872921Y-188120091D01*
X172827250Y-188119192D01*
X172765655Y-188118819D01*
X172693542Y-188118750D01*
X172615174Y-188118828D01*
X172615174Y-188118828D01*
G37*
X172615174Y-188118828D02*
X172555219Y-188119216D01*
X172510924Y-188120146D01*
X172479536Y-188121849D01*
X172458301Y-188124554D01*
X172444466Y-188128495D01*
X172435277Y-188133901D01*
X172427982Y-188141003D01*
X172427953Y-188141036D01*
X172421028Y-188150112D01*
X172415984Y-188161828D01*
X172412602Y-188179245D01*
X172410660Y-188205424D01*
X172409937Y-188243425D01*
X172410212Y-188296310D01*
X172411264Y-188367140D01*
X172411333Y-188371223D01*
X172412255Y-188449388D01*
X172413645Y-188509849D01*
X172417926Y-188554863D01*
X172427520Y-188586686D01*
X172444848Y-188607574D01*
X172472332Y-188619783D01*
X172512395Y-188625571D01*
X172567458Y-188627192D01*
X172639944Y-188626905D01*
X172685618Y-188626750D01*
X172912129Y-188626750D01*
X172943065Y-188595814D01*
X172974000Y-188564878D01*
X172976395Y-188407959D01*
X172977535Y-188330055D01*
X172978143Y-188270516D01*
X172978081Y-188245750D01*
X172847000Y-188245750D01*
X172847000Y-188499750D01*
X172529500Y-188499750D01*
X172529500Y-188245750D01*
X172847000Y-188245750D01*
X172978081Y-188245750D01*
X172978032Y-188226540D01*
X172977014Y-188195330D01*
X172974903Y-188174085D01*
X172971511Y-188160006D01*
X172966651Y-188150293D01*
X172960135Y-188142147D01*
X172958491Y-188140320D01*
X172951262Y-188133432D01*
X172941837Y-188128189D01*
X172927468Y-188124366D01*
X172905411Y-188121742D01*
X172872921Y-188120091D01*
X172827250Y-188119192D01*
X172765655Y-188118819D01*
X172693542Y-188118750D01*
X172615174Y-188118828D01*
G36*
X165862877Y-189684807D02*
G01*
X165799190Y-189685083D01*
X165714881Y-189685495D01*
X165650195Y-189686785D01*
X165603600Y-189689034D01*
X165573566Y-189692321D01*
X165558565Y-189696727D01*
X165557200Y-189697783D01*
X165552795Y-189712565D01*
X165549257Y-189744706D01*
X165546585Y-189790417D01*
X165544781Y-189845909D01*
X165543844Y-189907393D01*
X165543773Y-189971078D01*
X165544570Y-190033176D01*
X165546234Y-190089898D01*
X165548765Y-190137452D01*
X165552162Y-190172052D01*
X165556427Y-190189906D01*
X165557200Y-190190966D01*
X165569152Y-190195560D01*
X165595681Y-190199045D01*
X165638322Y-190201500D01*
X165698611Y-190203004D01*
X165778083Y-190203635D01*
X165804269Y-190203666D01*
X165880799Y-190203565D01*
X165938978Y-190203106D01*
X165981621Y-190202053D01*
X166011542Y-190200170D01*
X166031558Y-190197223D01*
X166044484Y-190192975D01*
X166053133Y-190187190D01*
X166057835Y-190182452D01*
X166064362Y-190173360D01*
X166069263Y-190160532D01*
X166072785Y-190141031D01*
X166075174Y-190111921D01*
X166076678Y-190070266D01*
X166077544Y-190013130D01*
X166077996Y-189943013D01*
X166078794Y-189865290D01*
X166078862Y-189804864D01*
X166075868Y-189759575D01*
X166067477Y-189727264D01*
X166051355Y-189705772D01*
X166025168Y-189692940D01*
X165986582Y-189686607D01*
X165933263Y-189684616D01*
X165862877Y-189684807D01*
X165862877Y-189684807D01*
G37*
X165862877Y-189684807D02*
X165799190Y-189685083D01*
X165714881Y-189685495D01*
X165650195Y-189686785D01*
X165603600Y-189689034D01*
X165573566Y-189692321D01*
X165558565Y-189696727D01*
X165557200Y-189697783D01*
X165552795Y-189712565D01*
X165549257Y-189744706D01*
X165546585Y-189790417D01*
X165544781Y-189845909D01*
X165543844Y-189907393D01*
X165543773Y-189971078D01*
X165544570Y-190033176D01*
X165546234Y-190089898D01*
X165548765Y-190137452D01*
X165552162Y-190172052D01*
X165556427Y-190189906D01*
X165557200Y-190190966D01*
X165569152Y-190195560D01*
X165595681Y-190199045D01*
X165638322Y-190201500D01*
X165698611Y-190203004D01*
X165778083Y-190203635D01*
X165804269Y-190203666D01*
X165880799Y-190203565D01*
X165938978Y-190203106D01*
X165981621Y-190202053D01*
X166011542Y-190200170D01*
X166031558Y-190197223D01*
X166044484Y-190192975D01*
X166053133Y-190187190D01*
X166057835Y-190182452D01*
X166064362Y-190173360D01*
X166069263Y-190160532D01*
X166072785Y-190141031D01*
X166075174Y-190111921D01*
X166076678Y-190070266D01*
X166077544Y-190013130D01*
X166077996Y-189943013D01*
X166078794Y-189865290D01*
X166078862Y-189804864D01*
X166075868Y-189759575D01*
X166067477Y-189727264D01*
X166051355Y-189705772D01*
X166025168Y-189692940D01*
X165986582Y-189686607D01*
X165933263Y-189684616D01*
X165862877Y-189684807D01*
G36*
X168288386Y-188764476D02*
G01*
X168231955Y-188765058D01*
X168190964Y-188766310D01*
X168162552Y-188768464D01*
X168143854Y-188771750D01*
X168132010Y-188776399D01*
X168124155Y-188782641D01*
X168123182Y-188783687D01*
X168119646Y-188789030D01*
X168116616Y-188797685D01*
X168114054Y-188811198D01*
X168111920Y-188831112D01*
X168110178Y-188858972D01*
X168108787Y-188896324D01*
X168107710Y-188944711D01*
X168106907Y-189005678D01*
X168106342Y-189080769D01*
X168105974Y-189171531D01*
X168105765Y-189279506D01*
X168105678Y-189406239D01*
X168105667Y-189485838D01*
X168105691Y-189623071D01*
X168105793Y-189740694D01*
X168106014Y-189840263D01*
X168106398Y-189923336D01*
X168106989Y-189991468D01*
X168107829Y-190046217D01*
X168108961Y-190089139D01*
X168110428Y-190121791D01*
X168112273Y-190145728D01*
X168114540Y-190162509D01*
X168117270Y-190173690D01*
X168120508Y-190180826D01*
X168124297Y-190185475D01*
X168125021Y-190186151D01*
X168142976Y-190192770D01*
X168178049Y-190198032D01*
X168226236Y-190201929D01*
X168283530Y-190204451D01*
X168345927Y-190205590D01*
X168409421Y-190205337D01*
X168470007Y-190203683D01*
X168523679Y-190200620D01*
X168566433Y-190196139D01*
X168594264Y-190190231D01*
X168600729Y-190187191D01*
X168624250Y-190170716D01*
X168624250Y-189485040D01*
X168624226Y-189347498D01*
X168624126Y-189229570D01*
X168623906Y-189129702D01*
X168623524Y-189046341D01*
X168622937Y-188977934D01*
X168622102Y-188922928D01*
X168620977Y-188879769D01*
X168619520Y-188846905D01*
X168617686Y-188822782D01*
X168615433Y-188805846D01*
X168612720Y-188794546D01*
X168609502Y-188787327D01*
X168605737Y-188782636D01*
X168604896Y-188781848D01*
X168595880Y-188775905D01*
X168581877Y-188771450D01*
X168560056Y-188768281D01*
X168527590Y-188766190D01*
X168481648Y-188764974D01*
X168419402Y-188764427D01*
X168363120Y-188764333D01*
X168288386Y-188764476D01*
X168288386Y-188764476D01*
G37*
X168288386Y-188764476D02*
X168231955Y-188765058D01*
X168190964Y-188766310D01*
X168162552Y-188768464D01*
X168143854Y-188771750D01*
X168132010Y-188776399D01*
X168124155Y-188782641D01*
X168123182Y-188783687D01*
X168119646Y-188789030D01*
X168116616Y-188797685D01*
X168114054Y-188811198D01*
X168111920Y-188831112D01*
X168110178Y-188858972D01*
X168108787Y-188896324D01*
X168107710Y-188944711D01*
X168106907Y-189005678D01*
X168106342Y-189080769D01*
X168105974Y-189171531D01*
X168105765Y-189279506D01*
X168105678Y-189406239D01*
X168105667Y-189485838D01*
X168105691Y-189623071D01*
X168105793Y-189740694D01*
X168106014Y-189840263D01*
X168106398Y-189923336D01*
X168106989Y-189991468D01*
X168107829Y-190046217D01*
X168108961Y-190089139D01*
X168110428Y-190121791D01*
X168112273Y-190145728D01*
X168114540Y-190162509D01*
X168117270Y-190173690D01*
X168120508Y-190180826D01*
X168124297Y-190185475D01*
X168125021Y-190186151D01*
X168142976Y-190192770D01*
X168178049Y-190198032D01*
X168226236Y-190201929D01*
X168283530Y-190204451D01*
X168345927Y-190205590D01*
X168409421Y-190205337D01*
X168470007Y-190203683D01*
X168523679Y-190200620D01*
X168566433Y-190196139D01*
X168594264Y-190190231D01*
X168600729Y-190187191D01*
X168624250Y-190170716D01*
X168624250Y-189485040D01*
X168624226Y-189347498D01*
X168624126Y-189229570D01*
X168623906Y-189129702D01*
X168623524Y-189046341D01*
X168622937Y-188977934D01*
X168622102Y-188922928D01*
X168620977Y-188879769D01*
X168619520Y-188846905D01*
X168617686Y-188822782D01*
X168615433Y-188805846D01*
X168612720Y-188794546D01*
X168609502Y-188787327D01*
X168605737Y-188782636D01*
X168604896Y-188781848D01*
X168595880Y-188775905D01*
X168581877Y-188771450D01*
X168560056Y-188768281D01*
X168527590Y-188766190D01*
X168481648Y-188764974D01*
X168419402Y-188764427D01*
X168363120Y-188764333D01*
X168288386Y-188764476D01*
G36*
X172613324Y-188743230D02*
G01*
X172556254Y-188743607D01*
X172514566Y-188744579D01*
X172485368Y-188746425D01*
X172465766Y-188749427D01*
X172452868Y-188753865D01*
X172443783Y-188760019D01*
X172436095Y-188767661D01*
X172413084Y-188792155D01*
X172413084Y-189485687D01*
X172413096Y-189623786D01*
X172413162Y-189742272D01*
X172413331Y-189842696D01*
X172413648Y-189926612D01*
X172414163Y-189995573D01*
X172414921Y-190051131D01*
X172415971Y-190094840D01*
X172417358Y-190128251D01*
X172419132Y-190152919D01*
X172421338Y-190170395D01*
X172424024Y-190182233D01*
X172427237Y-190189986D01*
X172431025Y-190195205D01*
X172434783Y-190198857D01*
X172443625Y-190205367D01*
X172455742Y-190210280D01*
X172474001Y-190213828D01*
X172501270Y-190216240D01*
X172540418Y-190217747D01*
X172594311Y-190218579D01*
X172665817Y-190218966D01*
X172685825Y-190219018D01*
X172761181Y-190219122D01*
X172818342Y-190218857D01*
X172860277Y-190217947D01*
X172889959Y-190216112D01*
X172910356Y-190213075D01*
X172924442Y-190208558D01*
X172935185Y-190202281D01*
X172944584Y-190194788D01*
X172974000Y-190170035D01*
X172974000Y-188870166D01*
X172847000Y-188870166D01*
X172847000Y-190097833D01*
X172529500Y-190097833D01*
X172529500Y-188870166D01*
X172847000Y-188870166D01*
X172974000Y-188870166D01*
X172974000Y-188787036D01*
X172946115Y-188765101D01*
X172935784Y-188757872D01*
X172923681Y-188752431D01*
X172906847Y-188748523D01*
X172882323Y-188745898D01*
X172847148Y-188744303D01*
X172798363Y-188743485D01*
X172733008Y-188743194D01*
X172688668Y-188743166D01*
X172613324Y-188743230D01*
X172613324Y-188743230D01*
G37*
X172613324Y-188743230D02*
X172556254Y-188743607D01*
X172514566Y-188744579D01*
X172485368Y-188746425D01*
X172465766Y-188749427D01*
X172452868Y-188753865D01*
X172443783Y-188760019D01*
X172436095Y-188767661D01*
X172413084Y-188792155D01*
X172413084Y-189485687D01*
X172413096Y-189623786D01*
X172413162Y-189742272D01*
X172413331Y-189842696D01*
X172413648Y-189926612D01*
X172414163Y-189995573D01*
X172414921Y-190051131D01*
X172415971Y-190094840D01*
X172417358Y-190128251D01*
X172419132Y-190152919D01*
X172421338Y-190170395D01*
X172424024Y-190182233D01*
X172427237Y-190189986D01*
X172431025Y-190195205D01*
X172434783Y-190198857D01*
X172443625Y-190205367D01*
X172455742Y-190210280D01*
X172474001Y-190213828D01*
X172501270Y-190216240D01*
X172540418Y-190217747D01*
X172594311Y-190218579D01*
X172665817Y-190218966D01*
X172685825Y-190219018D01*
X172761181Y-190219122D01*
X172818342Y-190218857D01*
X172860277Y-190217947D01*
X172889959Y-190216112D01*
X172910356Y-190213075D01*
X172924442Y-190208558D01*
X172935185Y-190202281D01*
X172944584Y-190194788D01*
X172974000Y-190170035D01*
X172974000Y-188870166D01*
X172847000Y-188870166D01*
X172847000Y-190097833D01*
X172529500Y-190097833D01*
X172529500Y-188870166D01*
X172847000Y-188870166D01*
X172974000Y-188870166D01*
X172974000Y-188787036D01*
X172946115Y-188765101D01*
X172935784Y-188757872D01*
X172923681Y-188752431D01*
X172906847Y-188748523D01*
X172882323Y-188745898D01*
X172847148Y-188744303D01*
X172798363Y-188743485D01*
X172733008Y-188743194D01*
X172688668Y-188743166D01*
X172613324Y-188743230D01*
G36*
X174391661Y-188118829D02*
G01*
X174332019Y-188119223D01*
X174288014Y-188120165D01*
X174256879Y-188121889D01*
X174235849Y-188124629D01*
X174222158Y-188128617D01*
X174213042Y-188134089D01*
X174205953Y-188141035D01*
X174199853Y-188148915D01*
X174195181Y-188159109D01*
X174191795Y-188174203D01*
X174189554Y-188196784D01*
X174188314Y-188229436D01*
X174187935Y-188274747D01*
X174188274Y-188335302D01*
X174189189Y-188413687D01*
X174189541Y-188440015D01*
X174193289Y-188716708D01*
X173961999Y-188717417D01*
X173830709Y-188719633D01*
X173713570Y-188725332D01*
X173612031Y-188734358D01*
X173527541Y-188746559D01*
X173461548Y-188761779D01*
X173426376Y-188774487D01*
X173373955Y-188806172D01*
X173320955Y-188852139D01*
X173273195Y-188906494D01*
X173236489Y-188963341D01*
X173232783Y-188970708D01*
X173202001Y-189034208D01*
X173198476Y-189606125D01*
X173197721Y-189730588D01*
X173197153Y-189835606D01*
X173196827Y-189922900D01*
X173196798Y-189994191D01*
X173197120Y-190051202D01*
X173197847Y-190095652D01*
X173199035Y-190129263D01*
X173200737Y-190153756D01*
X173203009Y-190170853D01*
X173205904Y-190182275D01*
X173209478Y-190189743D01*
X173213785Y-190194979D01*
X173217240Y-190198214D01*
X173226136Y-190204890D01*
X173238014Y-190209940D01*
X173255753Y-190213606D01*
X173282230Y-190216130D01*
X173320325Y-190217754D01*
X173372913Y-190218720D01*
X173442875Y-190219270D01*
X173469244Y-190219397D01*
X173698959Y-190220408D01*
X173757167Y-190167956D01*
X173757167Y-189673377D01*
X173757178Y-189554169D01*
X173757343Y-189454255D01*
X173757859Y-189371761D01*
X173758923Y-189304816D01*
X173760731Y-189251546D01*
X173763481Y-189210079D01*
X173767371Y-189178540D01*
X173772596Y-189155059D01*
X173779354Y-189137761D01*
X173787843Y-189124775D01*
X173798258Y-189114226D01*
X173810798Y-189104243D01*
X173817584Y-189099136D01*
X173829877Y-189091598D01*
X173845884Y-189086294D01*
X173869194Y-189082871D01*
X173903393Y-189080974D01*
X173952068Y-189080249D01*
X174008474Y-189080294D01*
X174076653Y-189081099D01*
X174125958Y-189082965D01*
X174158665Y-189086081D01*
X174177049Y-189090634D01*
X174182529Y-189094646D01*
X174184270Y-189107624D01*
X174185828Y-189139702D01*
X174187175Y-189188814D01*
X174188284Y-189252894D01*
X174189128Y-189329874D01*
X174189680Y-189417690D01*
X174189912Y-189514275D01*
X174189798Y-189617563D01*
X174189724Y-189640832D01*
X174189315Y-189760604D01*
X174189054Y-189861006D01*
X174189007Y-189943832D01*
X174189240Y-190010878D01*
X174189819Y-190063939D01*
X174190809Y-190104811D01*
X174192277Y-190135290D01*
X174194288Y-190157170D01*
X174196909Y-190172248D01*
X174200206Y-190182318D01*
X174204244Y-190189177D01*
X174209089Y-190194620D01*
X174210096Y-190195632D01*
X174218584Y-190203084D01*
X174229069Y-190208675D01*
X174244507Y-190212687D01*
X174267854Y-190215400D01*
X174302067Y-190217095D01*
X174350101Y-190218053D01*
X174414913Y-190218554D01*
X174453252Y-190218717D01*
X174520644Y-190218791D01*
X174581736Y-190218524D01*
X174633032Y-190217957D01*
X174671037Y-190217133D01*
X174692258Y-190216095D01*
X174694553Y-190215803D01*
X174719099Y-190205767D01*
X174733480Y-190195642D01*
X174736578Y-190191954D01*
X174739311Y-190185882D01*
X174741702Y-190176162D01*
X174743774Y-190161531D01*
X174745549Y-190140726D01*
X174747051Y-190112485D01*
X174748301Y-190075543D01*
X174749323Y-190028639D01*
X174750139Y-189970509D01*
X174750772Y-189899891D01*
X174751245Y-189815521D01*
X174751580Y-189716137D01*
X174751800Y-189600476D01*
X174751929Y-189467274D01*
X174751988Y-189315269D01*
X174752000Y-189166500D01*
X174751987Y-188997286D01*
X174751929Y-188847971D01*
X174751804Y-188717287D01*
X174751588Y-188603965D01*
X174751257Y-188506737D01*
X174750787Y-188424336D01*
X174750154Y-188355493D01*
X174749335Y-188298940D01*
X174748305Y-188253408D01*
X174748035Y-188245750D01*
X174635584Y-188245750D01*
X174635584Y-190097833D01*
X174307500Y-190097833D01*
X174307500Y-189039189D01*
X174236340Y-188961539D01*
X174025858Y-188960832D01*
X173959398Y-188961003D01*
X173898626Y-188961900D01*
X173847313Y-188963406D01*
X173809230Y-188965409D01*
X173788150Y-188967794D01*
X173787087Y-188968059D01*
X173748347Y-188987226D01*
X173707571Y-189021410D01*
X173670235Y-189065840D01*
X173663579Y-189075664D01*
X173635459Y-189118875D01*
X173628667Y-190097833D01*
X173310603Y-190097833D01*
X173314735Y-189597770D01*
X173318867Y-189097708D01*
X173352444Y-189030441D01*
X173374558Y-188987400D01*
X173392510Y-188958288D01*
X173411191Y-188937901D01*
X173435490Y-188921035D01*
X173470297Y-188902485D01*
X173474854Y-188900181D01*
X173506495Y-188885757D01*
X173539211Y-188874859D01*
X173578395Y-188866229D01*
X173629438Y-188858605D01*
X173676570Y-188853030D01*
X173817193Y-188840402D01*
X173945354Y-188835511D01*
X174068224Y-188838185D01*
X174129808Y-188842297D01*
X174243158Y-188851470D01*
X174307500Y-188787128D01*
X174307500Y-188245750D01*
X174635584Y-188245750D01*
X174748035Y-188245750D01*
X174747042Y-188217631D01*
X174745520Y-188190340D01*
X174743716Y-188170266D01*
X174741607Y-188156142D01*
X174739168Y-188146700D01*
X174736376Y-188140671D01*
X174733207Y-188136787D01*
X174732646Y-188136265D01*
X174724039Y-188130566D01*
X174710658Y-188126231D01*
X174689814Y-188123081D01*
X174658817Y-188120938D01*
X174614976Y-188119621D01*
X174555603Y-188118952D01*
X174478006Y-188118751D01*
X174469703Y-188118749D01*
X174391661Y-188118829D01*
X174391661Y-188118829D01*
G37*
X174391661Y-188118829D02*
X174332019Y-188119223D01*
X174288014Y-188120165D01*
X174256879Y-188121889D01*
X174235849Y-188124629D01*
X174222158Y-188128617D01*
X174213042Y-188134089D01*
X174205953Y-188141035D01*
X174199853Y-188148915D01*
X174195181Y-188159109D01*
X174191795Y-188174203D01*
X174189554Y-188196784D01*
X174188314Y-188229436D01*
X174187935Y-188274747D01*
X174188274Y-188335302D01*
X174189189Y-188413687D01*
X174189541Y-188440015D01*
X174193289Y-188716708D01*
X173961999Y-188717417D01*
X173830709Y-188719633D01*
X173713570Y-188725332D01*
X173612031Y-188734358D01*
X173527541Y-188746559D01*
X173461548Y-188761779D01*
X173426376Y-188774487D01*
X173373955Y-188806172D01*
X173320955Y-188852139D01*
X173273195Y-188906494D01*
X173236489Y-188963341D01*
X173232783Y-188970708D01*
X173202001Y-189034208D01*
X173198476Y-189606125D01*
X173197721Y-189730588D01*
X173197153Y-189835606D01*
X173196827Y-189922900D01*
X173196798Y-189994191D01*
X173197120Y-190051202D01*
X173197847Y-190095652D01*
X173199035Y-190129263D01*
X173200737Y-190153756D01*
X173203009Y-190170853D01*
X173205904Y-190182275D01*
X173209478Y-190189743D01*
X173213785Y-190194979D01*
X173217240Y-190198214D01*
X173226136Y-190204890D01*
X173238014Y-190209940D01*
X173255753Y-190213606D01*
X173282230Y-190216130D01*
X173320325Y-190217754D01*
X173372913Y-190218720D01*
X173442875Y-190219270D01*
X173469244Y-190219397D01*
X173698959Y-190220408D01*
X173757167Y-190167956D01*
X173757167Y-189673377D01*
X173757178Y-189554169D01*
X173757343Y-189454255D01*
X173757859Y-189371761D01*
X173758923Y-189304816D01*
X173760731Y-189251546D01*
X173763481Y-189210079D01*
X173767371Y-189178540D01*
X173772596Y-189155059D01*
X173779354Y-189137761D01*
X173787843Y-189124775D01*
X173798258Y-189114226D01*
X173810798Y-189104243D01*
X173817584Y-189099136D01*
X173829877Y-189091598D01*
X173845884Y-189086294D01*
X173869194Y-189082871D01*
X173903393Y-189080974D01*
X173952068Y-189080249D01*
X174008474Y-189080294D01*
X174076653Y-189081099D01*
X174125958Y-189082965D01*
X174158665Y-189086081D01*
X174177049Y-189090634D01*
X174182529Y-189094646D01*
X174184270Y-189107624D01*
X174185828Y-189139702D01*
X174187175Y-189188814D01*
X174188284Y-189252894D01*
X174189128Y-189329874D01*
X174189680Y-189417690D01*
X174189912Y-189514275D01*
X174189798Y-189617563D01*
X174189724Y-189640832D01*
X174189315Y-189760604D01*
X174189054Y-189861006D01*
X174189007Y-189943832D01*
X174189240Y-190010878D01*
X174189819Y-190063939D01*
X174190809Y-190104811D01*
X174192277Y-190135290D01*
X174194288Y-190157170D01*
X174196909Y-190172248D01*
X174200206Y-190182318D01*
X174204244Y-190189177D01*
X174209089Y-190194620D01*
X174210096Y-190195632D01*
X174218584Y-190203084D01*
X174229069Y-190208675D01*
X174244507Y-190212687D01*
X174267854Y-190215400D01*
X174302067Y-190217095D01*
X174350101Y-190218053D01*
X174414913Y-190218554D01*
X174453252Y-190218717D01*
X174520644Y-190218791D01*
X174581736Y-190218524D01*
X174633032Y-190217957D01*
X174671037Y-190217133D01*
X174692258Y-190216095D01*
X174694553Y-190215803D01*
X174719099Y-190205767D01*
X174733480Y-190195642D01*
X174736578Y-190191954D01*
X174739311Y-190185882D01*
X174741702Y-190176162D01*
X174743774Y-190161531D01*
X174745549Y-190140726D01*
X174747051Y-190112485D01*
X174748301Y-190075543D01*
X174749323Y-190028639D01*
X174750139Y-189970509D01*
X174750772Y-189899891D01*
X174751245Y-189815521D01*
X174751580Y-189716137D01*
X174751800Y-189600476D01*
X174751929Y-189467274D01*
X174751988Y-189315269D01*
X174752000Y-189166500D01*
X174751987Y-188997286D01*
X174751929Y-188847971D01*
X174751804Y-188717287D01*
X174751588Y-188603965D01*
X174751257Y-188506737D01*
X174750787Y-188424336D01*
X174750154Y-188355493D01*
X174749335Y-188298940D01*
X174748305Y-188253408D01*
X174748035Y-188245750D01*
X174635584Y-188245750D01*
X174635584Y-190097833D01*
X174307500Y-190097833D01*
X174307500Y-189039189D01*
X174236340Y-188961539D01*
X174025858Y-188960832D01*
X173959398Y-188961003D01*
X173898626Y-188961900D01*
X173847313Y-188963406D01*
X173809230Y-188965409D01*
X173788150Y-188967794D01*
X173787087Y-188968059D01*
X173748347Y-188987226D01*
X173707571Y-189021410D01*
X173670235Y-189065840D01*
X173663579Y-189075664D01*
X173635459Y-189118875D01*
X173628667Y-190097833D01*
X173310603Y-190097833D01*
X173314735Y-189597770D01*
X173318867Y-189097708D01*
X173352444Y-189030441D01*
X173374558Y-188987400D01*
X173392510Y-188958288D01*
X173411191Y-188937901D01*
X173435490Y-188921035D01*
X173470297Y-188902485D01*
X173474854Y-188900181D01*
X173506495Y-188885757D01*
X173539211Y-188874859D01*
X173578395Y-188866229D01*
X173629438Y-188858605D01*
X173676570Y-188853030D01*
X173817193Y-188840402D01*
X173945354Y-188835511D01*
X174068224Y-188838185D01*
X174129808Y-188842297D01*
X174243158Y-188851470D01*
X174307500Y-188787128D01*
X174307500Y-188245750D01*
X174635584Y-188245750D01*
X174748035Y-188245750D01*
X174747042Y-188217631D01*
X174745520Y-188190340D01*
X174743716Y-188170266D01*
X174741607Y-188156142D01*
X174739168Y-188146700D01*
X174736376Y-188140671D01*
X174733207Y-188136787D01*
X174732646Y-188136265D01*
X174724039Y-188130566D01*
X174710658Y-188126231D01*
X174689814Y-188123081D01*
X174658817Y-188120938D01*
X174614976Y-188119621D01*
X174555603Y-188118952D01*
X174478006Y-188118751D01*
X174469703Y-188118749D01*
X174391661Y-188118829D01*
G36*
X169063708Y-188140314D02*
G01*
X168998087Y-188141560D01*
X168950548Y-188143733D01*
X168919554Y-188146912D01*
X168903571Y-188151175D01*
X168901534Y-188152616D01*
X168899260Y-188159833D01*
X168897249Y-188177320D01*
X168895489Y-188206062D01*
X168893966Y-188247042D01*
X168892668Y-188301245D01*
X168891583Y-188369655D01*
X168890698Y-188453257D01*
X168890001Y-188553033D01*
X168889478Y-188669969D01*
X168889118Y-188805048D01*
X168888907Y-188959255D01*
X168888834Y-189133573D01*
X168888834Y-190128403D01*
X168912646Y-190155352D01*
X168923491Y-190165598D01*
X168937822Y-190174226D01*
X168958000Y-190181656D01*
X168986387Y-190188303D01*
X169025347Y-190194585D01*
X169077242Y-190200920D01*
X169144434Y-190207725D01*
X169229285Y-190215418D01*
X169275125Y-190219389D01*
X169421410Y-190228959D01*
X169572542Y-190233360D01*
X169722268Y-190232629D01*
X169864337Y-190226804D01*
X169992495Y-190215923D01*
X170000084Y-190215054D01*
X170066221Y-190206318D01*
X170122093Y-190196891D01*
X170164010Y-190187477D01*
X170187412Y-190179259D01*
X170214222Y-190167181D01*
X170234867Y-190161414D01*
X170236470Y-190161333D01*
X170253165Y-190153333D01*
X170277928Y-190132284D01*
X170306883Y-190102610D01*
X170336152Y-190068734D01*
X170361859Y-190035080D01*
X170380125Y-190006072D01*
X170386610Y-189990022D01*
X170394864Y-189961844D01*
X170404463Y-189942120D01*
X170404784Y-189941710D01*
X170411440Y-189922887D01*
X170417351Y-189885489D01*
X170422400Y-189832096D01*
X170426468Y-189765291D01*
X170429439Y-189687654D01*
X170431192Y-189601768D01*
X170431610Y-189510214D01*
X170431497Y-189499875D01*
X169899542Y-189499875D01*
X169898803Y-189599759D01*
X169896211Y-189680751D01*
X169891204Y-189745085D01*
X169883220Y-189794996D01*
X169871697Y-189832718D01*
X169856073Y-189860486D01*
X169835786Y-189880535D01*
X169810275Y-189895100D01*
X169799000Y-189899697D01*
X169783496Y-189901737D01*
X169750717Y-189903580D01*
X169704557Y-189905088D01*
X169648908Y-189906125D01*
X169606227Y-189906497D01*
X169540939Y-189906648D01*
X169493648Y-189906166D01*
X169461186Y-189904722D01*
X169440385Y-189901985D01*
X169428078Y-189897622D01*
X169421097Y-189891303D01*
X169418373Y-189886862D01*
X169416009Y-189872129D01*
X169413893Y-189839161D01*
X169412041Y-189790885D01*
X169410467Y-189730230D01*
X169409188Y-189660127D01*
X169408219Y-189583503D01*
X169407577Y-189503288D01*
X169407275Y-189422411D01*
X169407331Y-189343800D01*
X169407759Y-189270386D01*
X169408576Y-189205097D01*
X169409798Y-189150862D01*
X169411438Y-189110610D01*
X169413515Y-189087269D01*
X169414088Y-189084479D01*
X169416977Y-189075947D01*
X169422386Y-189069744D01*
X169433326Y-189065497D01*
X169452805Y-189062838D01*
X169483833Y-189061393D01*
X169529418Y-189060793D01*
X169592571Y-189060667D01*
X169607278Y-189060666D01*
X169674633Y-189060787D01*
X169724352Y-189061421D01*
X169759967Y-189062971D01*
X169785008Y-189065842D01*
X169803006Y-189070438D01*
X169817492Y-189077165D01*
X169831965Y-189086405D01*
X169851472Y-189101214D01*
X169864293Y-189117193D01*
X169873264Y-189140173D01*
X169881219Y-189175986D01*
X169884693Y-189194884D01*
X169891241Y-189246636D01*
X169895949Y-189317882D01*
X169898737Y-189407024D01*
X169899542Y-189499875D01*
X170431497Y-189499875D01*
X170430575Y-189415574D01*
X170430037Y-189390071D01*
X170428007Y-189308257D01*
X170425969Y-189244104D01*
X170423572Y-189194111D01*
X170420465Y-189154775D01*
X170416298Y-189122594D01*
X170410720Y-189094065D01*
X170403381Y-189065687D01*
X170394613Y-189036182D01*
X170378403Y-188986922D01*
X170363046Y-188951352D01*
X170344724Y-188922516D01*
X170319616Y-188893461D01*
X170311704Y-188885217D01*
X170271533Y-188847713D01*
X170230108Y-188818206D01*
X170183675Y-188795288D01*
X170128481Y-188777553D01*
X170060774Y-188763595D01*
X169976800Y-188752008D01*
X169947495Y-188748743D01*
X169776146Y-188735759D01*
X169602275Y-188733810D01*
X169592953Y-188733998D01*
X169412709Y-188737875D01*
X169412262Y-188455858D01*
X169411882Y-188365987D01*
X169410994Y-188295203D01*
X169409495Y-188241428D01*
X169407286Y-188202588D01*
X169404265Y-188176605D01*
X169400331Y-188161403D01*
X169397737Y-188156879D01*
X169390628Y-188151267D01*
X169378076Y-188147020D01*
X169357418Y-188143957D01*
X169325992Y-188141897D01*
X169281136Y-188140658D01*
X169220186Y-188140059D01*
X169148946Y-188139916D01*
X169063708Y-188140314D01*
X169063708Y-188140314D01*
G37*
X169063708Y-188140314D02*
X168998087Y-188141560D01*
X168950548Y-188143733D01*
X168919554Y-188146912D01*
X168903571Y-188151175D01*
X168901534Y-188152616D01*
X168899260Y-188159833D01*
X168897249Y-188177320D01*
X168895489Y-188206062D01*
X168893966Y-188247042D01*
X168892668Y-188301245D01*
X168891583Y-188369655D01*
X168890698Y-188453257D01*
X168890001Y-188553033D01*
X168889478Y-188669969D01*
X168889118Y-188805048D01*
X168888907Y-188959255D01*
X168888834Y-189133573D01*
X168888834Y-190128403D01*
X168912646Y-190155352D01*
X168923491Y-190165598D01*
X168937822Y-190174226D01*
X168958000Y-190181656D01*
X168986387Y-190188303D01*
X169025347Y-190194585D01*
X169077242Y-190200920D01*
X169144434Y-190207725D01*
X169229285Y-190215418D01*
X169275125Y-190219389D01*
X169421410Y-190228959D01*
X169572542Y-190233360D01*
X169722268Y-190232629D01*
X169864337Y-190226804D01*
X169992495Y-190215923D01*
X170000084Y-190215054D01*
X170066221Y-190206318D01*
X170122093Y-190196891D01*
X170164010Y-190187477D01*
X170187412Y-190179259D01*
X170214222Y-190167181D01*
X170234867Y-190161414D01*
X170236470Y-190161333D01*
X170253165Y-190153333D01*
X170277928Y-190132284D01*
X170306883Y-190102610D01*
X170336152Y-190068734D01*
X170361859Y-190035080D01*
X170380125Y-190006072D01*
X170386610Y-189990022D01*
X170394864Y-189961844D01*
X170404463Y-189942120D01*
X170404784Y-189941710D01*
X170411440Y-189922887D01*
X170417351Y-189885489D01*
X170422400Y-189832096D01*
X170426468Y-189765291D01*
X170429439Y-189687654D01*
X170431192Y-189601768D01*
X170431610Y-189510214D01*
X170431497Y-189499875D01*
X169899542Y-189499875D01*
X169898803Y-189599759D01*
X169896211Y-189680751D01*
X169891204Y-189745085D01*
X169883220Y-189794996D01*
X169871697Y-189832718D01*
X169856073Y-189860486D01*
X169835786Y-189880535D01*
X169810275Y-189895100D01*
X169799000Y-189899697D01*
X169783496Y-189901737D01*
X169750717Y-189903580D01*
X169704557Y-189905088D01*
X169648908Y-189906125D01*
X169606227Y-189906497D01*
X169540939Y-189906648D01*
X169493648Y-189906166D01*
X169461186Y-189904722D01*
X169440385Y-189901985D01*
X169428078Y-189897622D01*
X169421097Y-189891303D01*
X169418373Y-189886862D01*
X169416009Y-189872129D01*
X169413893Y-189839161D01*
X169412041Y-189790885D01*
X169410467Y-189730230D01*
X169409188Y-189660127D01*
X169408219Y-189583503D01*
X169407577Y-189503288D01*
X169407275Y-189422411D01*
X169407331Y-189343800D01*
X169407759Y-189270386D01*
X169408576Y-189205097D01*
X169409798Y-189150862D01*
X169411438Y-189110610D01*
X169413515Y-189087269D01*
X169414088Y-189084479D01*
X169416977Y-189075947D01*
X169422386Y-189069744D01*
X169433326Y-189065497D01*
X169452805Y-189062838D01*
X169483833Y-189061393D01*
X169529418Y-189060793D01*
X169592571Y-189060667D01*
X169607278Y-189060666D01*
X169674633Y-189060787D01*
X169724352Y-189061421D01*
X169759967Y-189062971D01*
X169785008Y-189065842D01*
X169803006Y-189070438D01*
X169817492Y-189077165D01*
X169831965Y-189086405D01*
X169851472Y-189101214D01*
X169864293Y-189117193D01*
X169873264Y-189140173D01*
X169881219Y-189175986D01*
X169884693Y-189194884D01*
X169891241Y-189246636D01*
X169895949Y-189317882D01*
X169898737Y-189407024D01*
X169899542Y-189499875D01*
X170431497Y-189499875D01*
X170430575Y-189415574D01*
X170430037Y-189390071D01*
X170428007Y-189308257D01*
X170425969Y-189244104D01*
X170423572Y-189194111D01*
X170420465Y-189154775D01*
X170416298Y-189122594D01*
X170410720Y-189094065D01*
X170403381Y-189065687D01*
X170394613Y-189036182D01*
X170378403Y-188986922D01*
X170363046Y-188951352D01*
X170344724Y-188922516D01*
X170319616Y-188893461D01*
X170311704Y-188885217D01*
X170271533Y-188847713D01*
X170230108Y-188818206D01*
X170183675Y-188795288D01*
X170128481Y-188777553D01*
X170060774Y-188763595D01*
X169976800Y-188752008D01*
X169947495Y-188748743D01*
X169776146Y-188735759D01*
X169602275Y-188733810D01*
X169592953Y-188733998D01*
X169412709Y-188737875D01*
X169412262Y-188455858D01*
X169411882Y-188365987D01*
X169410994Y-188295203D01*
X169409495Y-188241428D01*
X169407286Y-188202588D01*
X169404265Y-188176605D01*
X169400331Y-188161403D01*
X169397737Y-188156879D01*
X169390628Y-188151267D01*
X169378076Y-188147020D01*
X169357418Y-188143957D01*
X169325992Y-188141897D01*
X169281136Y-188140658D01*
X169220186Y-188140059D01*
X169148946Y-188139916D01*
X169063708Y-188140314D01*
G36*
X175520010Y-188714302D02*
G01*
X175395865Y-188722488D01*
X175349959Y-188727190D01*
X175291134Y-188733278D01*
X175233231Y-188738285D01*
X175182987Y-188741688D01*
X175147674Y-188742960D01*
X175071346Y-188747072D01*
X175008736Y-188758488D01*
X174962372Y-188776611D01*
X174942516Y-188791329D01*
X174931129Y-188803849D01*
X174923648Y-188817114D01*
X174919326Y-188835560D01*
X174917414Y-188863622D01*
X174917167Y-188905735D01*
X174917508Y-188939780D01*
X174919148Y-189002842D01*
X174923542Y-189047586D01*
X174932544Y-189076843D01*
X174948010Y-189093442D01*
X174971793Y-189100214D01*
X175005748Y-189099988D01*
X175021612Y-189098664D01*
X175050087Y-189096732D01*
X175095933Y-189094503D01*
X175155356Y-189092122D01*
X175224567Y-189089732D01*
X175299772Y-189087477D01*
X175352323Y-189086097D01*
X175436355Y-189084168D01*
X175502161Y-189083103D01*
X175552667Y-189083007D01*
X175590801Y-189083988D01*
X175619488Y-189086154D01*
X175641657Y-189089611D01*
X175660233Y-189094466D01*
X175669823Y-189097715D01*
X175694983Y-189107003D01*
X175715132Y-189116343D01*
X175730828Y-189128050D01*
X175742627Y-189144434D01*
X175751084Y-189167809D01*
X175756755Y-189200489D01*
X175760197Y-189244784D01*
X175761966Y-189303009D01*
X175762618Y-189377476D01*
X175762709Y-189470498D01*
X175762709Y-189484000D01*
X175762630Y-189578836D01*
X175762120Y-189654830D01*
X175760770Y-189714305D01*
X175758171Y-189759585D01*
X175753914Y-189792993D01*
X175747591Y-189816854D01*
X175738792Y-189833492D01*
X175727108Y-189845229D01*
X175712131Y-189854391D01*
X175696181Y-189862039D01*
X175680477Y-189868038D01*
X175660746Y-189872599D01*
X175634057Y-189875914D01*
X175597476Y-189878176D01*
X175548071Y-189879576D01*
X175482911Y-189880306D01*
X175413459Y-189880542D01*
X175335257Y-189880201D01*
X175256355Y-189879056D01*
X175181868Y-189877241D01*
X175116913Y-189874887D01*
X175066604Y-189872126D01*
X175056035Y-189871314D01*
X175005567Y-189867294D01*
X174971592Y-189865665D01*
X174949520Y-189866921D01*
X174934763Y-189871555D01*
X174922732Y-189880061D01*
X174915806Y-189886388D01*
X174904109Y-189898705D01*
X174896525Y-189912350D01*
X174892170Y-189931959D01*
X174890157Y-189962168D01*
X174889600Y-190007614D01*
X174889584Y-190023614D01*
X174889836Y-190073865D01*
X174891243Y-190107647D01*
X174894784Y-190129657D01*
X174901437Y-190144593D01*
X174912181Y-190157152D01*
X174918688Y-190163351D01*
X174941916Y-190183240D01*
X174965101Y-190197647D01*
X174992663Y-190207862D01*
X175029024Y-190215175D01*
X175078605Y-190220876D01*
X175130361Y-190225114D01*
X175193341Y-190230124D01*
X175259723Y-190235885D01*
X175320793Y-190241615D01*
X175360542Y-190245717D01*
X175421201Y-190250438D01*
X175496722Y-190253299D01*
X175580876Y-190254247D01*
X175667436Y-190253228D01*
X175750173Y-190250189D01*
X175768000Y-190249199D01*
X175853864Y-190242318D01*
X175935242Y-190232469D01*
X176008239Y-190220327D01*
X176068957Y-190206570D01*
X176113497Y-190191873D01*
X176122542Y-190187680D01*
X176188090Y-190147326D01*
X176239691Y-190098954D01*
X176279182Y-190039663D01*
X176308398Y-189966550D01*
X176329177Y-189876711D01*
X176332610Y-189855645D01*
X176339515Y-189827853D01*
X176348792Y-189809182D01*
X176349384Y-189808549D01*
X176353300Y-189794227D01*
X176356441Y-189762122D01*
X176358825Y-189715605D01*
X176360465Y-189658046D01*
X176361378Y-189592814D01*
X176361579Y-189523280D01*
X176361371Y-189493614D01*
X176232814Y-189493614D01*
X176230693Y-189577561D01*
X176226536Y-189660660D01*
X176220452Y-189738539D01*
X176212546Y-189806827D01*
X176203569Y-189858277D01*
X176184615Y-189928658D01*
X176160475Y-189984460D01*
X176128545Y-190027638D01*
X176086224Y-190060152D01*
X176030908Y-190083958D01*
X175959995Y-190101014D01*
X175870883Y-190113276D01*
X175863487Y-190114048D01*
X175776926Y-190122847D01*
X175708045Y-190129542D01*
X175653472Y-190134262D01*
X175609839Y-190137133D01*
X175573777Y-190138283D01*
X175541915Y-190137840D01*
X175510883Y-190135932D01*
X175477313Y-190132685D01*
X175450500Y-190129685D01*
X175404033Y-190124855D01*
X175344193Y-190119344D01*
X175278734Y-190113835D01*
X175215989Y-190109050D01*
X175146612Y-190103970D01*
X175095542Y-190099451D01*
X175059976Y-190094535D01*
X175037108Y-190088268D01*
X175024135Y-190079695D01*
X175018251Y-190067860D01*
X175016652Y-190051808D01*
X175016583Y-190041123D01*
X175016583Y-189997291D01*
X175341104Y-190001089D01*
X175446980Y-190002070D01*
X175534030Y-190002041D01*
X175604585Y-190000621D01*
X175660976Y-189997427D01*
X175705534Y-189992079D01*
X175740591Y-189984193D01*
X175768477Y-189973389D01*
X175791523Y-189959284D01*
X175812062Y-189941497D01*
X175831431Y-189920775D01*
X175853143Y-189894200D01*
X175866303Y-189870604D01*
X175873919Y-189842194D01*
X175878994Y-189801178D01*
X175879463Y-189796243D01*
X175881266Y-189764740D01*
X175882618Y-189715749D01*
X175883485Y-189652943D01*
X175883835Y-189579997D01*
X175883635Y-189500584D01*
X175882852Y-189418408D01*
X175878904Y-189118875D01*
X175846979Y-189071250D01*
X175801756Y-189022083D01*
X175757132Y-188992298D01*
X175699209Y-188960971D01*
X175402875Y-188961615D01*
X175323973Y-188962054D01*
X175250485Y-188962970D01*
X175185520Y-188964284D01*
X175132184Y-188965917D01*
X175093587Y-188967791D01*
X175072835Y-188969827D01*
X175072146Y-188969970D01*
X175037750Y-188977681D01*
X175037750Y-188929929D01*
X175039892Y-188897993D01*
X175047651Y-188881381D01*
X175057261Y-188875983D01*
X175074613Y-188873035D01*
X175108606Y-188869263D01*
X175154750Y-188865099D01*
X175208557Y-188860976D01*
X175223949Y-188859916D01*
X175292667Y-188854962D01*
X175368106Y-188848967D01*
X175440686Y-188842720D01*
X175495988Y-188837501D01*
X175567099Y-188831697D01*
X175627209Y-188830338D01*
X175686018Y-188833441D01*
X175728821Y-188837942D01*
X175784943Y-188844609D01*
X175843085Y-188851384D01*
X175893766Y-188857166D01*
X175910875Y-188859070D01*
X175989111Y-188875181D01*
X176057952Y-188904240D01*
X176113846Y-188944298D01*
X176152050Y-188991332D01*
X176172012Y-189034422D01*
X176187822Y-189084283D01*
X176192678Y-189107749D01*
X176201348Y-189156157D01*
X176212419Y-189209398D01*
X176218802Y-189236778D01*
X176225894Y-189280401D01*
X176230522Y-189340663D01*
X176232793Y-189413191D01*
X176232814Y-189493614D01*
X176361371Y-189493614D01*
X176361084Y-189452812D01*
X176359908Y-189384782D01*
X176358068Y-189322558D01*
X176355578Y-189269511D01*
X176352455Y-189229010D01*
X176348714Y-189204425D01*
X176346558Y-189199083D01*
X176338572Y-189181304D01*
X176329646Y-189148581D01*
X176321349Y-189106989D01*
X176319026Y-189092416D01*
X176305695Y-189023350D01*
X176286871Y-188968313D01*
X176259210Y-188920275D01*
X176219363Y-188872208D01*
X176208990Y-188861303D01*
X176165661Y-188823031D01*
X176115732Y-188789059D01*
X176064877Y-188762501D01*
X176018773Y-188746469D01*
X175993595Y-188743166D01*
X175969527Y-188741601D01*
X175930938Y-188737399D01*
X175884206Y-188731298D01*
X175857037Y-188727354D01*
X175756732Y-188716737D01*
X175642344Y-188712386D01*
X175520010Y-188714302D01*
X175520010Y-188714302D01*
G37*
X175520010Y-188714302D02*
X175395865Y-188722488D01*
X175349959Y-188727190D01*
X175291134Y-188733278D01*
X175233231Y-188738285D01*
X175182987Y-188741688D01*
X175147674Y-188742960D01*
X175071346Y-188747072D01*
X175008736Y-188758488D01*
X174962372Y-188776611D01*
X174942516Y-188791329D01*
X174931129Y-188803849D01*
X174923648Y-188817114D01*
X174919326Y-188835560D01*
X174917414Y-188863622D01*
X174917167Y-188905735D01*
X174917508Y-188939780D01*
X174919148Y-189002842D01*
X174923542Y-189047586D01*
X174932544Y-189076843D01*
X174948010Y-189093442D01*
X174971793Y-189100214D01*
X175005748Y-189099988D01*
X175021612Y-189098664D01*
X175050087Y-189096732D01*
X175095933Y-189094503D01*
X175155356Y-189092122D01*
X175224567Y-189089732D01*
X175299772Y-189087477D01*
X175352323Y-189086097D01*
X175436355Y-189084168D01*
X175502161Y-189083103D01*
X175552667Y-189083007D01*
X175590801Y-189083988D01*
X175619488Y-189086154D01*
X175641657Y-189089611D01*
X175660233Y-189094466D01*
X175669823Y-189097715D01*
X175694983Y-189107003D01*
X175715132Y-189116343D01*
X175730828Y-189128050D01*
X175742627Y-189144434D01*
X175751084Y-189167809D01*
X175756755Y-189200489D01*
X175760197Y-189244784D01*
X175761966Y-189303009D01*
X175762618Y-189377476D01*
X175762709Y-189470498D01*
X175762709Y-189484000D01*
X175762630Y-189578836D01*
X175762120Y-189654830D01*
X175760770Y-189714305D01*
X175758171Y-189759585D01*
X175753914Y-189792993D01*
X175747591Y-189816854D01*
X175738792Y-189833492D01*
X175727108Y-189845229D01*
X175712131Y-189854391D01*
X175696181Y-189862039D01*
X175680477Y-189868038D01*
X175660746Y-189872599D01*
X175634057Y-189875914D01*
X175597476Y-189878176D01*
X175548071Y-189879576D01*
X175482911Y-189880306D01*
X175413459Y-189880542D01*
X175335257Y-189880201D01*
X175256355Y-189879056D01*
X175181868Y-189877241D01*
X175116913Y-189874887D01*
X175066604Y-189872126D01*
X175056035Y-189871314D01*
X175005567Y-189867294D01*
X174971592Y-189865665D01*
X174949520Y-189866921D01*
X174934763Y-189871555D01*
X174922732Y-189880061D01*
X174915806Y-189886388D01*
X174904109Y-189898705D01*
X174896525Y-189912350D01*
X174892170Y-189931959D01*
X174890157Y-189962168D01*
X174889600Y-190007614D01*
X174889584Y-190023614D01*
X174889836Y-190073865D01*
X174891243Y-190107647D01*
X174894784Y-190129657D01*
X174901437Y-190144593D01*
X174912181Y-190157152D01*
X174918688Y-190163351D01*
X174941916Y-190183240D01*
X174965101Y-190197647D01*
X174992663Y-190207862D01*
X175029024Y-190215175D01*
X175078605Y-190220876D01*
X175130361Y-190225114D01*
X175193341Y-190230124D01*
X175259723Y-190235885D01*
X175320793Y-190241615D01*
X175360542Y-190245717D01*
X175421201Y-190250438D01*
X175496722Y-190253299D01*
X175580876Y-190254247D01*
X175667436Y-190253228D01*
X175750173Y-190250189D01*
X175768000Y-190249199D01*
X175853864Y-190242318D01*
X175935242Y-190232469D01*
X176008239Y-190220327D01*
X176068957Y-190206570D01*
X176113497Y-190191873D01*
X176122542Y-190187680D01*
X176188090Y-190147326D01*
X176239691Y-190098954D01*
X176279182Y-190039663D01*
X176308398Y-189966550D01*
X176329177Y-189876711D01*
X176332610Y-189855645D01*
X176339515Y-189827853D01*
X176348792Y-189809182D01*
X176349384Y-189808549D01*
X176353300Y-189794227D01*
X176356441Y-189762122D01*
X176358825Y-189715605D01*
X176360465Y-189658046D01*
X176361378Y-189592814D01*
X176361579Y-189523280D01*
X176361371Y-189493614D01*
X176232814Y-189493614D01*
X176230693Y-189577561D01*
X176226536Y-189660660D01*
X176220452Y-189738539D01*
X176212546Y-189806827D01*
X176203569Y-189858277D01*
X176184615Y-189928658D01*
X176160475Y-189984460D01*
X176128545Y-190027638D01*
X176086224Y-190060152D01*
X176030908Y-190083958D01*
X175959995Y-190101014D01*
X175870883Y-190113276D01*
X175863487Y-190114048D01*
X175776926Y-190122847D01*
X175708045Y-190129542D01*
X175653472Y-190134262D01*
X175609839Y-190137133D01*
X175573777Y-190138283D01*
X175541915Y-190137840D01*
X175510883Y-190135932D01*
X175477313Y-190132685D01*
X175450500Y-190129685D01*
X175404033Y-190124855D01*
X175344193Y-190119344D01*
X175278734Y-190113835D01*
X175215989Y-190109050D01*
X175146612Y-190103970D01*
X175095542Y-190099451D01*
X175059976Y-190094535D01*
X175037108Y-190088268D01*
X175024135Y-190079695D01*
X175018251Y-190067860D01*
X175016652Y-190051808D01*
X175016583Y-190041123D01*
X175016583Y-189997291D01*
X175341104Y-190001089D01*
X175446980Y-190002070D01*
X175534030Y-190002041D01*
X175604585Y-190000621D01*
X175660976Y-189997427D01*
X175705534Y-189992079D01*
X175740591Y-189984193D01*
X175768477Y-189973389D01*
X175791523Y-189959284D01*
X175812062Y-189941497D01*
X175831431Y-189920775D01*
X175853143Y-189894200D01*
X175866303Y-189870604D01*
X175873919Y-189842194D01*
X175878994Y-189801178D01*
X175879463Y-189796243D01*
X175881266Y-189764740D01*
X175882618Y-189715749D01*
X175883485Y-189652943D01*
X175883835Y-189579997D01*
X175883635Y-189500584D01*
X175882852Y-189418408D01*
X175878904Y-189118875D01*
X175846979Y-189071250D01*
X175801756Y-189022083D01*
X175757132Y-188992298D01*
X175699209Y-188960971D01*
X175402875Y-188961615D01*
X175323973Y-188962054D01*
X175250485Y-188962970D01*
X175185520Y-188964284D01*
X175132184Y-188965917D01*
X175093587Y-188967791D01*
X175072835Y-188969827D01*
X175072146Y-188969970D01*
X175037750Y-188977681D01*
X175037750Y-188929929D01*
X175039892Y-188897993D01*
X175047651Y-188881381D01*
X175057261Y-188875983D01*
X175074613Y-188873035D01*
X175108606Y-188869263D01*
X175154750Y-188865099D01*
X175208557Y-188860976D01*
X175223949Y-188859916D01*
X175292667Y-188854962D01*
X175368106Y-188848967D01*
X175440686Y-188842720D01*
X175495988Y-188837501D01*
X175567099Y-188831697D01*
X175627209Y-188830338D01*
X175686018Y-188833441D01*
X175728821Y-188837942D01*
X175784943Y-188844609D01*
X175843085Y-188851384D01*
X175893766Y-188857166D01*
X175910875Y-188859070D01*
X175989111Y-188875181D01*
X176057952Y-188904240D01*
X176113846Y-188944298D01*
X176152050Y-188991332D01*
X176172012Y-189034422D01*
X176187822Y-189084283D01*
X176192678Y-189107749D01*
X176201348Y-189156157D01*
X176212419Y-189209398D01*
X176218802Y-189236778D01*
X176225894Y-189280401D01*
X176230522Y-189340663D01*
X176232793Y-189413191D01*
X176232814Y-189493614D01*
X176361371Y-189493614D01*
X176361084Y-189452812D01*
X176359908Y-189384782D01*
X176358068Y-189322558D01*
X176355578Y-189269511D01*
X176352455Y-189229010D01*
X176348714Y-189204425D01*
X176346558Y-189199083D01*
X176338572Y-189181304D01*
X176329646Y-189148581D01*
X176321349Y-189106989D01*
X176319026Y-189092416D01*
X176305695Y-189023350D01*
X176286871Y-188968313D01*
X176259210Y-188920275D01*
X176219363Y-188872208D01*
X176208990Y-188861303D01*
X176165661Y-188823031D01*
X176115732Y-188789059D01*
X176064877Y-188762501D01*
X176018773Y-188746469D01*
X175993595Y-188743166D01*
X175969527Y-188741601D01*
X175930938Y-188737399D01*
X175884206Y-188731298D01*
X175857037Y-188727354D01*
X175756732Y-188716737D01*
X175642344Y-188712386D01*
X175520010Y-188714302D01*
G36*
X166968494Y-188739706D02*
G01*
X166871341Y-188743716D01*
X166782834Y-188749628D01*
X166705606Y-188757342D01*
X166642287Y-188766756D01*
X166595512Y-188777771D01*
X166573125Y-188786875D01*
X166547373Y-188799834D01*
X166528687Y-188806447D01*
X166526590Y-188806666D01*
X166507923Y-188814331D01*
X166480705Y-188834557D01*
X166449371Y-188863189D01*
X166418356Y-188896074D01*
X166392096Y-188929057D01*
X166385533Y-188938779D01*
X166360714Y-188986892D01*
X166342666Y-189039312D01*
X166339383Y-189054093D01*
X166332262Y-189088746D01*
X166325551Y-189115060D01*
X166321853Y-189125011D01*
X166317823Y-189141741D01*
X166314098Y-189176227D01*
X166310771Y-189225061D01*
X166307939Y-189284833D01*
X166305697Y-189352133D01*
X166304140Y-189423554D01*
X166303363Y-189495685D01*
X166303461Y-189565118D01*
X166304530Y-189628443D01*
X166306419Y-189677739D01*
X166314577Y-189790103D01*
X166326114Y-189882511D01*
X166340980Y-189954691D01*
X166359123Y-190006370D01*
X166370489Y-190025967D01*
X166384719Y-190048546D01*
X166391137Y-190064350D01*
X166391167Y-190064946D01*
X166399733Y-190079253D01*
X166422393Y-190100210D01*
X166454589Y-190124458D01*
X166491764Y-190148639D01*
X166529361Y-190169395D01*
X166539334Y-190174131D01*
X166593712Y-190192658D01*
X166667294Y-190207432D01*
X166760444Y-190218490D01*
X166873530Y-190225869D01*
X167006915Y-190229607D01*
X167087026Y-190230125D01*
X167322510Y-190230125D01*
X167322505Y-190516404D01*
X167322801Y-190610181D01*
X167323735Y-190684332D01*
X167325372Y-190740391D01*
X167327777Y-190779889D01*
X167331016Y-190804359D01*
X167335154Y-190815335D01*
X167335200Y-190815383D01*
X167350415Y-190820198D01*
X167382903Y-190823979D01*
X167428938Y-190826746D01*
X167484798Y-190828516D01*
X167546757Y-190829309D01*
X167611093Y-190829142D01*
X167674079Y-190828033D01*
X167731993Y-190826002D01*
X167781111Y-190823066D01*
X167817707Y-190819244D01*
X167838058Y-190814554D01*
X167840518Y-190812889D01*
X167842779Y-190805040D01*
X167844770Y-190786629D01*
X167846502Y-190756689D01*
X167847987Y-190714254D01*
X167849236Y-190658355D01*
X167850262Y-190588027D01*
X167851075Y-190502302D01*
X167851687Y-190400212D01*
X167852109Y-190280791D01*
X167852353Y-190143071D01*
X167852430Y-189986086D01*
X167852357Y-189815410D01*
X167852097Y-189483368D01*
X167322500Y-189483368D01*
X167322324Y-189574509D01*
X167321822Y-189658965D01*
X167321032Y-189734406D01*
X167319995Y-189798503D01*
X167318750Y-189848926D01*
X167317336Y-189883346D01*
X167315793Y-189899435D01*
X167315445Y-189900277D01*
X167302990Y-189902644D01*
X167273064Y-189904673D01*
X167229360Y-189906219D01*
X167175572Y-189907139D01*
X167135107Y-189907333D01*
X167068477Y-189907042D01*
X167019211Y-189905927D01*
X166983508Y-189903620D01*
X166957571Y-189899755D01*
X166937601Y-189893965D01*
X166921427Y-189886724D01*
X166902897Y-189876513D01*
X166887966Y-189865245D01*
X166876247Y-189850655D01*
X166867351Y-189830477D01*
X166860892Y-189802448D01*
X166856480Y-189764301D01*
X166853729Y-189713772D01*
X166852249Y-189648595D01*
X166851654Y-189566506D01*
X166851554Y-189478708D01*
X166851642Y-189387642D01*
X166851994Y-189315271D01*
X166852752Y-189259126D01*
X166854057Y-189216736D01*
X166856050Y-189185630D01*
X166858874Y-189163339D01*
X166862668Y-189147391D01*
X166867576Y-189135316D01*
X166871639Y-189128026D01*
X166888553Y-189104512D01*
X166908986Y-189087064D01*
X166936172Y-189074826D01*
X166973345Y-189066943D01*
X167023740Y-189062558D01*
X167090592Y-189060816D01*
X167126202Y-189060666D01*
X167183855Y-189061069D01*
X167234797Y-189062179D01*
X167274905Y-189063848D01*
X167300053Y-189065929D01*
X167305760Y-189067090D01*
X167310042Y-189070582D01*
X167313535Y-189078746D01*
X167316319Y-189093526D01*
X167318470Y-189116865D01*
X167320068Y-189150707D01*
X167321190Y-189196998D01*
X167321915Y-189257680D01*
X167322320Y-189334697D01*
X167322484Y-189429994D01*
X167322500Y-189483368D01*
X167852097Y-189483368D01*
X167851587Y-188833125D01*
X167820759Y-188804957D01*
X167796742Y-188787491D01*
X167767549Y-188777195D01*
X167725405Y-188771385D01*
X167722903Y-188771171D01*
X167688016Y-188768241D01*
X167637854Y-188764020D01*
X167578233Y-188758998D01*
X167514970Y-188753665D01*
X167491834Y-188751714D01*
X167390929Y-188744702D01*
X167285511Y-188740096D01*
X167178211Y-188737795D01*
X167071661Y-188737699D01*
X166968494Y-188739706D01*
X166968494Y-188739706D01*
G37*
X166968494Y-188739706D02*
X166871341Y-188743716D01*
X166782834Y-188749628D01*
X166705606Y-188757342D01*
X166642287Y-188766756D01*
X166595512Y-188777771D01*
X166573125Y-188786875D01*
X166547373Y-188799834D01*
X166528687Y-188806447D01*
X166526590Y-188806666D01*
X166507923Y-188814331D01*
X166480705Y-188834557D01*
X166449371Y-188863189D01*
X166418356Y-188896074D01*
X166392096Y-188929057D01*
X166385533Y-188938779D01*
X166360714Y-188986892D01*
X166342666Y-189039312D01*
X166339383Y-189054093D01*
X166332262Y-189088746D01*
X166325551Y-189115060D01*
X166321853Y-189125011D01*
X166317823Y-189141741D01*
X166314098Y-189176227D01*
X166310771Y-189225061D01*
X166307939Y-189284833D01*
X166305697Y-189352133D01*
X166304140Y-189423554D01*
X166303363Y-189495685D01*
X166303461Y-189565118D01*
X166304530Y-189628443D01*
X166306419Y-189677739D01*
X166314577Y-189790103D01*
X166326114Y-189882511D01*
X166340980Y-189954691D01*
X166359123Y-190006370D01*
X166370489Y-190025967D01*
X166384719Y-190048546D01*
X166391137Y-190064350D01*
X166391167Y-190064946D01*
X166399733Y-190079253D01*
X166422393Y-190100210D01*
X166454589Y-190124458D01*
X166491764Y-190148639D01*
X166529361Y-190169395D01*
X166539334Y-190174131D01*
X166593712Y-190192658D01*
X166667294Y-190207432D01*
X166760444Y-190218490D01*
X166873530Y-190225869D01*
X167006915Y-190229607D01*
X167087026Y-190230125D01*
X167322510Y-190230125D01*
X167322505Y-190516404D01*
X167322801Y-190610181D01*
X167323735Y-190684332D01*
X167325372Y-190740391D01*
X167327777Y-190779889D01*
X167331016Y-190804359D01*
X167335154Y-190815335D01*
X167335200Y-190815383D01*
X167350415Y-190820198D01*
X167382903Y-190823979D01*
X167428938Y-190826746D01*
X167484798Y-190828516D01*
X167546757Y-190829309D01*
X167611093Y-190829142D01*
X167674079Y-190828033D01*
X167731993Y-190826002D01*
X167781111Y-190823066D01*
X167817707Y-190819244D01*
X167838058Y-190814554D01*
X167840518Y-190812889D01*
X167842779Y-190805040D01*
X167844770Y-190786629D01*
X167846502Y-190756689D01*
X167847987Y-190714254D01*
X167849236Y-190658355D01*
X167850262Y-190588027D01*
X167851075Y-190502302D01*
X167851687Y-190400212D01*
X167852109Y-190280791D01*
X167852353Y-190143071D01*
X167852430Y-189986086D01*
X167852357Y-189815410D01*
X167852097Y-189483368D01*
X167322500Y-189483368D01*
X167322324Y-189574509D01*
X167321822Y-189658965D01*
X167321032Y-189734406D01*
X167319995Y-189798503D01*
X167318750Y-189848926D01*
X167317336Y-189883346D01*
X167315793Y-189899435D01*
X167315445Y-189900277D01*
X167302990Y-189902644D01*
X167273064Y-189904673D01*
X167229360Y-189906219D01*
X167175572Y-189907139D01*
X167135107Y-189907333D01*
X167068477Y-189907042D01*
X167019211Y-189905927D01*
X166983508Y-189903620D01*
X166957571Y-189899755D01*
X166937601Y-189893965D01*
X166921427Y-189886724D01*
X166902897Y-189876513D01*
X166887966Y-189865245D01*
X166876247Y-189850655D01*
X166867351Y-189830477D01*
X166860892Y-189802448D01*
X166856480Y-189764301D01*
X166853729Y-189713772D01*
X166852249Y-189648595D01*
X166851654Y-189566506D01*
X166851554Y-189478708D01*
X166851642Y-189387642D01*
X166851994Y-189315271D01*
X166852752Y-189259126D01*
X166854057Y-189216736D01*
X166856050Y-189185630D01*
X166858874Y-189163339D01*
X166862668Y-189147391D01*
X166867576Y-189135316D01*
X166871639Y-189128026D01*
X166888553Y-189104512D01*
X166908986Y-189087064D01*
X166936172Y-189074826D01*
X166973345Y-189066943D01*
X167023740Y-189062558D01*
X167090592Y-189060816D01*
X167126202Y-189060666D01*
X167183855Y-189061069D01*
X167234797Y-189062179D01*
X167274905Y-189063848D01*
X167300053Y-189065929D01*
X167305760Y-189067090D01*
X167310042Y-189070582D01*
X167313535Y-189078746D01*
X167316319Y-189093526D01*
X167318470Y-189116865D01*
X167320068Y-189150707D01*
X167321190Y-189196998D01*
X167321915Y-189257680D01*
X167322320Y-189334697D01*
X167322484Y-189429994D01*
X167322500Y-189483368D01*
X167852097Y-189483368D01*
X167851587Y-188833125D01*
X167820759Y-188804957D01*
X167796742Y-188787491D01*
X167767549Y-188777195D01*
X167725405Y-188771385D01*
X167722903Y-188771171D01*
X167688016Y-188768241D01*
X167637854Y-188764020D01*
X167578233Y-188758998D01*
X167514970Y-188753665D01*
X167491834Y-188751714D01*
X167390929Y-188744702D01*
X167285511Y-188740096D01*
X167178211Y-188737795D01*
X167071661Y-188737699D01*
X166968494Y-188739706D01*
G36*
X171369043Y-188714228D02*
G01*
X171269614Y-188718193D01*
X171172485Y-188724915D01*
X171081189Y-188734132D01*
X170999260Y-188745582D01*
X170930232Y-188759003D01*
X170877639Y-188774134D01*
X170864607Y-188779406D01*
X170810869Y-188810735D01*
X170759509Y-188853662D01*
X170713906Y-188903958D01*
X170677440Y-188957393D01*
X170653491Y-189009737D01*
X170645415Y-189053705D01*
X170642548Y-189086766D01*
X170635844Y-189124231D01*
X170634596Y-189129458D01*
X170627109Y-189171385D01*
X170620781Y-189230032D01*
X170615780Y-189300974D01*
X170612274Y-189379789D01*
X170610431Y-189462051D01*
X170610418Y-189543338D01*
X170612404Y-189619226D01*
X170614512Y-189658625D01*
X170622542Y-189764457D01*
X170631503Y-189850909D01*
X170641685Y-189919756D01*
X170653378Y-189972776D01*
X170666873Y-190011743D01*
X170674771Y-190027166D01*
X170689319Y-190053500D01*
X170697743Y-190072274D01*
X170698584Y-190075975D01*
X170706531Y-190087871D01*
X170726945Y-190107462D01*
X170754682Y-190130699D01*
X170784598Y-190153533D01*
X170811549Y-190171914D01*
X170830392Y-190181795D01*
X170833904Y-190182500D01*
X170854578Y-190189205D01*
X170868496Y-190198898D01*
X170887764Y-190207370D01*
X170925081Y-190215937D01*
X170977332Y-190224323D01*
X171041405Y-190232247D01*
X171114184Y-190239432D01*
X171192556Y-190245599D01*
X171273405Y-190250469D01*
X171353619Y-190253764D01*
X171430083Y-190255205D01*
X171492334Y-190254706D01*
X171635209Y-190251291D01*
X171635209Y-190527990D01*
X171635301Y-190612146D01*
X171635695Y-190677719D01*
X171636564Y-190727292D01*
X171638083Y-190763449D01*
X171640425Y-190788773D01*
X171643766Y-190805846D01*
X171648279Y-190817252D01*
X171654138Y-190825575D01*
X171655370Y-190826969D01*
X171662664Y-190834077D01*
X171671842Y-190839488D01*
X171685658Y-190843433D01*
X171706866Y-190846143D01*
X171738217Y-190847848D01*
X171782467Y-190848780D01*
X171842367Y-190849171D01*
X171920672Y-190849249D01*
X171920959Y-190849250D01*
X171999823Y-190849129D01*
X172060229Y-190848635D01*
X172104884Y-190847567D01*
X172136496Y-190845727D01*
X172157771Y-190842915D01*
X172171418Y-190838932D01*
X172180144Y-190833579D01*
X172183902Y-190829895D01*
X172186873Y-190825326D01*
X172189490Y-190817741D01*
X172191776Y-190805866D01*
X172193753Y-190788428D01*
X172195442Y-190764153D01*
X172196867Y-190731765D01*
X172198049Y-190689993D01*
X172199010Y-190637561D01*
X172199772Y-190573196D01*
X172200358Y-190495624D01*
X172200790Y-190403571D01*
X172201089Y-190295763D01*
X172201279Y-190170926D01*
X172201380Y-190027786D01*
X172201416Y-189865069D01*
X172201417Y-189821542D01*
X172201451Y-189651355D01*
X172201493Y-189501067D01*
X172201460Y-189369412D01*
X172201263Y-189255124D01*
X172200819Y-189156935D01*
X172200039Y-189073579D01*
X172198839Y-189003789D01*
X172197132Y-188946298D01*
X172194833Y-188899840D01*
X172194101Y-188890809D01*
X172085000Y-188890809D01*
X172085000Y-190722250D01*
X171756917Y-190722250D01*
X171756917Y-190184124D01*
X171729518Y-190151562D01*
X171709470Y-190131350D01*
X171688265Y-190121749D01*
X171656774Y-190119042D01*
X171649524Y-190119000D01*
X171610222Y-190120746D01*
X171561939Y-190125277D01*
X171524315Y-190130266D01*
X171475468Y-190135180D01*
X171415424Y-190136096D01*
X171340278Y-190133015D01*
X171300038Y-190130291D01*
X171205417Y-190123114D01*
X171129261Y-190116843D01*
X171068912Y-190111075D01*
X171021707Y-190105407D01*
X170984988Y-190099439D01*
X170956094Y-190092767D01*
X170932364Y-190084990D01*
X170911138Y-190075706D01*
X170899411Y-190069728D01*
X170858236Y-190042273D01*
X170819758Y-190006781D01*
X170788894Y-189968687D01*
X170770564Y-189933421D01*
X170768390Y-189925021D01*
X170752776Y-189825308D01*
X170741031Y-189717954D01*
X170733305Y-189607628D01*
X170729745Y-189498998D01*
X170730499Y-189396733D01*
X170735716Y-189305502D01*
X170745544Y-189229972D01*
X170746211Y-189226423D01*
X170753915Y-189182053D01*
X170759604Y-189141477D01*
X170762188Y-189112613D01*
X170762240Y-189110006D01*
X170767312Y-189076564D01*
X170777480Y-189050083D01*
X170793188Y-189020680D01*
X170807792Y-188991006D01*
X170833138Y-188951992D01*
X170870374Y-188920336D01*
X170921483Y-188895190D01*
X170988446Y-188875708D01*
X171073246Y-188861042D01*
X171126233Y-188854919D01*
X171221029Y-188845662D01*
X171298305Y-188838809D01*
X171361555Y-188834226D01*
X171414274Y-188831781D01*
X171459956Y-188831340D01*
X171502095Y-188832770D01*
X171544185Y-188835939D01*
X171566417Y-188838145D01*
X171617556Y-188842960D01*
X171682724Y-188848252D01*
X171754811Y-188853488D01*
X171826703Y-188858134D01*
X171853251Y-188859676D01*
X171914178Y-188863619D01*
X171969479Y-188868191D01*
X172014905Y-188872965D01*
X172046204Y-188877514D01*
X172056980Y-188880155D01*
X172085000Y-188890809D01*
X172194101Y-188890809D01*
X172191855Y-188863147D01*
X172188112Y-188834954D01*
X172183519Y-188813993D01*
X172177988Y-188798997D01*
X172171435Y-188788700D01*
X172163773Y-188781836D01*
X172154917Y-188777136D01*
X172144779Y-188773335D01*
X172133275Y-188769167D01*
X172129862Y-188767788D01*
X172103249Y-188760797D01*
X172059152Y-188754042D01*
X172001250Y-188747984D01*
X171933224Y-188743084D01*
X171932807Y-188743060D01*
X171862573Y-188738626D01*
X171786400Y-188733202D01*
X171713015Y-188727445D01*
X171651146Y-188722009D01*
X171645792Y-188721495D01*
X171560666Y-188715617D01*
X171467238Y-188713282D01*
X171369043Y-188714228D01*
X171369043Y-188714228D01*
G37*
X171369043Y-188714228D02*
X171269614Y-188718193D01*
X171172485Y-188724915D01*
X171081189Y-188734132D01*
X170999260Y-188745582D01*
X170930232Y-188759003D01*
X170877639Y-188774134D01*
X170864607Y-188779406D01*
X170810869Y-188810735D01*
X170759509Y-188853662D01*
X170713906Y-188903958D01*
X170677440Y-188957393D01*
X170653491Y-189009737D01*
X170645415Y-189053705D01*
X170642548Y-189086766D01*
X170635844Y-189124231D01*
X170634596Y-189129458D01*
X170627109Y-189171385D01*
X170620781Y-189230032D01*
X170615780Y-189300974D01*
X170612274Y-189379789D01*
X170610431Y-189462051D01*
X170610418Y-189543338D01*
X170612404Y-189619226D01*
X170614512Y-189658625D01*
X170622542Y-189764457D01*
X170631503Y-189850909D01*
X170641685Y-189919756D01*
X170653378Y-189972776D01*
X170666873Y-190011743D01*
X170674771Y-190027166D01*
X170689319Y-190053500D01*
X170697743Y-190072274D01*
X170698584Y-190075975D01*
X170706531Y-190087871D01*
X170726945Y-190107462D01*
X170754682Y-190130699D01*
X170784598Y-190153533D01*
X170811549Y-190171914D01*
X170830392Y-190181795D01*
X170833904Y-190182500D01*
X170854578Y-190189205D01*
X170868496Y-190198898D01*
X170887764Y-190207370D01*
X170925081Y-190215937D01*
X170977332Y-190224323D01*
X171041405Y-190232247D01*
X171114184Y-190239432D01*
X171192556Y-190245599D01*
X171273405Y-190250469D01*
X171353619Y-190253764D01*
X171430083Y-190255205D01*
X171492334Y-190254706D01*
X171635209Y-190251291D01*
X171635209Y-190527990D01*
X171635301Y-190612146D01*
X171635695Y-190677719D01*
X171636564Y-190727292D01*
X171638083Y-190763449D01*
X171640425Y-190788773D01*
X171643766Y-190805846D01*
X171648279Y-190817252D01*
X171654138Y-190825575D01*
X171655370Y-190826969D01*
X171662664Y-190834077D01*
X171671842Y-190839488D01*
X171685658Y-190843433D01*
X171706866Y-190846143D01*
X171738217Y-190847848D01*
X171782467Y-190848780D01*
X171842367Y-190849171D01*
X171920672Y-190849249D01*
X171920959Y-190849250D01*
X171999823Y-190849129D01*
X172060229Y-190848635D01*
X172104884Y-190847567D01*
X172136496Y-190845727D01*
X172157771Y-190842915D01*
X172171418Y-190838932D01*
X172180144Y-190833579D01*
X172183902Y-190829895D01*
X172186873Y-190825326D01*
X172189490Y-190817741D01*
X172191776Y-190805866D01*
X172193753Y-190788428D01*
X172195442Y-190764153D01*
X172196867Y-190731765D01*
X172198049Y-190689993D01*
X172199010Y-190637561D01*
X172199772Y-190573196D01*
X172200358Y-190495624D01*
X172200790Y-190403571D01*
X172201089Y-190295763D01*
X172201279Y-190170926D01*
X172201380Y-190027786D01*
X172201416Y-189865069D01*
X172201417Y-189821542D01*
X172201451Y-189651355D01*
X172201493Y-189501067D01*
X172201460Y-189369412D01*
X172201263Y-189255124D01*
X172200819Y-189156935D01*
X172200039Y-189073579D01*
X172198839Y-189003789D01*
X172197132Y-188946298D01*
X172194833Y-188899840D01*
X172194101Y-188890809D01*
X172085000Y-188890809D01*
X172085000Y-190722250D01*
X171756917Y-190722250D01*
X171756917Y-190184124D01*
X171729518Y-190151562D01*
X171709470Y-190131350D01*
X171688265Y-190121749D01*
X171656774Y-190119042D01*
X171649524Y-190119000D01*
X171610222Y-190120746D01*
X171561939Y-190125277D01*
X171524315Y-190130266D01*
X171475468Y-190135180D01*
X171415424Y-190136096D01*
X171340278Y-190133015D01*
X171300038Y-190130291D01*
X171205417Y-190123114D01*
X171129261Y-190116843D01*
X171068912Y-190111075D01*
X171021707Y-190105407D01*
X170984988Y-190099439D01*
X170956094Y-190092767D01*
X170932364Y-190084990D01*
X170911138Y-190075706D01*
X170899411Y-190069728D01*
X170858236Y-190042273D01*
X170819758Y-190006781D01*
X170788894Y-189968687D01*
X170770564Y-189933421D01*
X170768390Y-189925021D01*
X170752776Y-189825308D01*
X170741031Y-189717954D01*
X170733305Y-189607628D01*
X170729745Y-189498998D01*
X170730499Y-189396733D01*
X170735716Y-189305502D01*
X170745544Y-189229972D01*
X170746211Y-189226423D01*
X170753915Y-189182053D01*
X170759604Y-189141477D01*
X170762188Y-189112613D01*
X170762240Y-189110006D01*
X170767312Y-189076564D01*
X170777480Y-189050083D01*
X170793188Y-189020680D01*
X170807792Y-188991006D01*
X170833138Y-188951992D01*
X170870374Y-188920336D01*
X170921483Y-188895190D01*
X170988446Y-188875708D01*
X171073246Y-188861042D01*
X171126233Y-188854919D01*
X171221029Y-188845662D01*
X171298305Y-188838809D01*
X171361555Y-188834226D01*
X171414274Y-188831781D01*
X171459956Y-188831340D01*
X171502095Y-188832770D01*
X171544185Y-188835939D01*
X171566417Y-188838145D01*
X171617556Y-188842960D01*
X171682724Y-188848252D01*
X171754811Y-188853488D01*
X171826703Y-188858134D01*
X171853251Y-188859676D01*
X171914178Y-188863619D01*
X171969479Y-188868191D01*
X172014905Y-188872965D01*
X172046204Y-188877514D01*
X172056980Y-188880155D01*
X172085000Y-188890809D01*
X172194101Y-188890809D01*
X172191855Y-188863147D01*
X172188112Y-188834954D01*
X172183519Y-188813993D01*
X172177988Y-188798997D01*
X172171435Y-188788700D01*
X172163773Y-188781836D01*
X172154917Y-188777136D01*
X172144779Y-188773335D01*
X172133275Y-188769167D01*
X172129862Y-188767788D01*
X172103249Y-188760797D01*
X172059152Y-188754042D01*
X172001250Y-188747984D01*
X171933224Y-188743084D01*
X171932807Y-188743060D01*
X171862573Y-188738626D01*
X171786400Y-188733202D01*
X171713015Y-188727445D01*
X171651146Y-188722009D01*
X171645792Y-188721495D01*
X171560666Y-188715617D01*
X171467238Y-188713282D01*
X171369043Y-188714228D01*
D11*
X175076000Y-176097000D02*
X178251000Y-176097000D01*
X178251000Y-176097000D02*
X178251000Y-177875000D01*
X178251000Y-177875000D02*
X175076000Y-177875000D01*
X175076000Y-171525000D02*
X178251000Y-171525000D01*
X178251000Y-171525000D02*
X178251000Y-173303000D01*
X178251000Y-173303000D02*
X175076000Y-173303000D01*
X168980000Y-178129000D02*
X175076000Y-178129000D01*
X175076000Y-178129000D02*
X175076000Y-171271000D01*
X175076000Y-171271000D02*
X167202000Y-171271000D01*
X167075000Y-171271000D02*
X167075000Y-178129000D01*
X167202000Y-178129000D02*
X168980000Y-178129000D01*
X177331619Y-174604761D02*
X177284000Y-174509523D01*
X177188761Y-174414285D01*
X177045904Y-174271428D01*
X176998285Y-174176190D01*
X176998285Y-174080952D01*
X177236380Y-174128571D02*
X177188761Y-174033333D01*
X177093523Y-173938095D01*
X176903047Y-173890476D01*
X176569714Y-173890476D01*
X176379238Y-173938095D01*
X176284000Y-174033333D01*
X176236380Y-174128571D01*
X176236380Y-174319047D01*
X176284000Y-174414285D01*
X176379238Y-174509523D01*
X176569714Y-174557142D01*
X176903047Y-174557142D01*
X177093523Y-174509523D01*
X177188761Y-174414285D01*
X177236380Y-174319047D01*
X177236380Y-174128571D01*
X177236380Y-175509523D02*
X177236380Y-174938095D01*
X177236380Y-175223809D02*
X176236380Y-175223809D01*
X176379238Y-175128571D01*
X176474476Y-175033333D01*
X176522095Y-174938095D01*
M02*
