G04 #@! TF.GenerationSoftware,KiCad,Pcbnew,(5.1.2)-2*
G04 #@! TF.CreationDate,2019-08-19T13:15:06+03:00*
G04 #@! TF.ProjectId,SigmaDSP ADAU1452,5369676d-6144-4535-9020-414441553134,rev?*
G04 #@! TF.SameCoordinates,Original*
G04 #@! TF.FileFunction,Soldermask,Bot*
G04 #@! TF.FilePolarity,Negative*
%FSLAX46Y46*%
G04 Gerber Fmt 4.6, Leading zero omitted, Abs format (unit mm)*
G04 Created by KiCad (PCBNEW (5.1.2)-2) date 2019-08-19 13:15:06*
%MOMM*%
%LPD*%
G04 APERTURE LIST*
%ADD10C,0.150000*%
%ADD11R,5.650000X5.650000*%
%ADD12C,3.600000*%
%ADD13C,2.051000*%
%ADD14C,2.100000*%
%ADD15O,2.100000X2.100000*%
%ADD16C,1.600000*%
%ADD17C,2.600000*%
%ADD18R,2.100000X2.100000*%
%ADD19R,3.448000X2.051000*%
%ADD20R,6.496000X6.496000*%
G04 APERTURE END LIST*
D10*
X215000000Y-163000000D02*
G75*
G02X217000000Y-165000000I0J-2000000D01*
G01*
X158000000Y-165000000D02*
G75*
G02X160000000Y-163000000I2000000J0D01*
G01*
X217000000Y-190000000D02*
G75*
G02X215000000Y-192000000I-2000000J0D01*
G01*
X160000000Y-192000000D02*
G75*
G02X158000000Y-190000000I0J2000000D01*
G01*
X163000000Y-192000000D02*
X172000000Y-192000000D01*
X172000000Y-192000000D02*
X172000000Y-194000000D01*
X172000000Y-194000000D02*
X163000000Y-194000000D01*
X163000000Y-194000000D02*
X163000000Y-192000000D01*
X174000000Y-192000000D02*
X174000000Y-194000000D01*
X174000000Y-194000000D02*
X201000000Y-194000000D01*
X201000000Y-194000000D02*
X201000000Y-192000000D01*
X201000000Y-192000000D02*
X174000000Y-192000000D01*
X203000000Y-192000000D02*
X203000000Y-194000000D01*
X203000000Y-194000000D02*
X211000000Y-194000000D01*
X211000000Y-192000000D02*
X203000000Y-192000000D01*
X160000000Y-192000000D02*
X161000000Y-192000000D01*
X161000000Y-192000000D02*
X161000000Y-194000000D01*
X161000000Y-194000000D02*
X160000000Y-194000000D01*
X158000000Y-190000000D02*
X158000000Y-189000000D01*
X158000000Y-189000000D02*
X156000000Y-189000000D01*
X156000000Y-189000000D02*
X156000000Y-190000000D01*
X160000000Y-194000000D02*
G75*
G02X156000000Y-190000000I0J4000000D01*
G01*
X160000000Y-163000000D02*
X161000000Y-163000000D01*
X161000000Y-163000000D02*
X161000000Y-161000000D01*
X161000000Y-161000000D02*
X160000000Y-161000000D01*
X158000000Y-165000000D02*
X158000000Y-166000000D01*
X158000000Y-166000000D02*
X156000000Y-166000000D01*
X156000000Y-166000000D02*
X156000000Y-165000000D01*
X156000000Y-165000000D02*
G75*
G02X160000000Y-161000000I4000000J0D01*
G01*
X215000000Y-163000000D02*
X214000000Y-163000000D01*
X214000000Y-163000000D02*
X214000000Y-161000000D01*
X214000000Y-161000000D02*
X215000000Y-161000000D01*
X217000000Y-165000000D02*
X217000000Y-166000000D01*
X217000000Y-166000000D02*
X219000000Y-166000000D01*
X219000000Y-166000000D02*
X219000000Y-165000000D01*
X215000000Y-161000000D02*
G75*
G02X219000000Y-165000000I0J-4000000D01*
G01*
X217000000Y-190000000D02*
X217000000Y-189000000D01*
X217000000Y-189000000D02*
X219000000Y-189000000D01*
X219000000Y-189000000D02*
X219000000Y-190000000D01*
X215000000Y-192000000D02*
X214000000Y-192000000D01*
X214000000Y-192000000D02*
X214000000Y-194000000D01*
X219000000Y-190000000D02*
G75*
G02X215000000Y-194000000I-4000000J0D01*
G01*
X214000000Y-194000000D02*
X215000000Y-194000000D01*
X158000000Y-187000000D02*
X156000000Y-187000000D01*
X156000000Y-187000000D02*
X156000000Y-168000000D01*
X156000000Y-168000000D02*
X158000000Y-168000000D01*
X158000000Y-168000000D02*
X158000000Y-187000000D01*
X217000000Y-187000000D02*
X219000000Y-187000000D01*
X219000000Y-187000000D02*
X219000000Y-168000000D01*
X219000000Y-168000000D02*
X217000000Y-168000000D01*
X217000000Y-168000000D02*
X217000000Y-187000000D01*
X163000000Y-163000000D02*
X163000000Y-161000000D01*
X163000000Y-161000000D02*
X172000000Y-161000000D01*
X172000000Y-161000000D02*
X172000000Y-163000000D01*
X172000000Y-163000000D02*
X163000000Y-163000000D01*
X212000000Y-163000000D02*
X203000000Y-163000000D01*
X203000000Y-163000000D02*
X203000000Y-161000000D01*
X203000000Y-161000000D02*
X212000000Y-161000000D01*
X212000000Y-161000000D02*
X212000000Y-163000000D01*
X174000000Y-163000000D02*
X174000000Y-161000000D01*
X174000000Y-161000000D02*
X201000000Y-161000000D01*
X201000000Y-161000000D02*
X201000000Y-163000000D01*
X201000000Y-163000000D02*
X174000000Y-163000000D01*
X150000000Y-159000000D02*
G75*
G02X154000000Y-155000000I4000000J0D01*
G01*
X221000000Y-155000000D02*
G75*
G02X225000000Y-159000000I0J-4000000D01*
G01*
X225000000Y-196000000D02*
G75*
G02X221000000Y-200000000I-4000000J0D01*
G01*
X154000000Y-200000000D02*
G75*
G02X150000000Y-196000000I0J4000000D01*
G01*
X154000000Y-200000000D02*
X221000000Y-200000000D01*
X225000000Y-196000000D02*
X225000000Y-159000000D01*
X221000000Y-155000000D02*
X154000000Y-155000000D01*
X150000000Y-159000000D02*
X150000000Y-196000000D01*
X211000000Y-192000000D02*
X212000000Y-192000000D01*
X212000000Y-192000000D02*
X212000000Y-194000000D01*
X212000000Y-194000000D02*
X211000000Y-194000000D01*
D11*
X186100000Y-177500000D03*
D12*
X221465000Y-158513600D03*
X221465000Y-196423500D03*
X153516500Y-158513600D03*
X153516500Y-196423500D03*
D13*
X158315000Y-156819000D03*
X160855000Y-156819000D03*
X163395000Y-156819000D03*
X165935000Y-156819000D03*
X168475000Y-156819000D03*
X171015000Y-156819000D03*
X173555000Y-156819000D03*
X176095000Y-156819000D03*
X176095000Y-159359000D03*
X173555000Y-159359000D03*
X171015000Y-159359000D03*
X168475000Y-159359000D03*
X165935000Y-159359000D03*
X163395000Y-159359000D03*
X160855000Y-159359000D03*
X158315000Y-159359000D03*
X196415000Y-156819000D03*
X193875000Y-156819000D03*
X191335000Y-156819000D03*
X188795000Y-156819000D03*
X186255000Y-156819000D03*
X183715000Y-156819000D03*
X181175000Y-156819000D03*
X178635000Y-156819000D03*
X178635000Y-159359000D03*
X181175000Y-159359000D03*
X183715000Y-159359000D03*
X186255000Y-159359000D03*
X188795000Y-159359000D03*
X191335000Y-159359000D03*
X193875000Y-159359000D03*
X196415000Y-159359000D03*
X216735000Y-159359000D03*
X214195000Y-159359000D03*
X211655000Y-159359000D03*
X209115000Y-159359000D03*
X206575000Y-159359000D03*
X204035000Y-159359000D03*
X201495000Y-159359000D03*
X198955000Y-159359000D03*
X198955000Y-156819000D03*
X201495000Y-156819000D03*
X204035000Y-156819000D03*
X206575000Y-156819000D03*
X209115000Y-156819000D03*
X211655000Y-156819000D03*
X214195000Y-156819000D03*
X216735000Y-156819000D03*
X151802000Y-168674000D03*
X151802000Y-171214000D03*
X151802000Y-173754000D03*
X151802000Y-176294000D03*
X151802000Y-178834000D03*
X151802000Y-181374000D03*
X151802000Y-183914000D03*
X151802000Y-186454000D03*
X223303000Y-168674000D03*
X223303000Y-171214000D03*
X223303000Y-173754000D03*
X223303000Y-176294000D03*
X223303000Y-178834000D03*
X223303000Y-181374000D03*
X223303000Y-183914000D03*
X223303000Y-186454000D03*
X220763000Y-186454000D03*
X220763000Y-183914000D03*
X220763000Y-181374000D03*
X220763000Y-178834000D03*
X220763000Y-176294000D03*
X220763000Y-173754000D03*
X220763000Y-171214000D03*
X220763000Y-168674000D03*
X151802000Y-166134000D03*
X154342000Y-166134000D03*
X154342000Y-163594000D03*
X151802000Y-163594000D03*
X223303000Y-166134000D03*
X220763000Y-166134000D03*
X220763000Y-163594000D03*
X223303000Y-163594000D03*
X154342000Y-191534000D03*
X151802000Y-191534000D03*
X176095000Y-195619000D03*
X173555000Y-195619000D03*
X171015000Y-195619000D03*
X168475000Y-195619000D03*
X165935000Y-195619000D03*
X163395000Y-195619000D03*
X160855000Y-195619000D03*
X158315000Y-195619000D03*
X158315000Y-198159000D03*
X160855000Y-198159000D03*
X163395000Y-198159000D03*
X165935000Y-198159000D03*
X168475000Y-198159000D03*
X171015000Y-198159000D03*
X173555000Y-198159000D03*
X176095000Y-198159000D03*
X178635000Y-195619000D03*
X181175000Y-195619000D03*
X183715000Y-195619000D03*
X186255000Y-195619000D03*
X188795000Y-195619000D03*
X191335000Y-195619000D03*
X193875000Y-195619000D03*
X196415000Y-195619000D03*
X196415000Y-198159000D03*
X193875000Y-198159000D03*
X191335000Y-198159000D03*
X188795000Y-198159000D03*
X186255000Y-198159000D03*
X183715000Y-198159000D03*
X181175000Y-198159000D03*
X178635000Y-198159000D03*
X198955000Y-198159000D03*
X201495000Y-198159000D03*
X204035000Y-198159000D03*
X206575000Y-198159000D03*
X209115000Y-198159000D03*
X211655000Y-198159000D03*
X214195000Y-198159000D03*
X216735000Y-198159000D03*
X216735000Y-195619000D03*
X214195000Y-195619000D03*
X211655000Y-195619000D03*
X209115000Y-195619000D03*
X206575000Y-195619000D03*
X204035000Y-195619000D03*
X201495000Y-195619000D03*
X198955000Y-195619000D03*
X154342000Y-186454000D03*
X154342000Y-183914000D03*
X154342000Y-181374000D03*
X154342000Y-178834000D03*
X154342000Y-176294000D03*
X154342000Y-173754000D03*
X154342000Y-171214000D03*
X154342000Y-168674000D03*
X151802000Y-188994000D03*
X154342000Y-188994000D03*
X220763000Y-191534000D03*
X223303000Y-191534000D03*
X223303000Y-188994000D03*
X220763000Y-188994000D03*
D14*
X180100000Y-187100000D03*
D15*
X180100000Y-189640000D03*
D16*
X188550000Y-186850000D03*
D17*
X159790000Y-164872000D03*
X214781000Y-189891000D03*
X214781000Y-164872000D03*
X159790000Y-189891000D03*
D18*
X162950000Y-172400000D03*
D15*
X162950000Y-174940000D03*
X162950000Y-177480000D03*
X162950000Y-180020000D03*
X162950000Y-182560000D03*
X162950000Y-185100000D03*
X175800000Y-167750000D03*
X173260000Y-167750000D03*
X170720000Y-167750000D03*
X168180000Y-167750000D03*
X165640000Y-167750000D03*
D18*
X163100000Y-167750000D03*
X163100000Y-165250000D03*
D15*
X165640000Y-165250000D03*
X168180000Y-165250000D03*
X170720000Y-165250000D03*
X173260000Y-165250000D03*
X175800000Y-165250000D03*
X192050000Y-167800000D03*
X189510000Y-167800000D03*
X186970000Y-167800000D03*
X184430000Y-167800000D03*
X181890000Y-167800000D03*
D18*
X179350000Y-167800000D03*
X179350000Y-165250000D03*
D15*
X181890000Y-165250000D03*
X184430000Y-165250000D03*
X186970000Y-165250000D03*
X189510000Y-165250000D03*
X192050000Y-165250000D03*
X208400000Y-165250000D03*
X205860000Y-165250000D03*
X203320000Y-165250000D03*
X200780000Y-165250000D03*
X198240000Y-165250000D03*
D18*
X195700000Y-165250000D03*
X195700000Y-184000000D03*
D15*
X198240000Y-184000000D03*
X200780000Y-184000000D03*
X203320000Y-184000000D03*
X205860000Y-184000000D03*
X208400000Y-184000000D03*
X208400000Y-179200000D03*
X205860000Y-179200000D03*
X203320000Y-179200000D03*
X200780000Y-179200000D03*
X198240000Y-179200000D03*
D18*
X195700000Y-179200000D03*
X195700000Y-174400000D03*
D15*
X198240000Y-174400000D03*
X200780000Y-174400000D03*
X203320000Y-174400000D03*
X205860000Y-174400000D03*
X208400000Y-174400000D03*
D18*
X214600000Y-178900000D03*
D15*
X214600000Y-176360000D03*
D18*
X195700000Y-167800000D03*
D15*
X198240000Y-167800000D03*
X200780000Y-167800000D03*
X203320000Y-167800000D03*
X210150000Y-190050000D03*
X207610000Y-190050000D03*
X205070000Y-190050000D03*
X202530000Y-190050000D03*
X199990000Y-190050000D03*
D18*
X197450000Y-190050000D03*
X159850000Y-174900000D03*
D15*
X159850000Y-177440000D03*
X159850000Y-179980000D03*
D19*
X176600000Y-172414000D03*
D20*
X170250000Y-174700000D03*
D19*
X176600000Y-176986000D03*
M02*
